STARTFONT 2.1
FONT -Adobe-Courier-Bold-R-Normal--34-240-100-100-M-200-ISO10646-1
SIZE 24 100 100
FONTBOUNDINGBOX 30 44 -7 -11
COMMENT ISO10646-1 extension by Markus Kuhn <mkuhn@acm.org>, 2001-03-20
COMMENT 
COMMENT +
COMMENT  Copyright 1984-1989, 1994 Adobe Systems Incorporated.
COMMENT  Copyright 1988, 1994 Digital Equipment Corporation.
COMMENT
COMMENT  Adobe is a trademark of Adobe Systems Incorporated which may be
COMMENT  registered in certain jurisdictions.
COMMENT  Permission to use these trademarks is hereby granted only in
COMMENT  association with the images described in this file.
COMMENT
COMMENT  Permission to use, copy, modify, distribute and sell this software
COMMENT  and its documentation for any purpose and without fee is hereby
COMMENT  granted, provided that the above copyright notices appear in all
COMMENT  copies and that both those copyright notices and this permission
COMMENT  notice appear in supporting documentation, and that the names of
COMMENT  Adobe Systems and Digital Equipment Corporation not be used in
COMMENT  advertising or publicity pertaining to distribution of the software
COMMENT  without specific, written prior permission.  Adobe Systems and
COMMENT  Digital Equipment Corporation make no representations about the
COMMENT  suitability of this software for any purpose.  It is provided "as
COMMENT  is" without express or implied warranty.
COMMENT -
STARTPROPERTIES 26
FOUNDRY "Adobe"
FAMILY_NAME "Courier"
WEIGHT_NAME "Bold"
SLANT "R"
SETWIDTH_NAME "Normal"
ADD_STYLE_NAME ""
PIXEL_SIZE 34
POINT_SIZE 240
RESOLUTION_X 100
RESOLUTION_Y 100
SPACING "M"
AVERAGE_WIDTH 200
CHARSET_REGISTRY "ISO10646"
CHARSET_ENCODING "1"
CAP_HEIGHT 20
X_HEIGHT 15
FONT_ASCENT 23
FONT_DESCENT 7
FACE_NAME "Courier Bold"
COPYRIGHT "Copyright (c) 1984, 1987 Adobe Systems Incorporated. All Rights Reserved. Copyright (c) 1988, 1991 Digital Equipment Corporation. All Rights Reserved."
NOTICE "No mark"
_DEC_DEVICE_FONTNAMES "PS=Courier-Bold"
DEFAULT_CHAR 0

STARTCHAR char0
ENCODING 0
SWIDTH 600 0
DWIDTH 20 0
BBX 17 19 1 0
BITMAP
AAAA80
000000
800080
000000
800080
000000
800080
000000
800080
000000
800080
000000
800080
000000
800080
000000
800080
000000
AAAA80
ENDCHAR
STARTCHAR space
ENCODING 32
SWIDTH 600 0
DWIDTH 20 0
BBX 1 1 0 0
BITMAP
00
ENDCHAR
STARTCHAR exclam
ENCODING 33
SWIDTH 600 0
DWIDTH 20 0
BBX 5 21 7 0
BITMAP
70
F8
F8
F8
F8
F8
70
70
70
70
70
70
70
70
70
20
00
00
70
F8
70
ENDCHAR
STARTCHAR quotedbl
ENCODING 34
SWIDTH 600 0
DWIDTH 20 0
BBX 9 10 5 10
BITMAP
E380
E380
E380
E380
E380
E380
E380
E380
E380
4100
ENDCHAR
STARTCHAR numbersign
ENCODING 35
SWIDTH 600 0
DWIDTH 20 0
BBX 15 26 2 -3
BITMAP
0E38
0E38
0E38
0E38
0E38
0E38
0E38
0E38
7FFE
7FFE
7FFE
1C70
1C70
1C70
1C70
FFFC
FFFC
FFFC
38E0
38E0
38E0
38E0
38E0
38E0
38E0
38E0
ENDCHAR
STARTCHAR dollar
ENCODING 36
SWIDTH 600 0
DWIDTH 20 0
BBX 14 27 3 -4
BITMAP
0700
0700
0700
0FD8
3FF8
7FF8
F078
E038
E038
F000
FE00
7FC0
3FF0
07F8
00FC
003C
E01C
E01C
F03C
FFF8
FFF0
E780
0700
0700
0700
0700
0700
ENDCHAR
STARTCHAR percent
ENCODING 37
SWIDTH 600 0
DWIDTH 20 0
BBX 15 21 2 0
BITMAP
1F00
3F80
3180
60C0
60C0
60C0
71C2
3F8E
1F3E
00F8
03E0
1F00
FCF8
F1FC
C38E
0306
0306
0306
018C
01FC
00F8
ENDCHAR
STARTCHAR ampersand
ENCODING 38
SWIDTH 600 0
DWIDTH 20 0
BBX 14 18 2 0
BITMAP
07A0
1FE0
3FE0
3C60
3800
3800
3C00
1C00
1E00
7F3C
7FBC
F3BC
E1F0
E0F0
E0F0
FFFC
7FBC
3F3C
ENDCHAR
STARTCHAR quotesingle
ENCODING 39
SWIDTH 600 0
DWIDTH 20 0
BBX 4 11 8 10
BITMAP
70
70
70
70
70
E0
E0
E0
E0
E0
E0
ENDCHAR
STARTCHAR parenleft
ENCODING 40
SWIDTH 600 0
DWIDTH 20 0
BBX 7 26 8 -5
BITMAP
0E
0E
1E
3C
38
38
78
70
70
F0
F0
F0
E0
E0
F0
F0
F0
70
70
78
38
3C
1C
1E
0E
0E
ENDCHAR
STARTCHAR parenright
ENCODING 41
SWIDTH 600 0
DWIDTH 20 0
BBX 7 26 4 -5
BITMAP
E0
E0
F0
78
38
38
3C
1C
1C
1E
1E
1E
0E
0E
1E
1E
1E
1C
1C
3C
38
78
70
F0
E0
E0
ENDCHAR
STARTCHAR asterisk
ENCODING 42
SWIDTH 600 0
DWIDTH 20 0
BBX 15 14 3 7
BITMAP
0380
0380
0380
0380
638C
FBBE
7FFC
1FF0
0FE0
0FE0
1EF0
3C78
783C
3018
ENDCHAR
STARTCHAR plus
ENCODING 43
SWIDTH 600 0
DWIDTH 20 0
BBX 17 17 1 1
BITMAP
01C000
01C000
01C000
01C000
01C000
01C000
01C000
FFFF80
FFFF80
FFFF80
01C000
01C000
01C000
01C000
01C000
01C000
01C000
ENDCHAR
STARTCHAR comma
ENCODING 44
SWIDTH 600 0
DWIDTH 20 0
BBX 7 10 5 -5
BITMAP
1E
1E
3C
3C
38
70
70
E0
E0
C0
ENDCHAR
STARTCHAR hyphen
ENCODING 45
SWIDTH 600 0
DWIDTH 20 0
BBX 15 3 2 8
BITMAP
FFFE
FFFE
FFFE
ENDCHAR
STARTCHAR period
ENCODING 46
SWIDTH 600 0
DWIDTH 20 0
BBX 5 4 7 0
BITMAP
70
F8
F8
70
ENDCHAR
STARTCHAR slash
ENCODING 47
SWIDTH 600 0
DWIDTH 20 0
BBX 13 27 3 -4
BITMAP
0038
0038
0078
0070
0070
00E0
00E0
01E0
01C0
01C0
0380
0380
0780
0700
0F00
0E00
0E00
1C00
1C00
3C00
3800
3800
7000
7000
F000
E000
E000
ENDCHAR
STARTCHAR zero
ENCODING 48
SWIDTH 600 0
DWIDTH 20 0
BBX 13 21 3 0
BITMAP
0F80
3FE0
7FF0
7070
F078
E038
E038
E038
E038
E038
E038
E038
E038
E038
E038
E038
F078
7070
7FF0
3FE0
0F80
ENDCHAR
STARTCHAR one
ENCODING 49
SWIDTH 600 0
DWIDTH 20 0
BBX 13 21 4 0
BITMAP
0300
0F00
7F00
FF00
FF00
6700
0700
0700
0700
0700
0700
0700
0700
0700
0700
0700
0700
0700
FFF8
FFF8
FFF8
ENDCHAR
STARTCHAR two
ENCODING 50
SWIDTH 600 0
DWIDTH 20 0
BBX 14 21 2 0
BITMAP
07C0
1FF0
3FF8
783C
701C
701C
701C
001C
0038
0078
00F0
01E0
03C0
0780
0F00
1E00
3C00
7800
FFFC
FFFC
FFFC
ENDCHAR
STARTCHAR three
ENCODING 51
SWIDTH 600 0
DWIDTH 20 0
BBX 15 21 2 0
BITMAP
07E0
1FF0
7FF8
783C
701C
001C
001C
003C
07F8
07F0
07F8
007C
001C
000E
000E
000E
001E
E03C
FFFC
FFF8
3FE0
ENDCHAR
STARTCHAR four
ENCODING 52
SWIDTH 600 0
DWIDTH 20 0
BBX 14 21 2 0
BITMAP
00F0
01F0
01F0
03F0
07F0
0770
0F70
0E70
1E70
1C70
3870
7870
7070
FFFC
FFFC
FFFC
0070
0070
03FC
03FC
03FC
ENDCHAR
STARTCHAR five
ENCODING 53
SWIDTH 600 0
DWIDTH 20 0
BBX 15 21 2 0
BITMAP
3FFC
3FFC
3FFC
3800
3800
3800
3800
3FE0
3FF8
3FFC
387C
001E
000E
000E
000E
000E
401E
F03C
FFF8
7FF8
1FE0
ENDCHAR
STARTCHAR six
ENCODING 54
SWIDTH 600 0
DWIDTH 20 0
BBX 14 21 3 0
BITMAP
01F8
07F8
0FF8
1F00
3C00
7800
7000
7000
E3C0
EFF0
FFF0
F878
F03C
E01C
E01C
F01C
703C
7878
7FF8
3FF0
0FC0
ENDCHAR
STARTCHAR seven
ENCODING 55
SWIDTH 600 0
DWIDTH 20 0
BBX 14 21 2 0
BITMAP
FFFC
FFFC
FFFC
E03C
E038
E038
0038
0078
0070
0070
00F0
00E0
00E0
01E0
01C0
01C0
03C0
0380
0780
0700
0700
ENDCHAR
STARTCHAR eight
ENCODING 56
SWIDTH 600 0
DWIDTH 20 0
BBX 14 21 3 0
BITMAP
0F80
3FE0
7FF0
7070
E038
E038
E038
7070
7FF0
3FE0
3FF0
7CF8
F03C
E01C
E01C
E01C
E01C
F87C
7FF8
3FF0
0FC0
ENDCHAR
STARTCHAR nine
ENCODING 57
SWIDTH 600 0
DWIDTH 20 0
BBX 14 21 3 0
BITMAP
0F80
3FE0
7FF0
78F0
F078
E038
E03C
E03C
E03C
F07C
78FC
3FDC
3F9C
0F3C
0038
0078
0070
61F0
FFE0
FF80
7E00
ENDCHAR
STARTCHAR colon
ENCODING 58
SWIDTH 600 0
DWIDTH 20 0
BBX 5 15 7 0
BITMAP
70
F8
F8
70
00
00
00
00
00
00
00
70
F8
F8
70
ENDCHAR
STARTCHAR semicolon
ENCODING 59
SWIDTH 600 0
DWIDTH 20 0
BBX 8 19 5 -4
BITMAP
0E
1F
1F
0E
00
00
00
00
00
00
1E
1E
3C
38
78
70
E0
E0
C0
ENDCHAR
STARTCHAR less
ENCODING 60
SWIDTH 600 0
DWIDTH 20 0
BBX 18 19 0 0
BITMAP
0001C0
0003C0
000FC0
003F80
00FE00
01F800
07E000
1F8000
7F0000
FC0000
7F0000
1F8000
07E000
01F800
00FE00
003F80
000FC0
0003C0
0001C0
ENDCHAR
STARTCHAR equal
ENCODING 61
SWIDTH 600 0
DWIDTH 20 0
BBX 17 9 1 5
BITMAP
FFFF80
FFFF80
FFFF80
000000
000000
000000
FFFF80
FFFF80
FFFF80
ENDCHAR
STARTCHAR greater
ENCODING 62
SWIDTH 600 0
DWIDTH 20 0
BBX 18 19 1 0
BITMAP
E00000
F00000
FC0000
7F0000
1FC000
07E000
01F800
007E00
003F80
000FC0
003F80
007E00
01F800
07E000
1FC000
7F0000
FC0000
F00000
E00000
ENDCHAR
STARTCHAR question
ENCODING 63
SWIDTH 600 0
DWIDTH 20 0
BBX 13 20 3 0
BITMAP
1FC0
7FE0
FFF0
E0F8
E038
E038
0038
0078
00F0
03F0
07C0
0780
0700
0700
0000
0000
0000
0700
0F80
0700
ENDCHAR
STARTCHAR at
ENCODING 64
SWIDTH 600 0
DWIDTH 20 0
BBX 14 23 3 -2
BITMAP
0FC0
1FE0
3870
7030
6030
E030
C030
C1F0
C7F0
C630
CC30
CC30
CC30
CE30
C7FC
C3BC
C000
E000
6000
7030
3870
1FE0
0FC0
ENDCHAR
STARTCHAR A
ENCODING 65
SWIDTH 600 0
DWIDTH 20 0
BBX 21 20 -1 0
BITMAP
1FF000
1FF800
1FF800
01DC00
01DC00
01DC00
038E00
038E00
038E00
070700
070700
070700
0FFF80
0FFF80
1FFFC0
1C01C0
1C01C0
FF8FF8
FF8FF8
FF8FF8
ENDCHAR
STARTCHAR B
ENCODING 66
SWIDTH 600 0
DWIDTH 20 0
BBX 18 20 1 0
BITMAP
FFF800
FFFE00
FFFF00
1C0780
1C0380
1C0380
1C0380
1C0780
1FFF00
1FFC00
1FFE00
1C0F80
1C03C0
1C01C0
1C01C0
1C01C0
1C03C0
FFFF80
FFFF00
FFFC00
ENDCHAR
STARTCHAR C
ENCODING 67
SWIDTH 600 0
DWIDTH 20 0
BBX 18 20 1 0
BITMAP
03F980
0FFF80
1FFF80
3E0F80
780780
700380
F00380
E00000
E00000
E00000
E00000
E00000
E00000
E00000
F00000
780380
7C07C0
3FFF80
1FFF00
07FC00
ENDCHAR
STARTCHAR D
ENCODING 68
SWIDTH 600 0
DWIDTH 20 0
BBX 17 20 1 0
BITMAP
FFE000
FFF800
FFFC00
383E00
380F00
380700
380780
380380
380380
380380
380380
380380
380380
380380
380780
380700
381F00
FFFE00
FFFC00
FFF000
ENDCHAR
STARTCHAR E
ENCODING 69
SWIDTH 600 0
DWIDTH 20 0
BBX 17 20 1 0
BITMAP
FFFF00
FFFF00
FFFF00
1C0700
1C0700
1C0700
1C7700
1C7000
1FF000
1FF000
1FF000
1C7000
1C7000
1C0380
1C0380
1C0380
1C0380
FFFF80
FFFF80
FFFF80
ENDCHAR
STARTCHAR F
ENCODING 70
SWIDTH 600 0
DWIDTH 20 0
BBX 17 20 1 0
BITMAP
FFFF80
FFFF80
FFFF80
1C0380
1C0380
1C0380
1C7380
1C7000
1FF000
1FF000
1FF000
1C7000
1C7000
1C0000
1C0000
1C0000
1C0000
FFE000
FFE000
FFE000
ENDCHAR
STARTCHAR G
ENCODING 71
SWIDTH 600 0
DWIDTH 20 0
BBX 17 20 2 0
BITMAP
03F300
0FFF00
1FFF00
3C0F00
780700
700700
F00700
E00000
E00000
E00000
E00000
E0FF80
E0FF80
E0FF80
F00700
700700
7C0F00
3FFF00
1FFE00
07F800
ENDCHAR
STARTCHAR H
ENCODING 72
SWIDTH 600 0
DWIDTH 20 0
BBX 17 20 1 0
BITMAP
FF7F80
FF7F80
FF7F80
380E00
380E00
380E00
380E00
380E00
3FFE00
3FFE00
3FFE00
380E00
380E00
380E00
380E00
380E00
380E00
FF7F80
FF7F80
FF7F80
ENDCHAR
STARTCHAR I
ENCODING 73
SWIDTH 600 0
DWIDTH 20 0
BBX 13 20 3 0
BITMAP
FFF8
FFF8
FFF8
0700
0700
0700
0700
0700
0700
0700
0700
0700
0700
0700
0700
0700
0700
FFF8
FFF8
FFF8
ENDCHAR
STARTCHAR J
ENCODING 74
SWIDTH 600 0
DWIDTH 20 0
BBX 17 20 2 0
BITMAP
07FF80
07FF80
07FF80
003800
003800
003800
003800
003800
003800
003800
E03800
E03800
E03800
E03800
E03800
E07800
F0F000
FFF000
7FE000
1F8000
ENDCHAR
STARTCHAR K
ENCODING 75
SWIDTH 600 0
DWIDTH 20 0
BBX 19 20 1 0
BITMAP
FF9FC0
FF9FC0
FF9FC0
1C0F00
1C1E00
1C3C00
1C7800
1CF000
1FE000
1FF000
1FF800
1E7C00
1C3C00
1C1E00
1C0E00
1C0F00
1C0700
FF87E0
FF87E0
FF87E0
ENDCHAR
STARTCHAR L
ENCODING 76
SWIDTH 600 0
DWIDTH 20 0
BBX 17 20 1 0
BITMAP
FFE000
FFE000
FFE000
0E0000
0E0000
0E0000
0E0000
0E0000
0E0000
0E0000
0E0000
0E0380
0E0380
0E0380
0E0380
0E0380
0E0380
FFFF80
FFFF80
FFFF80
ENDCHAR
STARTCHAR M
ENCODING 77
SWIDTH 600 0
DWIDTH 20 0
BBX 21 20 -1 0
BITMAP
FC01F8
FC01F8
FE03F8
3E03E0
3F07E0
3F07E0
3B8EE0
3B8EE0
3BDEE0
39DCE0
39DCE0
38F8E0
38F8E0
38F8E0
3870E0
3870E0
3800E0
FF07F8
FF07F8
FF07F8
ENDCHAR
STARTCHAR N
ENCODING 78
SWIDTH 600 0
DWIDTH 20 0
BBX 19 20 0 0
BITMAP
F81FE0
FC1FE0
FE1FE0
3E0380
3F0380
3F0380
3B8380
3BC380
39C380
39E380
38F380
387380
387B80
383B80
381F80
381F80
380F80
FF0780
FF0780
FF0380
ENDCHAR
STARTCHAR O
ENCODING 79
SWIDTH 600 0
DWIDTH 20 0
BBX 18 20 1 0
BITMAP
03F000
0FFC00
1FFE00
3C0F00
780780
700380
F003C0
E001C0
E001C0
E001C0
E001C0
E001C0
E001C0
F003C0
700380
780780
3C0F00
1FFE00
0FFC00
03F000
ENDCHAR
STARTCHAR P
ENCODING 80
SWIDTH 600 0
DWIDTH 20 0
BBX 17 20 1 0
BITMAP
FFF800
FFFE00
FFFF00
1C0F00
1C0380
1C0380
1C0380
1C0380
1C0780
1C0F00
1FFE00
1FFC00
1FF000
1C0000
1C0000
1C0000
1C0000
FFE000
FFE000
FFE000
ENDCHAR
STARTCHAR Q
ENCODING 81
SWIDTH 600 0
DWIDTH 20 0
BBX 18 25 1 -5
BITMAP
03F000
0FF800
1FFE00
3C0F00
780780
700380
F003C0
E001C0
E001C0
E001C0
E001C0
E001C0
E001C0
E001C0
700380
780780
3C0F00
1FFE00
0FFC00
07F000
0E0000
1FE1C0
3FFFC0
3FFFC0
383F00
ENDCHAR
STARTCHAR R
ENCODING 82
SWIDTH 600 0
DWIDTH 20 0
BBX 20 20 1 0
BITMAP
FFF800
FFFE00
FFFF00
1C0F00
1C0780
1C0380
1C0380
1C0780
1C0F00
1FFE00
1FFC00
1FF800
1C3C00
1C1E00
1C0F00
1C0780
1C03C0
FF83F0
FF81F0
FF81F0
ENDCHAR
STARTCHAR S
ENCODING 83
SWIDTH 600 0
DWIDTH 20 0
BBX 15 20 2 0
BITMAP
0FCC
3FFC
7FFC
F07C
E01C
E01C
F01C
F800
7F00
3FE0
0FF8
01FC
003E
E01E
E00E
E00E
F01E
FFFC
FFF8
E7E0
ENDCHAR
STARTCHAR T
ENCODING 84
SWIDTH 600 0
DWIDTH 20 0
BBX 17 20 1 0
BITMAP
FFFF80
FFFF80
FFFF80
E1C380
E1C380
E1C380
E1C380
E1C380
E1C380
01C000
01C000
01C000
01C000
01C000
01C000
01C000
01C000
3FFE00
3FFE00
3FFE00
ENDCHAR
STARTCHAR U
ENCODING 85
SWIDTH 600 0
DWIDTH 20 0
BBX 19 20 0 0
BITMAP
FF1FE0
FF1FE0
FF1FE0
380380
380380
380380
380380
380380
380380
380380
380380
380380
380380
380380
380380
1C0700
1F1F00
0FFE00
07FC00
01F000
ENDCHAR
STARTCHAR V
ENCODING 86
SWIDTH 600 0
DWIDTH 20 0
BBX 21 20 -1 0
BITMAP
FF8FF8
FF8FF8
FF8FF8
1C01C0
1C01C0
1E03C0
0E0380
0E0380
070700
070700
078F00
038E00
038E00
03DE00
01DC00
01DC00
00F800
00F800
00F800
007000
ENDCHAR
STARTCHAR W
ENCODING 87
SWIDTH 600 0
DWIDTH 20 0
BBX 19 20 0 0
BITMAP
FF1FE0
FF1FE0
FF1FE0
7001C0
7001C0
70E1C0
70E1C0
71F1C0
39F380
39F380
3BBB80
3BBB80
3BBB80
3F1F80
3F1F80
1E0F00
1E0F00
1E0F00
1C0700
1C0700
ENDCHAR
STARTCHAR X
ENCODING 88
SWIDTH 600 0
DWIDTH 20 0
BBX 19 20 0 0
BITMAP
FF1FE0
FF1FE0
FF1FE0
3C0780
1E0F00
0F1E00
07BC00
03F800
01F000
00E000
01F000
03F800
07BC00
0F1E00
0E0E00
1E0F00
3C0780
FF1FE0
FF1FE0
FF1FE0
ENDCHAR
STARTCHAR Y
ENCODING 89
SWIDTH 600 0
DWIDTH 20 0
BBX 19 20 0 0
BITMAP
FF1FE0
FF1FE0
FF1FE0
3C0780
0E0E00
0F1E00
071C00
07BC00
03F800
01F000
01F000
00E000
00E000
00E000
00E000
00E000
00E000
0FFE00
0FFE00
0FFE00
ENDCHAR
STARTCHAR Z
ENCODING 90
SWIDTH 600 0
DWIDTH 20 0
BBX 15 20 2 0
BITMAP
7FFC
7FFC
7FFC
703C
7038
7078
70F0
71E0
01C0
03C0
0780
0F00
0E0E
1E0E
3C0E
780E
700E
FFFE
FFFE
FFFE
ENDCHAR
STARTCHAR bracketleft
ENCODING 91
SWIDTH 600 0
DWIDTH 20 0
BBX 7 26 8 -5
BITMAP
FE
FE
FE
E0
E0
E0
E0
E0
E0
E0
E0
E0
E0
E0
E0
E0
E0
E0
E0
E0
E0
E0
E0
FE
FE
FE
ENDCHAR
STARTCHAR backslash
ENCODING 92
SWIDTH 600 0
DWIDTH 20 0
BBX 13 27 3 -4
BITMAP
E000
E000
F000
7000
7000
3800
3800
3C00
1C00
1C00
0E00
0E00
0F00
0700
0780
0380
0380
01C0
01C0
01E0
00E0
00E0
0070
0070
0078
0038
0038
ENDCHAR
STARTCHAR bracketright
ENCODING 93
SWIDTH 600 0
DWIDTH 20 0
BBX 7 26 4 -5
BITMAP
FE
FE
FE
0E
0E
0E
0E
0E
0E
0E
0E
0E
0E
0E
0E
0E
0E
0E
0E
0E
0E
0E
0E
FE
FE
FE
ENDCHAR
STARTCHAR asciicircum
ENCODING 94
SWIDTH 600 0
DWIDTH 20 0
BBX 13 11 3 11
BITMAP
0200
0700
0700
0F80
1FC0
3DE0
38E0
78F0
F078
E038
E038
ENDCHAR
STARTCHAR underscore
ENCODING 95
SWIDTH 600 0
DWIDTH 20 0
BBX 20 3 0 -7
BITMAP
FFFFF0
FFFFF0
FFFFF0
ENDCHAR
STARTCHAR grave
ENCODING 96
SWIDTH 600 0
DWIDTH 20 0
BBX 6 6 6 16
BITMAP
C0
E0
70
38
1C
0C
ENDCHAR
STARTCHAR a
ENCODING 97
SWIDTH 600 0
DWIDTH 20 0
BBX 16 15 2 0
BITMAP
1FE0
7FF8
7FFC
703C
001C
001C
0FFC
7FFC
7FFC
F01C
E01C
E07C
FFFF
7FDF
3F9F
ENDCHAR
STARTCHAR b
ENCODING 98
SWIDTH 600 0
DWIDTH 20 0
BBX 19 21 0 0
BITMAP
FC0000
FC0000
FC0000
1C0000
1C0000
1C0000
1C7C00
1DFF00
1FFF80
1F87C0
1E01C0
1E01E0
1C00E0
1C00E0
1C00E0
1C00E0
1E01C0
1F03C0
FFFF80
FFFF00
FCFE00
ENDCHAR
STARTCHAR c
ENCODING 99
SWIDTH 600 0
DWIDTH 20 0
BBX 16 15 2 0
BITMAP
07E6
1FFE
3FFE
7C3E
700E
E00E
E00E
E000
E000
E000
F006
780F
7FFE
3FFC
0FF0
ENDCHAR
STARTCHAR d
ENCODING 100
SWIDTH 600 0
DWIDTH 20 0
BBX 19 21 1 0
BITMAP
003F00
003F00
003F00
000700
000700
000700
07E700
1FFF00
3FFF00
7C3F00
700F00
F00F00
E00700
E00700
E00700
E00700
700F00
7C3F00
3FFFE0
1FF7E0
07E7E0
ENDCHAR
STARTCHAR e
ENCODING 101
SWIDTH 600 0
DWIDTH 20 0
BBX 18 15 1 0
BITMAP
03F000
0FFC00
1FFE00
3E1F00
780780
700380
FFFF80
FFFF80
FFFF80
F00000
780000
7E0380
3FFFC0
1FFF80
07FE00
ENDCHAR
STARTCHAR f
ENCODING 102
SWIDTH 600 0
DWIDTH 20 0
BBX 16 21 3 0
BITMAP
01FF
07FF
07FF
0F00
0E00
0E00
FFFC
FFFC
FFFC
0E00
0E00
0E00
0E00
0E00
0E00
0E00
0E00
0E00
FFFC
FFFC
FFFC
ENDCHAR
STARTCHAR g
ENCODING 103
SWIDTH 600 0
DWIDTH 20 0
BBX 18 22 1 -7
BITMAP
07CFC0
1FFFC0
3FFFC0
7C7E00
701E00
F01E00
E00E00
E00E00
E00E00
F01E00
701E00
787E00
3FFE00
1FEE00
0FCE00
000E00
000E00
001E00
003C00
1FFC00
1FF800
1FE000
ENDCHAR
STARTCHAR h
ENCODING 104
SWIDTH 600 0
DWIDTH 20 0
BBX 18 21 1 0
BITMAP
FC0000
FC0000
FC0000
1C0000
1C0000
1C0000
1CF800
1DFC00
1FFE00
1F0F00
1E0700
1C0700
1C0700
1C0700
1C0700
1C0700
1C0700
1C0700
7F1FC0
7F1FC0
7F1FC0
ENDCHAR
STARTCHAR i
ENCODING 105
SWIDTH 600 0
DWIDTH 20 0
BBX 15 21 3 0
BITMAP
0780
0780
0780
0780
0000
0000
7F80
7F80
7F80
0380
0380
0380
0380
0380
0380
0380
0380
0380
FFFE
FFFE
FFFE
ENDCHAR
STARTCHAR j
ENCODING 106
SWIDTH 600 0
DWIDTH 20 0
BBX 12 28 3 -7
BITMAP
03C0
03C0
03C0
03C0
0000
0000
FFF0
FFF0
FFF0
0070
0070
0070
0070
0070
0070
0070
0070
0070
0070
0070
0070
0070
0070
0070
00F0
FFE0
FFC0
FF80
ENDCHAR
STARTCHAR k
ENCODING 107
SWIDTH 600 0
DWIDTH 20 0
BBX 17 21 1 0
BITMAP
FC0000
FC0000
FC0000
1C0000
1C0000
1C0000
1CFF00
1CFF00
1CFF00
1C7800
1CF000
1DE000
1FC000
1FC000
1FE000
1DF000
1CF800
1C7C00
FC3F80
FC3F80
FC3F80
ENDCHAR
STARTCHAR l
ENCODING 108
SWIDTH 600 0
DWIDTH 20 0
BBX 15 21 3 0
BITMAP
7F80
7F80
7F80
0380
0380
0380
0380
0380
0380
0380
0380
0380
0380
0380
0380
0380
0380
0380
FFFE
FFFE
FFFE
ENDCHAR
STARTCHAR m
ENCODING 109
SWIDTH 600 0
DWIDTH 20 0
BBX 20 15 1 0
BITMAP
F38F00
FFFF80
FFFFC0
78F1C0
70E1C0
70E1C0
70E1C0
70E1C0
70E1C0
70E1C0
70E1C0
70E1C0
FCF9F0
FCF9F0
FCF9F0
ENDCHAR
STARTCHAR n
ENCODING 110
SWIDTH 600 0
DWIDTH 20 0
BBX 17 15 2 0
BITMAP
F9F000
FBF800
FFFC00
3E1E00
3C0E00
380E00
380E00
380E00
380E00
380E00
380E00
380E00
FE3F80
FE3F80
FE3F80
ENDCHAR
STARTCHAR o
ENCODING 111
SWIDTH 600 0
DWIDTH 20 0
BBX 17 15 2 0
BITMAP
07F000
1FFC00
3FFE00
780F00
700700
F00780
E00380
E00380
E00380
F00780
700700
780F00
3FFE00
1FFC00
07F000
ENDCHAR
STARTCHAR p
ENCODING 112
SWIDTH 600 0
DWIDTH 20 0
BBX 19 22 0 -7
BITMAP
FC7C00
FDFF00
FFFF80
1F03C0
1E01E0
1C00E0
1C00E0
1C00E0
1C00E0
1C01E0
1E01C0
1F07C0
1FFF80
1DFE00
1C7800
1C0000
1C0000
1C0000
1C0000
FFC000
FFC000
FFC000
ENDCHAR
STARTCHAR q
ENCODING 113
SWIDTH 600 0
DWIDTH 20 0
BBX 19 22 1 -7
BITMAP
07E7E0
1FFFE0
3FFFE0
7C3F00
700F00
F00F00
E00700
E00700
E00700
F00F00
700F00
7C3F00
3FFF00
1FF700
07C700
000700
000700
000700
000700
007FE0
007FE0
007FE0
ENDCHAR
STARTCHAR r
ENCODING 114
SWIDTH 600 0
DWIDTH 20 0
BBX 17 15 2 0
BITMAP
7E3E00
7EFF00
7FFF80
0FC700
0F0200
0F0000
0E0000
0E0000
0E0000
0E0000
0E0000
0E0000
FFFC00
FFFC00
FFFC00
ENDCHAR
STARTCHAR s
ENCODING 115
SWIDTH 600 0
DWIDTH 20 0
BBX 15 15 3 0
BITMAP
0FEC
3FFC
3FFC
783C
701C
7800
7FC0
3FF8
0FFC
E03E
E00E
F81E
FFFC
FFF8
E7E0
ENDCHAR
STARTCHAR t
ENCODING 116
SWIDTH 600 0
DWIDTH 20 0
BBX 16 20 2 0
BITMAP
1C00
1C00
1C00
1C00
1C00
FFFC
FFFC
FFFC
1C00
1C00
1C00
1C00
1C00
1C00
1C00
1C06
1E1F
1FFF
0FFE
03F0
ENDCHAR
STARTCHAR u
ENCODING 117
SWIDTH 600 0
DWIDTH 20 0
BBX 18 15 1 0
BITMAP
FC3F00
FC3F00
FC3F00
1C0700
1C0700
1C0700
1C0700
1C0700
1C0700
1C0700
1C0700
1E1F00
1FFFC0
0FFFC0
07F7C0
ENDCHAR
STARTCHAR v
ENCODING 118
SWIDTH 600 0
DWIDTH 20 0
BBX 19 15 0 0
BITMAP
FF1FE0
FF1FE0
FF1FE0
3C0700
1C0700
1E0E00
0E0E00
0F1C00
071C00
07B800
03B800
03F000
01F000
01E000
00E000
ENDCHAR
STARTCHAR w
ENCODING 119
SWIDTH 600 0
DWIDTH 20 0
BBX 19 15 0 0
BITMAP
FE0FE0
FE0FE0
FE0FE0
38E380
38E380
39F380
3DF780
1DF700
1FBF00
1F1F00
1F1F00
0F1E00
0E0E00
0E0E00
0E0E00
ENDCHAR
STARTCHAR x
ENCODING 120
SWIDTH 600 0
DWIDTH 20 0
BBX 17 15 1 0
BITMAP
FE3F80
FE3F80
FE3F80
3C1C00
1E3800
0F7000
07E000
03E000
03F000
077800
0E3C00
1C1E00
FE3F80
FE3F80
FE3F80
ENDCHAR
STARTCHAR y
ENCODING 121
SWIDTH 600 0
DWIDTH 20 0
BBX 19 22 1 -7
BITMAP
FF1FE0
FF1FE0
FF1FE0
3C0380
1C0700
1E0700
0E0E00
0F0E00
071C00
079C00
03B800
03F800
01F000
01F000
00E000
00E000
01C000
01C000
038000
7FF000
7FF000
7FF000
ENDCHAR
STARTCHAR z
ENCODING 122
SWIDTH 600 0
DWIDTH 20 0
BBX 13 15 4 0
BITMAP
FFF8
FFF8
FFF8
E0F0
E1E0
E3C0
0780
0F00
1E00
3C00
7838
F038
FFF8
FFF8
FFF8
ENDCHAR
STARTCHAR braceleft
ENCODING 123
SWIDTH 600 0
DWIDTH 20 0
BBX 9 26 5 -5
BITMAP
0780
0F80
0F80
1E00
1C00
1C00
1C00
1C00
1C00
1C00
1C00
3C00
F800
F800
FC00
1C00
1C00
1C00
1C00
1C00
1C00
1C00
1C00
1F80
0F80
0780
ENDCHAR
STARTCHAR bar
ENCODING 124
SWIDTH 600 0
DWIDTH 20 0
BBX 3 26 8 -5
BITMAP
E0
E0
E0
E0
E0
E0
E0
E0
E0
E0
E0
E0
E0
E0
E0
E0
E0
E0
E0
E0
E0
E0
E0
E0
E0
E0
ENDCHAR
STARTCHAR braceright
ENCODING 125
SWIDTH 600 0
DWIDTH 20 0
BBX 9 26 5 -5
BITMAP
F000
F800
F800
3C00
1C00
1C00
1C00
1C00
1C00
1C00
1C00
1E00
0F80
0F80
1F80
1C00
1C00
1C00
1C00
1C00
1C00
1C00
1C00
FC00
F800
F000
ENDCHAR
STARTCHAR asciitilde
ENCODING 126
SWIDTH 600 0
DWIDTH 20 0
BBX 15 7 2 6
BITMAP
0C00
3F0E
7F8E
F7DE
E3FC
E1F8
0060
ENDCHAR
STARTCHAR space
ENCODING 160
SWIDTH 600 0
DWIDTH 20 0
BBX 1 1 0 0
BITMAP
00
ENDCHAR
STARTCHAR exclamdown
ENCODING 161
SWIDTH 600 0
DWIDTH 20 0
BBX 5 21 7 -7
BITMAP
70
F8
F8
70
00
00
70
70
70
70
70
70
70
70
F8
F8
F8
F8
F8
70
20
ENDCHAR
STARTCHAR cent
ENCODING 162
SWIDTH 600 0
DWIDTH 20 0
BBX 13 23 3 -1
BITMAP
0700
0700
0700
0700
0700
0FD8
3FF8
7FF8
7878
F038
E038
E000
E000
E000
F038
7878
7FF8
3FF0
0FC0
0700
0700
0700
0700
ENDCHAR
STARTCHAR sterling
ENCODING 163
SWIDTH 600 0
DWIDTH 20 0
BBX 16 20 1 0
BITMAP
03E0
07F0
0FF8
1E38
1C38
1C00
1C00
1C00
0E00
FFE0
FFE0
FFE0
0E00
0E00
0E00
0E02
1E07
7FFF
7FFF
7FFE
ENDCHAR
STARTCHAR currency
ENCODING 164
SWIDTH 600 0
DWIDTH 20 0
BBX 15 15 2 2
BITMAP
E00E
F7DE
FFFE
7FFC
3C78
783C
701C
701C
701C
783C
3C78
7FFC
FFFE
F7DE
E00E
ENDCHAR
STARTCHAR yen
ENCODING 165
SWIDTH 600 0
DWIDTH 20 0
BBX 17 20 1 0
BITMAP
FE3F80
FE3F80
FE3F80
380E00
1C1C00
1E3C00
0E3800
0F7800
077000
03E000
1FFC00
1FFC00
01C000
1FFC00
1FFC00
01C000
01C000
1FFC00
1FFC00
1FFC00
ENDCHAR
STARTCHAR brokenbar
ENCODING 166
SWIDTH 600 0
DWIDTH 20 0
BBX 3 26 8 -5
BITMAP
E0
E0
E0
E0
E0
E0
E0
E0
E0
E0
E0
E0
00
00
E0
E0
E0
E0
E0
E0
E0
E0
E0
E0
E0
E0
ENDCHAR
STARTCHAR section
ENCODING 167
SWIDTH 600 0
DWIDTH 20 0
BBX 16 24 2 -3
BITMAP
01FE
07FE
0FFE
1C06
1806
1806
3C00
7F00
E780
C1E0
60F0
703C
3C0E
0F06
0783
01E7
00FE
003C
3018
3018
3038
3FF0
3FE0
3F80
ENDCHAR
STARTCHAR dieresis
ENCODING 168
SWIDTH 600 0
DWIDTH 20 0
BBX 11 4 4 17
BITMAP
60C0
F1E0
F1E0
60C0
ENDCHAR
STARTCHAR copyright
ENCODING 169
SWIDTH 600 0
DWIDTH 20 0
BBX 21 20 -1 0
BITMAP
00FC00
03FF00
0FFFC0
1E03E0
3860E0
71F670
73FE70
E79E38
E70E38
CE0E38
CE0038
CE0038
CE0638
E70F78
E7FE70
73FCF0
78F1E0
3E07C0
1FFF00
07FC00
ENDCHAR
STARTCHAR ordfeminine
ENCODING 170
SWIDTH 600 0
DWIDTH 20 0
BBX 11 14 4 6
BITMAP
1F00
7F80
6180
0180
3F80
7F80
E180
C180
C380
FFE0
7DE0
0000
FFE0
FFE0
ENDCHAR
STARTCHAR guillemotleft
ENCODING 171
SWIDTH 600 0
DWIDTH 20 0
BBX 15 14 1 0
BITMAP
0306
070E
0E1C
1C38
3870
70E0
E1C0
E1C0
70E0
3870
1C38
0E1C
070E
0306
ENDCHAR
STARTCHAR logicalnot
ENCODING 172
SWIDTH 600 0
DWIDTH 20 0
BBX 16 8 2 5
BITMAP
FFFF
FFFF
FFFF
0007
0007
0007
0007
0007
ENDCHAR
STARTCHAR hyphen
ENCODING 173
SWIDTH 600 0
DWIDTH 20 0
BBX 15 3 2 8
BITMAP
FFFE
FFFE
FFFE
ENDCHAR
STARTCHAR registered
ENCODING 174
SWIDTH 600 0
DWIDTH 20 0
BBX 21 20 -1 0
BITMAP
01F800
07FE00
1FFF80
3C03C0
3BF1E0
73FCE0
73FEF0
E39E70
E38E78
E38E38
E3FE38
E3FC38
E3B838
F3BC78
739E70
7B8FF0
3C03E0
1FFFC0
0FFF00
03FC00
ENDCHAR
STARTCHAR macron
ENCODING 175
SWIDTH 600 0
DWIDTH 20 0
BBX 10 2 5 17
BITMAP
FFC0
FFC0
ENDCHAR
STARTCHAR degree
ENCODING 176
SWIDTH 600 0
DWIDTH 20 0
BBX 9 9 5 11
BITMAP
1C00
7700
C180
8080
8080
8080
C180
7700
1C00
ENDCHAR
STARTCHAR plusminus
ENCODING 177
SWIDTH 600 0
DWIDTH 20 0
BBX 17 18 1 0
BITMAP
01C000
01C000
01C000
01C000
01C000
01C000
FFFF80
FFFF80
FFFF80
01C000
01C000
01C000
01C000
01C000
01C000
FFFF80
FFFF80
FFFF80
ENDCHAR
STARTCHAR twosuperior
ENCODING 178
SWIDTH 600 0
DWIDTH 20 0
BBX 8 14 5 7
BITMAP
3C
7E
E7
C3
03
07
0E
0C
18
38
70
E1
FF
FF
ENDCHAR
STARTCHAR threesuperior
ENCODING 179
SWIDTH 600 0
DWIDTH 20 0
BBX 9 14 5 7
BITMAP
3E00
7F00
6300
0300
0700
1E00
1F00
0380
0180
0180
C180
E300
7F00
3C00
ENDCHAR
STARTCHAR acute
ENCODING 180
SWIDTH 600 0
DWIDTH 20 0
BBX 8 6 6 15
BITMAP
06
0F
3E
78
E0
40
ENDCHAR
STARTCHAR mu
ENCODING 181
SWIDTH 600 0
DWIDTH 20 0
BBX 18 22 1 -7
BITMAP
FC3F00
FC3F00
FC3F00
1C0700
1C0700
1C0700
1C0700
1C0700
1C0700
1C0700
1C0F00
1E1F00
1FFFC0
1FF7C0
1DE7C0
1C0000
1C0000
1C0000
1C0000
1C0000
1C0000
1C0000
ENDCHAR
STARTCHAR paragraph
ENCODING 182
SWIDTH 600 0
DWIDTH 20 0
BBX 15 24 2 -3
BITMAP
0FFE
3FFE
7B18
F318
E318
E318
E318
E318
E318
7318
3F18
1F18
0318
0318
0318
0318
0318
0318
0318
0318
0318
1F3E
1F3E
1F3E
ENDCHAR
STARTCHAR periodcentered
ENCODING 183
SWIDTH 600 0
DWIDTH 20 0
BBX 5 4 7 8
BITMAP
70
F8
F8
70
ENDCHAR
STARTCHAR cedilla
ENCODING 184
SWIDTH 600 0
DWIDTH 20 0
BBX 5 7 6 -6
BITMAP
30
30
30
18
F8
F8
70
ENDCHAR
STARTCHAR onesuperior
ENCODING 185
SWIDTH 600 0
DWIDTH 20 0
BBX 8 13 6 7
BITMAP
38
F8
D8
18
18
18
18
18
18
18
18
FF
FF
ENDCHAR
STARTCHAR ordmasculine
ENCODING 186
SWIDTH 600 0
DWIDTH 20 0
BBX 11 14 4 6
BITMAP
0E00
3F80
71C0
E0E0
C060
C060
C060
E0E0
71C0
3F80
0E00
0000
FFE0
FFE0
ENDCHAR
STARTCHAR guillemotright
ENCODING 187
SWIDTH 600 0
DWIDTH 20 0
BBX 15 14 2 0
BITMAP
C180
E1C0
70E0
3870
1C38
0E1C
070E
070E
0E1C
1C38
3870
70E0
E1C0
C180
ENDCHAR
STARTCHAR onequarter
ENCODING 188
SWIDTH 600 0
DWIDTH 20 0
BBX 19 20 0 0
BITMAP
380000
F80000
D80080
1801C0
180180
180300
180600
180C00
181CC0
1819C0
FF33C0
FF72C0
0066C0
00CEC0
018CC0
039FE0
071FE0
0200C0
0001E0
0001E0
ENDCHAR
STARTCHAR onehalf
ENCODING 189
SWIDTH 600 0
DWIDTH 20 0
BBX 19 20 0 0
BITMAP
380000
F80000
D80200
180700
180E00
180C00
181800
183800
187000
186780
FEEFC0
FFDCE0
019860
0300E0
0701C0
0E0780
040E00
001C60
001FE0
001FE0
ENDCHAR
STARTCHAR threequarters
ENCODING 190
SWIDTH 600 0
DWIDTH 20 0
BBX 19 21 0 0
BITMAP
3E0000
7F0000
630000
030100
030380
1E0700
1F0600
038E00
019C00
C398C0
E331C0
7F73C0
1C62C0
00C6C0
01CEC0
038CC0
071FE0
021FE0
0000C0
0003E0
0003E0
ENDCHAR
STARTCHAR questiondown
ENCODING 191
SWIDTH 600 0
DWIDTH 20 0
BBX 13 21 3 -6
BITMAP
0700
0F80
0F80
0700
0000
0000
0000
0700
0700
0700
1F00
3F00
7C00
F000
E000
E038
E038
F038
7FF8
3FF8
1FE0
ENDCHAR
STARTCHAR Agrave
ENCODING 192
SWIDTH 600 0
DWIDTH 20 0
BBX 21 26 -1 0
BITMAP
030000
078000
01E000
00F000
003000
000000
1FF000
1FF800
1FF800
01FC00
01DC00
01DC00
03DE00
038E00
038E00
070700
070700
070700
0FFF80
0FFF80
1FFFC0
1C01C0
1C01C0
FF8FF8
FF8FF8
FF8FF8
ENDCHAR
STARTCHAR Aacute
ENCODING 193
SWIDTH 600 0
DWIDTH 20 0
BBX 21 26 -1 0
BITMAP
000300
000F00
001E00
007800
006000
000000
1FF000
1FF800
1FF800
01FC00
01DC00
01DC00
03DE00
038E00
038E00
070700
070700
070700
0FFF80
0FFF80
1FFFC0
1C01C0
1C01C0
FF8FF8
FF8FF8
FF8FF8
ENDCHAR
STARTCHAR Acircumflex
ENCODING 194
SWIDTH 600 0
DWIDTH 20 0
BBX 21 26 -1 0
BITMAP
004000
00E000
03B800
071C00
0E0E00
000000
1FF000
1FF800
1FF800
01FC00
01DC00
01DC00
03DE00
038E00
038E00
070700
070700
070700
0FFF80
0FFF80
1FFFC0
1C01C0
1C01C0
FF8FF8
FF8FF8
FF8FF8
ENDCHAR
STARTCHAR Atilde
ENCODING 195
SWIDTH 600 0
DWIDTH 20 0
BBX 21 25 -1 0
BITMAP
038600
07E600
067600
061C00
000000
1FF000
1FF800
1FF800
01FC00
01DC00
01DC00
03DE00
038E00
038E00
070700
070700
070700
0FFF80
0FFF80
1FFFC0
1C01C0
1C01C0
FF8FF8
FF8FF8
FF8FF8
ENDCHAR
STARTCHAR Adieresis
ENCODING 196
SWIDTH 600 0
DWIDTH 20 0
BBX 21 25 -1 0
BITMAP
0C1800
1E3C00
1E3C00
0C1800
000000
1FF000
1FF800
1FF800
01FC00
01DC00
01DC00
03DE00
038E00
038E00
070700
070700
070700
0FFF80
0FFF80
1FFFC0
1C01C0
1C01C0
FF8FF8
FF8FF8
FF8FF8
ENDCHAR
STARTCHAR Aring
ENCODING 197
SWIDTH 600 0
DWIDTH 20 0
BBX 21 26 -1 0
BITMAP
00F000
019800
010800
019800
00F000
000000
1FF000
1FF800
1FF800
01FC00
01DC00
01DC00
03DE00
038E00
038E00
070700
070700
070700
0FFF80
0FFF80
1FFFC0
1C01C0
1C01C0
FF8FF8
FF8FF8
FF8FF8
ENDCHAR
STARTCHAR AE
ENCODING 198
SWIDTH 600 0
DWIDTH 20 0
BBX 20 20 0 0
BITMAP
1FFFE0
1FFFE0
1FFFE0
0770E0
0770E0
0670E0
0E70E0
0E7300
0E7300
0E7F00
1C7F00
1C7300
1FF300
1FF300
387070
387070
387070
FFFFF0
FFFFF0
FFFFF0
ENDCHAR
STARTCHAR Ccedilla
ENCODING 199
SWIDTH 600 0
DWIDTH 20 0
BBX 17 26 1 -6
BITMAP
03E300
0FFF00
1FFF00
3E1F00
780F00
700700
F00700
E00000
E00000
E00000
E00000
E00000
E00000
F00000
700100
780380
3E0F80
3FFF00
0FFE00
03F800
00C000
00C000
00E000
047000
07F000
03E000
ENDCHAR
STARTCHAR Egrave
ENCODING 200
SWIDTH 600 0
DWIDTH 20 0
BBX 17 26 1 0
BITMAP
030000
078000
01E000
00F000
003000
000000
FFFF00
FFFF00
FFFF00
1C0700
1C0700
1C0700
1C7700
1C7000
1FF000
1FF000
1FF000
1C7000
1C7000
1C0380
1C0380
1C0380
1C0380
FFFF80
FFFF80
FFFF80
ENDCHAR
STARTCHAR Eacute
ENCODING 201
SWIDTH 600 0
DWIDTH 20 0
BBX 17 26 1 0
BITMAP
000C00
003C00
007800
01E000
018000
000000
FFFF00
FFFF00
FFFF00
1C0700
1C0700
1C0700
1C7700
1C7000
1FF000
1FF000
1FF000
1C7000
1C7000
1C0380
1C0380
1C0380
1C0380
FFFF80
FFFF80
FFFF80
ENDCHAR
STARTCHAR Ecircumflex
ENCODING 202
SWIDTH 600 0
DWIDTH 20 0
BBX 17 26 1 0
BITMAP
008000
01C000
077000
0E3800
1C1C00
000000
FFFF00
FFFF00
FFFF00
1C0700
1C0700
1C0700
1C7700
1C7000
1FF000
1FF000
1FF000
1C7000
1C7000
1C0380
1C0380
1C0380
1C0380
FFFF80
FFFF80
FFFF80
ENDCHAR
STARTCHAR Edieresis
ENCODING 203
SWIDTH 600 0
DWIDTH 20 0
BBX 17 25 1 0
BITMAP
060C00
0F1E00
0F1E00
060C00
000000
FFFF00
FFFF00
FFFF00
1C0700
1C0700
1C0700
1C7700
1C7000
1FF000
1FF000
1FF000
1C7000
1C7000
1C0380
1C0380
1C0380
1C0380
FFFF80
FFFF80
FFFF80
ENDCHAR
STARTCHAR Igrave
ENCODING 204
SWIDTH 600 0
DWIDTH 20 0
BBX 13 26 3 0
BITMAP
1800
3C00
0F00
0780
0180
0000
FFF8
FFF8
FFF8
0700
0700
0700
0700
0700
0700
0700
0700
0700
0700
0700
0700
0700
0700
FFF8
FFF8
FFF8
ENDCHAR
STARTCHAR Iacute
ENCODING 205
SWIDTH 600 0
DWIDTH 20 0
BBX 13 26 3 0
BITMAP
0030
00F0
01E0
0780
0600
0000
FFF8
FFF8
FFF8
0700
0700
0700
0700
0700
0700
0700
0700
0700
0700
0700
0700
0700
0700
FFF8
FFF8
FFF8
ENDCHAR
STARTCHAR Icircumflex
ENCODING 206
SWIDTH 600 0
DWIDTH 20 0
BBX 13 26 3 0
BITMAP
0200
0700
1DC0
38E0
7070
0000
FFF8
FFF8
FFF8
0700
0700
0700
0700
0700
0700
0700
0700
0700
0700
0700
0700
0700
0700
FFF8
FFF8
FFF8
ENDCHAR
STARTCHAR Idieresis
ENCODING 207
SWIDTH 600 0
DWIDTH 20 0
BBX 13 25 3 0
BITMAP
3060
78F0
78F0
3060
0000
FFF8
FFF8
FFF8
0700
0700
0700
0700
0700
0700
0700
0700
0700
0700
0700
0700
0700
0700
FFF8
FFF8
FFF8
ENDCHAR
STARTCHAR Eth
ENCODING 208
SWIDTH 600 0
DWIDTH 20 0
BBX 17 20 2 0
BITMAP
FFE000
FFF800
FFFC00
383E00
380F00
380700
380700
380380
FF8380
FF8380
FF8380
380380
380380
380380
380700
380700
381E00
FFFE00
FFFC00
FFF000
ENDCHAR
STARTCHAR Ntilde
ENCODING 209
SWIDTH 600 0
DWIDTH 20 0
BBX 20 25 -1 0
BITMAP
038600
07E600
067600
061C00
000000
FC1FF0
FE1FF0
FF1FF0
1F01C0
1F81C0
1F81C0
1DC1C0
1DE1C0
1CE1C0
1CF1C0
1C79C0
1C39C0
1C3DC0
1C1DC0
1C0FC0
1C0FC0
1C07C0
7FC7C0
7FC3C0
7FC1C0
ENDCHAR
STARTCHAR Ograve
ENCODING 210
SWIDTH 600 0
DWIDTH 20 0
BBX 17 26 1 0
BITMAP
060000
0F0000
03C000
01E000
006000
000000
07F000
0FFC00
1FFC00
3C1E00
780F00
700700
700700
E00380
E00380
E00380
E00380
E00380
E00380
700700
780700
380E00
3E3E00
1FFC00
0FF800
03E000
ENDCHAR
STARTCHAR Oacute
ENCODING 211
SWIDTH 600 0
DWIDTH 20 0
BBX 17 26 1 0
BITMAP
001800
007800
00F000
03C000
030000
000000
07F000
0FFC00
1FFC00
3C1E00
780F00
700700
700700
E00380
E00380
E00380
E00380
E00380
E00380
700700
780700
380E00
3E3E00
1FFC00
0FF800
03E000
ENDCHAR
STARTCHAR Ocircumflex
ENCODING 212
SWIDTH 600 0
DWIDTH 20 0
BBX 17 26 1 0
BITMAP
008000
01C000
077000
0E3800
1C1C00
000000
07F000
0FFC00
1FFC00
3C1E00
780F00
700700
700700
E00380
E00380
E00380
E00380
E00380
E00380
700700
780700
380E00
3E3E00
1FFC00
0FF800
03E000
ENDCHAR
STARTCHAR Otilde
ENCODING 213
SWIDTH 600 0
DWIDTH 20 0
BBX 17 25 1 0
BITMAP
070C00
0FCC00
0CEC00
0C3800
000000
07F000
0FFC00
1FFC00
3C1E00
780F00
700700
700700
E00380
E00380
E00380
E00380
E00380
E00380
700700
780700
380E00
3E3E00
1FFC00
0FF800
03E000
ENDCHAR
STARTCHAR Odieresis
ENCODING 214
SWIDTH 600 0
DWIDTH 20 0
BBX 17 25 1 0
BITMAP
0C1800
1E3C00
1E3C00
0C1800
000000
07F000
0FFC00
1FFC00
3C1E00
780F00
700700
700700
E00380
E00380
E00380
E00380
E00380
E00380
700700
780700
380E00
3E3E00
1FFC00
0FF800
03E000
ENDCHAR
STARTCHAR multiply
ENCODING 215
SWIDTH 600 0
DWIDTH 20 0
BBX 15 16 2 0
BITMAP
E00E
F01E
F83E
783C
3C78
1EF0
0FE0
07C0
07C0
0FE0
1EF0
3C78
783C
F83E
F01E
E00E
ENDCHAR
STARTCHAR Oslash
ENCODING 216
SWIDTH 600 0
DWIDTH 20 0
BBX 17 23 1 -2
BITMAP
000380
03E380
0FFF80
1FFF00
3E3E00
381E00
783F00
707F00
E07B80
E0F380
E1E380
E1C380
E3C380
E78380
FF0780
7E0700
7E0F00
3C1E00
7FFC00
7FF800
F7F000
E00000
E00000
ENDCHAR
STARTCHAR Ugrave
ENCODING 217
SWIDTH 600 0
DWIDTH 20 0
BBX 19 26 0 0
BITMAP
030000
078000
01E000
00F000
003000
000000
FF1FE0
FF1FE0
FF1FE0
380380
380380
380380
380380
380380
380380
380380
380380
380380
380380
380380
380380
1C0780
1F1F00
0FFE00
07FC00
01F800
ENDCHAR
STARTCHAR Uacute
ENCODING 218
SWIDTH 600 0
DWIDTH 20 0
BBX 19 26 0 0
BITMAP
001C00
003C00
00F000
01E000
018000
000000
FF1FE0
FF1FE0
FF1FE0
380380
380380
380380
380380
380380
380380
380380
380380
380380
380380
380380
380380
1C0780
1F1F00
0FFE00
07FC00
01F800
ENDCHAR
STARTCHAR Ucircumflex
ENCODING 219
SWIDTH 600 0
DWIDTH 20 0
BBX 19 26 0 0
BITMAP
004000
00E000
03B800
071C00
0E0E00
000000
FF1FE0
FF1FE0
FF1FE0
380380
380380
380380
380380
380380
380380
380380
380380
380380
380380
380380
380380
1C0780
1F1F00
0FFE00
07FC00
01F800
ENDCHAR
STARTCHAR Udieresis
ENCODING 220
SWIDTH 600 0
DWIDTH 20 0
BBX 19 26 0 0
BITMAP
060C00
0F1E00
0F1E00
060C00
000000
000000
FFBFE0
FFBFE0
FFBFE0
380380
380380
380380
380380
380380
380380
380380
380380
380380
380380
380380
380380
1C0780
1F1F00
0FFE00
07FC00
01F800
ENDCHAR
STARTCHAR Yacute
ENCODING 221
SWIDTH 600 0
DWIDTH 20 0
BBX 17 26 1 0
BITMAP
001800
007800
00F000
03C000
030000
000000
FE3F80
FE3F80
FE3F80
3C1E00
1C1C00
1E3C00
0E3800
0F7800
07F000
03E000
03E000
01C000
01C000
01C000
01C000
01C000
01C000
1FFC00
1FFC00
1FFC00
ENDCHAR
STARTCHAR Thorn
ENCODING 222
SWIDTH 600 0
DWIDTH 20 0
BBX 18 20 1 0
BITMAP
FF8000
FF8000
FF8000
1C0000
1FF800
1FFE00
1FFF00
1C0F80
1C0380
1C03C0
1C03C0
1C0380
1C0F80
1FFF00
1FFE00
1FF800
1C0000
FF8000
FF8000
FF8000
ENDCHAR
STARTCHAR germandbls
ENCODING 223
SWIDTH 600 0
DWIDTH 20 0
BBX 17 22 0 -1
BITMAP
03E000
07F000
0FF800
1E3C00
1C1C00
1C1C00
1C1C00
1C3C00
1DF800
1DF800
1DFE00
1C1F00
1C0F00
1C0780
1C0380
1C0380
1DC380
1DC380
FFFF00
FEFF00
FE7E00
001800
ENDCHAR
STARTCHAR agrave
ENCODING 224
SWIDTH 600 0
DWIDTH 20 0
BBX 17 22 2 0
BITMAP
180000
3C0000
0F0000
078000
018000
000000
000000
0FE000
3FF000
3FF800
383C00
001C00
001C00
0FFC00
3FFC00
7FFC00
781C00
F01C00
E07C00
FFFF80
7FFF80
3F9F80
ENDCHAR
STARTCHAR aacute
ENCODING 225
SWIDTH 600 0
DWIDTH 20 0
BBX 17 22 2 0
BITMAP
002000
007000
00F000
03C000
078000
060000
000000
0FE000
3FF000
3FF800
383C00
001C00
001C00
0FFC00
3FFC00
7FFC00
781C00
E03C00
E07C00
FFFF80
7FDF80
3F9F80
ENDCHAR
STARTCHAR acircumflex
ENCODING 226
SWIDTH 600 0
DWIDTH 20 0
BBX 17 22 1 0
BITMAP
008000
01C000
077000
0E3800
1C1C00
000000
000000
07E000
3FF000
3FF800
3C3C00
001C00
001C00
0FFC00
3FFC00
7FFC00
781C00
F01C00
E03C00
FFFF80
7FFF80
3F9F80
ENDCHAR
STARTCHAR atilde
ENCODING 227
SWIDTH 600 0
DWIDTH 20 0
BBX 17 21 1 0
BITMAP
0E1800
1F9800
19F800
187000
000000
000000
0FE000
3FF000
3FF800
383C00
001C00
001C00
0FFC00
3FFC00
7FFC00
781C00
F01C00
E07C00
FFFF80
7FDF80
3F9F80
ENDCHAR
STARTCHAR adieresis
ENCODING 228
SWIDTH 600 0
DWIDTH 20 0
BBX 17 21 2 0
BITMAP
0C1800
1E3C00
1E3C00
0C1800
000000
000000
0FE000
3FF000
3FF800
383C00
001C00
001C00
0FFC00
3FFC00
7FFC00
781C00
F01C00
E07C00
FFFF80
7FDF80
3F9F80
ENDCHAR
STARTCHAR aring
ENCODING 229
SWIDTH 600 0
DWIDTH 20 0
BBX 17 21 1 0
BITMAP
03C000
066000
042000
066000
03C000
000000
0FE000
3FF000
3FF800
383C00
001C00
001C00
0FFC00
3FFC00
7FFC00
781C00
F01C00
E07C00
FFFF80
7FDF80
3F9F80
ENDCHAR
STARTCHAR ae
ENCODING 230
SWIDTH 600 0
DWIDTH 20 0
BBX 20 15 -1 0
BITMAP
0F8700
3FFFC0
3FFFC0
38FDE0
007070
03F070
1FFFF0
7FFFF0
FFFFF0
F07000
E07800
F1F870
7FFFF0
3FFFF0
1F2780
ENDCHAR
STARTCHAR ccedilla
ENCODING 231
SWIDTH 600 0
DWIDTH 20 0
BBX 16 21 2 -6
BITMAP
07E6
1FFE
3FFE
7C3E
700E
F00E
E00E
E000
E000
E000
F006
7C0F
3FFE
1FFC
07F0
0180
0180
01C0
08E0
0FC0
0380
ENDCHAR
STARTCHAR egrave
ENCODING 232
SWIDTH 600 0
DWIDTH 20 0
BBX 16 21 1 0
BITMAP
0600
0F00
03C0
01E0
0060
0000
07E0
1FF8
3FFC
7C3E
700E
F00F
FFFF
FFFF
FFFF
E000
7000
7C0F
3FFF
1FFE
07F0
ENDCHAR
STARTCHAR eacute
ENCODING 233
SWIDTH 600 0
DWIDTH 20 0
BBX 16 22 1 0
BITMAP
0010
0038
0078
01E0
03C0
0300
0000
07E0
1FF8
3FFC
7C3E
700E
F00F
FFFF
FFFF
FFFF
E000
7000
7C0E
3FFF
1FFE
07F0
ENDCHAR
STARTCHAR ecircumflex
ENCODING 234
SWIDTH 600 0
DWIDTH 20 0
BBX 16 22 1 0
BITMAP
0080
01C0
0770
0E38
1C1C
0000
0000
07E0
1FF8
3FFC
7C3E
700E
F00F
FFFF
FFFF
FFFF
E000
7000
7C1F
3FFF
1FFF
07F0
ENDCHAR
STARTCHAR edieresis
ENCODING 235
SWIDTH 600 0
DWIDTH 20 0
BBX 16 21 1 0
BITMAP
0C18
1E3C
1E3C
0C18
0000
0000
07E0
1FF8
3FFC
7C3E
700E
F00F
FFFF
FFFF
FFFF
E000
7000
7C1F
3FFF
1FFF
07F0
ENDCHAR
STARTCHAR igrave
ENCODING 236
SWIDTH 600 0
DWIDTH 20 0
BBX 15 22 2 0
BITMAP
1800
3C00
0F00
0780
0180
0000
0000
7F80
7F80
7F80
0380
0380
0380
0380
0380
0380
0380
0380
0380
FFFE
FFFE
FFFE
ENDCHAR
STARTCHAR iacute
ENCODING 237
SWIDTH 600 0
DWIDTH 20 0
BBX 15 23 2 0
BITMAP
0080
01C0
03C0
0F00
1E00
1800
0000
0000
7F80
7F80
7F80
0380
0380
0380
0380
0380
0380
0380
0380
0380
FFFE
FFFE
FFFE
ENDCHAR
STARTCHAR icircumflex
ENCODING 238
SWIDTH 600 0
DWIDTH 20 0
BBX 15 22 2 0
BITMAP
0200
0700
1DC0
38E0
7070
0000
0000
7F80
7F80
7F80
0380
0380
0380
0380
0380
0380
0380
0380
0380
FFFE
FFFE
FFFE
ENDCHAR
STARTCHAR idieresis
ENCODING 239
SWIDTH 600 0
DWIDTH 20 0
BBX 15 21 2 0
BITMAP
3060
78F0
78F0
3060
0000
0000
7F80
7F80
7F80
0380
0380
0380
0380
0380
0380
0380
0380
0380
FFFE
FFFE
FFFE
ENDCHAR
STARTCHAR eth
ENCODING 240
SWIDTH 600 0
DWIDTH 20 0
BBX 16 21 2 0
BITMAP
7E0E
FFBF
FFFC
03F0
0FF0
7FF8
7C38
703C
07DC
1FFE
7FFE
781E
F00F
E007
E007
E00F
F00F
F83E
7FFC
3FF8
1FE0
ENDCHAR
STARTCHAR ntilde
ENCODING 241
SWIDTH 600 0
DWIDTH 20 0
BBX 17 21 1 0
BITMAP
0E1800
1F9800
19F800
187000
000000
000000
F9F000
FBFC00
FFFE00
3C1E00
380E00
380E00
380E00
380E00
380E00
380E00
380E00
380E00
FE3F80
FE3F80
FE3F80
ENDCHAR
STARTCHAR ograve
ENCODING 242
SWIDTH 600 0
DWIDTH 20 0
BBX 17 21 1 0
BITMAP
060000
0F0000
03C000
01E000
006000
000000
07F000
0FF800
3FFE00
3C1E00
780F00
F00780
E00380
E00380
E00380
F00780
780F00
7C1F00
3FFE00
1FFC00
07F000
ENDCHAR
STARTCHAR oacute
ENCODING 243
SWIDTH 600 0
DWIDTH 20 0
BBX 17 22 1 0
BITMAP
001000
003800
007800
01E000
03C000
030000
000000
07F000
0FF800
3FFE00
3C1E00
780F00
F00780
E00380
E00380
E00380
F00780
780F00
7C1F00
3FFE00
1FFC00
07F000
ENDCHAR
STARTCHAR ocircumflex
ENCODING 244
SWIDTH 600 0
DWIDTH 20 0
BBX 17 22 1 0
BITMAP
008000
01C000
077000
0E3800
1C1C00
000000
000000
07F000
0FF800
3FFE00
3C1E00
780F00
F00780
E00380
E00380
E00380
F00780
780F00
7C1F00
3FFE00
1FFC00
07F000
ENDCHAR
STARTCHAR otilde
ENCODING 245
SWIDTH 600 0
DWIDTH 20 0
BBX 17 21 1 0
BITMAP
070C00
0FCC00
0CFC00
0C3800
000000
000000
07F000
0FF800
3FFE00
3C1E00
780F00
F00780
E00380
E00380
E00380
F00780
780F00
7C1F00
3FFE00
1FFC00
07F000
ENDCHAR
STARTCHAR odieresis
ENCODING 246
SWIDTH 600 0
DWIDTH 20 0
BBX 17 21 1 0
BITMAP
0C1800
1E3C00
1E3C00
0C1800
000000
000000
07F000
0FF800
3FFE00
3C1E00
780F00
F00780
E00380
E00380
E00380
F00780
780F00
7C1F00
3FFE00
1FFC00
07F000
ENDCHAR
STARTCHAR divide
ENCODING 247
SWIDTH 600 0
DWIDTH 20 0
BBX 15 15 2 2
BITMAP
0380
07C0
07C0
0380
0000
0000
FFFE
FFFE
FFFE
0000
0000
0380
07C0
07C0
0380
ENDCHAR
STARTCHAR oslash
ENCODING 248
SWIDTH 600 0
DWIDTH 20 0
BBX 17 18 1 -2
BITMAP
000380
03E380
0FFF80
3FFF00
3E3E00
783F00
707F00
E0F380
E1E380
E3C380
E78380
7F0700
7E1F00
3FFE00
7FFC00
F7F000
E00000
E00000
ENDCHAR
STARTCHAR ugrave
ENCODING 249
SWIDTH 600 0
DWIDTH 20 0
BBX 18 22 0 0
BITMAP
030000
078000
01E000
00F000
003000
000000
000000
FC3F00
FC3F00
FC3F00
1C0700
1C0700
1C0700
1C0700
1C0700
1C0700
1C0700
1C0F00
1C1F00
1FFFC0
0FF7C0
07E7C0
ENDCHAR
STARTCHAR uacute
ENCODING 250
SWIDTH 600 0
DWIDTH 20 0
BBX 18 22 0 0
BITMAP
000800
001C00
003C00
00F000
01E000
018000
000000
FC3F00
FC3F00
FC3F00
1C0700
1C0700
1C0700
1C0700
1C0700
1C0700
1C0700
1C0F00
1C1F00
1FFFC0
0FF7C0
07E7C0
ENDCHAR
STARTCHAR ucircumflex
ENCODING 251
SWIDTH 600 0
DWIDTH 20 0
BBX 18 22 0 0
BITMAP
008000
01C000
077000
0E3800
1C1C00
000000
000000
FC3F00
FC3F00
FC3F00
1C0700
1C0700
1C0700
1C0700
1C0700
1C0700
1C0700
1C0F00
1C1F00
1FFFC0
0FF7C0
07E7C0
ENDCHAR
STARTCHAR udieresis
ENCODING 252
SWIDTH 600 0
DWIDTH 20 0
BBX 18 21 0 0
BITMAP
0C1800
1E3C00
1E3C00
0C1800
000000
000000
FC3F00
FC3F00
FC3F00
1C0700
1C0700
1C0700
1C0700
1C0700
1C0700
1C0700
1C0F00
1C1F00
1FFFC0
0FF7C0
07E7C0
ENDCHAR
STARTCHAR yacute
ENCODING 253
SWIDTH 600 0
DWIDTH 20 0
BBX 17 29 1 -7
BITMAP
001000
003800
007800
01E000
03C000
030000
000000
FE3F80
FE3F80
FE3F80
780F00
380E00
3C1E00
1C1C00
1E3C00
0E3800
0F7800
077000
07F000
03E000
03E000
01C000
01C000
038000
038000
070000
FFE000
FFE000
FFE000
ENDCHAR
STARTCHAR thorn
ENCODING 254
SWIDTH 600 0
DWIDTH 20 0
BBX 19 28 0 -7
BITMAP
FC0000
FC0000
FC0000
1C0000
1C0000
1C0000
1CFC00
1FFF00
1FFF80
1F87C0
1F03C0
1E01E0
1C00E0
1C00E0
1C00E0
1E01E0
1E01C0
1F87C0
1FFF80
1FFF00
1CFC00
1C0000
1C0000
1C0000
1C0000
FFC000
FFC000
FFC000
ENDCHAR
STARTCHAR ydieresis
ENCODING 255
SWIDTH 600 0
DWIDTH 20 0
BBX 17 28 1 -7
BITMAP
060C00
0F1E00
0F1E00
060C00
000000
000000
FE3F80
FE3F80
FE3F80
780F00
380E00
3C1E00
1C1C00
1E3C00
0E3800
0F7800
077000
07F000
03E000
03E000
01C000
01C000
038000
038000
070000
FFE000
FFE000
FFE000
ENDCHAR
STARTCHAR Amacron
ENCODING 256
SWIDTH 600 0
DWIDTH 20 0
BBX 21 23 -1 0
BITMAP
0FFC00
0FFC00
000000
1FF000
1FF800
1FF800
01DC00
01DC00
01DC00
038E00
038E00
038E00
070700
070700
070700
0FFF80
0FFF80
1FFFC0
1C01C0
1C01C0
FF8FF8
FF8FF8
FF8FF8
ENDCHAR
STARTCHAR amacron
ENCODING 257
SWIDTH 600 0
DWIDTH 20 0
BBX 16 18 2 0
BITMAP
1FF8
1FF8
0000
1FE0
7FF8
7FFC
703C
001C
001C
0FFC
7FFC
7FFC
F01C
E01C
E07C
FFFF
7FDF
3F9F
ENDCHAR
STARTCHAR Abreve
ENCODING 258
SWIDTH 600 0
DWIDTH 20 0
BBX 21 26 -1 0
BITMAP
060C00
060C00
071C00
07FC00
01F000
000000
1FF000
1FF800
1FF800
01DC00
01DC00
01DC00
038E00
038E00
038E00
070700
070700
070700
0FFF80
0FFF80
1FFFC0
1C01C0
1C01C0
FF8FF8
FF8FF8
FF8FF8
ENDCHAR
STARTCHAR abreve
ENCODING 259
SWIDTH 600 0
DWIDTH 20 0
BBX 16 21 2 0
BITMAP
1830
1830
1C70
1FF0
07C0
0000
1FE0
7FF8
7FFC
703C
001C
001C
0FFC
7FFC
7FFC
F01C
E01C
E07C
FFFF
7FDF
3F9F
ENDCHAR
STARTCHAR Aogonek
ENCODING 260
SWIDTH 600 0
DWIDTH 20 0
BBX 21 26 -1 -6
BITMAP
1FF000
1FF800
1FF800
01DC00
01DC00
01DC00
038E00
038E00
038E00
070700
070700
070700
0FFF80
0FFF80
1FFFC0
1C01C0
1C01C0
FF8FF8
FFBFF8
FFFFF8
00E000
00C000
00C000
00E000
007C00
003C00
ENDCHAR
STARTCHAR aogonek
ENCODING 261
SWIDTH 600 0
DWIDTH 20 0
BBX 16 21 2 -6
BITMAP
1FE0
7FF8
7FFC
703C
001C
001C
0FFC
7FFC
7FFC
F01C
E01C
E07C
FFFF
7FDF
3FDF
0380
0300
0300
0380
01F0
00F0
ENDCHAR
STARTCHAR Cacute
ENCODING 262
SWIDTH 600 0
DWIDTH 20 0
BBX 18 27 1 0
BITMAP
000C00
001E00
007C00
00F000
01C000
008000
000000
03F980
0FFF80
1FFF80
3E0F80
780780
700380
F00380
E00000
E00000
E00000
E00000
E00000
E00000
E00000
F00000
780380
7C07C0
3FFF80
1FFF00
07FC00
ENDCHAR
STARTCHAR cacute
ENCODING 263
SWIDTH 600 0
DWIDTH 20 0
BBX 16 22 2 0
BITMAP
0018
003C
00F8
01E0
0380
0100
0000
07E6
1FFE
3FFE
7C3E
700E
E00E
E00E
E000
E000
E000
F006
780F
7FFE
3FFC
0FF0
ENDCHAR
STARTCHAR Ccircumflex
ENCODING 264
SWIDTH 600 0
DWIDTH 20 0
BBX 18 26 1 0
BITMAP
004000
00E000
03F800
07BC00
060C00
000000
03F980
0FFF80
1FFF80
3E0F80
780780
700380
F00380
E00000
E00000
E00000
E00000
E00000
E00000
E00000
F00000
780380
7C07C0
3FFF80
1FFF00
07FC00
ENDCHAR
STARTCHAR ccircumflex
ENCODING 265
SWIDTH 600 0
DWIDTH 20 0
BBX 16 21 2 0
BITMAP
0080
01C0
07F0
0F78
0C18
0000
07E6
1FFE
3FFE
7C3E
700E
E00E
E00E
E000
E000
E000
F006
780F
7FFE
3FFC
0FF0
ENDCHAR
STARTCHAR Cdotaccent
ENCODING 266
SWIDTH 600 0
DWIDTH 20 0
BBX 18 24 1 0
BITMAP
00E000
00E000
00E000
000000
03F980
0FFF80
1FFF80
3E0F80
780780
700380
F00380
E00000
E00000
E00000
E00000
E00000
E00000
E00000
F00000
780380
7C07C0
3FFF80
1FFF00
07FC00
ENDCHAR
STARTCHAR cdotaccent
ENCODING 267
SWIDTH 600 0
DWIDTH 20 0
BBX 16 19 2 0
BITMAP
01C0
01C0
01C0
0000
07E6
1FFE
3FFE
7C3E
700E
E00E
E00E
E000
E000
E000
F006
780F
7FFE
3FFC
0FF0
ENDCHAR
STARTCHAR Ccaron
ENCODING 268
SWIDTH 600 0
DWIDTH 20 0
BBX 18 26 1 0
BITMAP
060C00
07BC00
03F800
00E000
004000
000000
03F980
0FFF80
1FFF80
3E0F80
780780
700380
F00380
E00000
E00000
E00000
E00000
E00000
E00000
E00000
F00000
780380
7C07C0
3FFF80
1FFF00
07FC00
ENDCHAR
STARTCHAR ccaron
ENCODING 269
SWIDTH 600 0
DWIDTH 20 0
BBX 16 21 2 0
BITMAP
0C18
0F78
07F0
01C0
0080
0000
07E6
1FFE
3FFE
7C3E
700E
E00E
E00E
E000
E000
E000
F006
780F
7FFE
3FFC
0FF0
ENDCHAR
STARTCHAR Dcaron
ENCODING 270
SWIDTH 600 0
DWIDTH 20 0
BBX 17 26 1 0
BITMAP
183000
1EF000
0FE000
038000
010000
000000
FFE000
FFF800
FFFC00
383E00
380F00
380700
380780
380380
380380
380380
380380
380380
380380
380380
380780
380700
381F00
FFFE00
FFFC00
FFF000
ENDCHAR
STARTCHAR dcaron
ENCODING 271
SWIDTH 600 0
DWIDTH 20 0
BBX 19 27 1 0
BITMAP
00C180
00F780
007F00
001C00
000800
000000
003F00
003F00
003F00
000700
000700
000700
07E700
1FFF00
3FFF00
7C3F00
700F00
F00F00
E00700
E00700
E00700
E00700
700F00
7C3F00
3FFFE0
1FF7E0
07E7E0
ENDCHAR
STARTCHAR Dcroat
ENCODING 272
SWIDTH 600 0
DWIDTH 20 0
BBX 17 20 2 0
BITMAP
FFE000
FFF800
FFFC00
383E00
380F00
380700
380700
380380
FF8380
FF8380
FF8380
380380
380380
380380
380700
380700
381E00
FFFE00
FFFC00
FFF000
ENDCHAR
STARTCHAR dcroat
ENCODING 273
SWIDTH 600 0
DWIDTH 20 0
BBX 21 21 1 0
BITMAP
003F00
003F00
003F00
00FFF8
00FFF8
00FFF8
07E700
1FFF00
3FFF00
7C3F00
700F00
F00F00
E00700
E00700
E00700
E00700
700F00
7C3F00
3FFFE0
1FF7E0
07E7E0
ENDCHAR
STARTCHAR Emacron
ENCODING 274
SWIDTH 600 0
DWIDTH 20 0
BBX 17 23 1 0
BITMAP
1FF800
1FF800
000000
FFFF00
FFFF00
FFFF00
1C0700
1C0700
1C0700
1C7700
1C7000
1FF000
1FF000
1FF000
1C7000
1C7000
1C0380
1C0380
1C0380
1C0380
FFFF80
FFFF80
FFFF80
ENDCHAR
STARTCHAR emacron
ENCODING 275
SWIDTH 600 0
DWIDTH 20 0
BBX 18 18 1 0
BITMAP
0FFC00
0FFC00
000000
03F000
0FFC00
1FFE00
3E1F00
780780
700380
FFFF80
FFFF80
FFFF80
F00000
780000
7E0380
3FFFC0
1FFF80
07FE00
ENDCHAR
STARTCHAR Ebreve
ENCODING 276
SWIDTH 600 0
DWIDTH 20 0
BBX 17 26 1 0
BITMAP
0C1800
0C1800
0E3800
0FF800
03E000
000000
FFFF00
FFFF00
FFFF00
1C0700
1C0700
1C0700
1C7700
1C7000
1FF000
1FF000
1FF000
1C7000
1C7000
1C0380
1C0380
1C0380
1C0380
FFFF80
FFFF80
FFFF80
ENDCHAR
STARTCHAR ebreve
ENCODING 277
SWIDTH 600 0
DWIDTH 20 0
BBX 18 21 1 0
BITMAP
060C00
060C00
071C00
07FC00
01F000
000000
03F000
0FFC00
1FFE00
3E1F00
780780
700380
FFFF80
FFFF80
FFFF80
F00000
780000
7E0380
3FFFC0
1FFF80
07FE00
ENDCHAR
STARTCHAR Edotaccent
ENCODING 278
SWIDTH 600 0
DWIDTH 20 0
BBX 17 24 1 0
BITMAP
01C000
01C000
01C000
000000
FFFF00
FFFF00
FFFF00
1C0700
1C0700
1C0700
1C7700
1C7000
1FF000
1FF000
1FF000
1C7000
1C7000
1C0380
1C0380
1C0380
1C0380
FFFF80
FFFF80
FFFF80
ENDCHAR
STARTCHAR edotaccent
ENCODING 279
SWIDTH 600 0
DWIDTH 20 0
BBX 18 19 1 0
BITMAP
00E000
00E000
00E000
000000
03F000
0FFC00
1FFE00
3E1F00
780780
700380
FFFF80
FFFF80
FFFF80
F00000
780000
7E0380
3FFFC0
1FFF80
07FE00
ENDCHAR
STARTCHAR Eogonek
ENCODING 280
SWIDTH 600 0
DWIDTH 20 0
BBX 17 26 1 -6
BITMAP
FFFF00
FFFF00
FFFF00
1C0700
1C0700
1C0700
1C7700
1C7000
1FF000
1FF000
1FF000
1C7000
1C7000
1C0380
1C0380
1C0380
1C0380
FFFF80
FFFF80
FFFF80
038000
030000
030000
038000
01F000
00F000
ENDCHAR
STARTCHAR eogonek
ENCODING 281
SWIDTH 600 0
DWIDTH 20 0
BBX 18 21 1 -6
BITMAP
03F000
0FFC00
1FFE00
3E1F00
780780
700380
FFFF80
FFFF80
FFFF80
F00000
780000
7E0380
3FFFC0
1FFF80
07FE00
01C000
018000
018000
01C000
00F800
007800
ENDCHAR
STARTCHAR Ecaron
ENCODING 282
SWIDTH 600 0
DWIDTH 20 0
BBX 17 26 1 0
BITMAP
0C1800
0F7800
07F000
01C000
008000
000000
FFFF00
FFFF00
FFFF00
1C0700
1C0700
1C0700
1C7700
1C7000
1FF000
1FF000
1FF000
1C7000
1C7000
1C0380
1C0380
1C0380
1C0380
FFFF80
FFFF80
FFFF80
ENDCHAR
STARTCHAR ecaron
ENCODING 283
SWIDTH 600 0
DWIDTH 20 0
BBX 18 21 1 0
BITMAP
060C00
07BC00
03F800
00E000
004000
000000
03F000
0FFC00
1FFE00
3E1F00
780780
700380
FFFF80
FFFF80
FFFF80
F00000
780000
7E0380
3FFFC0
1FFF80
07FE00
ENDCHAR
STARTCHAR Gcircumflex
ENCODING 284
SWIDTH 600 0
DWIDTH 20 0
BBX 17 26 2 0
BITMAP
004000
00E000
03F800
07BC00
060C00
000000
03F300
0FFF00
1FFF00
3C0F00
780700
700700
F00700
E00000
E00000
E00000
E00000
E0FF80
E0FF80
E0FF80
F00700
700700
7C0F00
3FFF00
1FFE00
07F800
ENDCHAR
STARTCHAR gcircumflex
ENCODING 285
SWIDTH 600 0
DWIDTH 20 0
BBX 18 28 1 -7
BITMAP
004000
00E000
03F800
07BC00
060C00
000000
07CFC0
1FFFC0
3FFFC0
7C7E00
701E00
F01E00
E00E00
E00E00
E00E00
F01E00
701E00
787E00
3FFE00
1FEE00
0FCE00
000E00
000E00
001E00
003C00
1FFC00
1FF800
1FE000
ENDCHAR
STARTCHAR Gbreve
ENCODING 286
SWIDTH 600 0
DWIDTH 20 0
BBX 17 26 2 0
BITMAP
060C00
060C00
071C00
07FC00
01F000
000000
03F300
0FFF00
1FFF00
3C0F00
780700
700700
F00700
E00000
E00000
E00000
E00000
E0FF80
E0FF80
E0FF80
F00700
700700
7C0F00
3FFF00
1FFE00
07F800
ENDCHAR
STARTCHAR gbreve
ENCODING 287
SWIDTH 600 0
DWIDTH 20 0
BBX 18 28 1 -7
BITMAP
060C00
060C00
071C00
07FC00
01F000
000000
07CFC0
1FFFC0
3FFFC0
7C7E00
701E00
F01E00
E00E00
E00E00
E00E00
F01E00
701E00
787E00
3FFE00
1FEE00
0FCE00
000E00
000E00
001E00
003C00
1FFC00
1FF800
1FE000
ENDCHAR
STARTCHAR Gdotaccent
ENCODING 288
SWIDTH 600 0
DWIDTH 20 0
BBX 17 24 2 0
BITMAP
00E000
00E000
00E000
000000
03F300
0FFF00
1FFF00
3C0F00
780700
700700
F00700
E00000
E00000
E00000
E00000
E0FF80
E0FF80
E0FF80
F00700
700700
7C0F00
3FFF00
1FFE00
07F800
ENDCHAR
STARTCHAR gdotaccent
ENCODING 289
SWIDTH 600 0
DWIDTH 20 0
BBX 18 26 1 -7
BITMAP
00E000
00E000
00E000
000000
07CFC0
1FFFC0
3FFFC0
7C7E00
701E00
F01E00
E00E00
E00E00
E00E00
F01E00
701E00
787E00
3FFE00
1FEE00
0FCE00
000E00
000E00
001E00
003C00
1FFC00
1FF800
1FE000
ENDCHAR
STARTCHAR Gcommaaccent
ENCODING 290
SWIDTH 600 0
DWIDTH 20 0
BBX 17 31 2 -11
BITMAP
03F300
0FFF00
1FFF00
3C0F00
780700
700700
F00700
E00000
E00000
E00000
E00000
E0FF80
E0FF80
E0FF80
F00700
700700
7C0F00
3FFF00
1FFE00
07F800
000000
01E000
01E000
03C000
03C000
038000
070000
070000
0E0000
0E0000
0C0000
ENDCHAR
STARTCHAR gcommaaccent
ENCODING 291
SWIDTH 600 0
DWIDTH 20 0
BBX 18 33 1 -7
BITMAP
078000
078000
03C000
03C000
01C000
01E000
00E000
00E000
007000
006000
000000
07CFC0
1FFFC0
3FFFC0
7C7E00
701E00
F01E00
E00E00
E00E00
E00E00
F01E00
701E00
787E00
3FFE00
1FEE00
0FCE00
000E00
000E00
001E00
003C00
1FFC00
1FF800
1FE000
ENDCHAR
STARTCHAR Hcircumflex
ENCODING 292
SWIDTH 600 0
DWIDTH 20 0
BBX 17 26 1 0
BITMAP
008000
01C000
07F000
0F7800
0C1800
000000
FF7F80
FF7F80
FF7F80
380E00
380E00
380E00
380E00
380E00
3FFE00
3FFE00
3FFE00
380E00
380E00
380E00
380E00
380E00
380E00
FF7F80
FF7F80
FF7F80
ENDCHAR
STARTCHAR hcircumflex
ENCODING 293
SWIDTH 600 0
DWIDTH 20 0
BBX 18 27 1 0
BITMAP
040000
0E0000
3F8000
7BC000
60C000
000000
FC0000
FC0000
FC0000
1C0000
1C0000
1C0000
1CF800
1DFC00
1FFE00
1F0F00
1E0700
1C0700
1C0700
1C0700
1C0700
1C0700
1C0700
1C0700
7F1FC0
7F1FC0
7F1FC0
ENDCHAR
STARTCHAR Hbar
ENCODING 294
SWIDTH 600 0
DWIDTH 20 0
BBX 17 20 1 0
BITMAP
FF7F80
FF7F80
FF7F80
FFFF80
FFFF80
FFFF80
380E00
380E00
3FFE00
3FFE00
3FFE00
380E00
380E00
380E00
380E00
380E00
380E00
FF7F80
FF7F80
FF7F80
ENDCHAR
STARTCHAR hbar
ENCODING 295
SWIDTH 600 0
DWIDTH 20 0
BBX 19 21 0 0
BITMAP
7E0000
7E0000
7E0000
FFF800
FFF800
FFF800
0E7C00
0EFE00
0FFF00
0F8780
0F0380
0E0380
0E0380
0E0380
0E0380
0E0380
0E0380
0E0380
3F8FE0
3F8FE0
3F8FE0
ENDCHAR
STARTCHAR Itilde
ENCODING 296
SWIDTH 600 0
DWIDTH 20 0
BBX 13 24 3 0
BITMAP
1E30
3FF0
33E0
0000
FFF8
FFF8
FFF8
0700
0700
0700
0700
0700
0700
0700
0700
0700
0700
0700
0700
0700
0700
FFF8
FFF8
FFF8
ENDCHAR
STARTCHAR itilde
ENCODING 297
SWIDTH 600 0
DWIDTH 20 0
BBX 15 19 2 0
BITMAP
3C60
7FE0
67C0
0000
7F80
7F80
7F80
0380
0380
0380
0380
0380
0380
0380
0380
0380
FFFE
FFFE
FFFE
ENDCHAR
STARTCHAR Imacron
ENCODING 298
SWIDTH 600 0
DWIDTH 20 0
BBX 13 23 3 0
BITMAP
3FF0
3FF0
0000
FFF8
FFF8
FFF8
0700
0700
0700
0700
0700
0700
0700
0700
0700
0700
0700
0700
0700
0700
FFF8
FFF8
FFF8
ENDCHAR
STARTCHAR imacron
ENCODING 299
SWIDTH 600 0
DWIDTH 20 0
BBX 15 18 2 0
BITMAP
7FE0
7FE0
0000
7F80
7F80
7F80
0380
0380
0380
0380
0380
0380
0380
0380
0380
FFFE
FFFE
FFFE
ENDCHAR
STARTCHAR Ibreve
ENCODING 300
SWIDTH 600 0
DWIDTH 20 0
BBX 13 26 3 0
BITMAP
3060
3060
38E0
3FE0
0F80
0000
FFF8
FFF8
FFF8
0700
0700
0700
0700
0700
0700
0700
0700
0700
0700
0700
0700
0700
0700
FFF8
FFF8
FFF8
ENDCHAR
STARTCHAR ibreve
ENCODING 301
SWIDTH 600 0
DWIDTH 20 0
BBX 15 21 2 0
BITMAP
3060
3060
38E0
3FE0
0F80
0000
7F80
7F80
7F80
0380
0380
0380
0380
0380
0380
0380
0380
0380
FFFE
FFFE
FFFE
ENDCHAR
STARTCHAR Iogonek
ENCODING 302
SWIDTH 600 0
DWIDTH 20 0
BBX 13 26 3 -6
BITMAP
FFF8
FFF8
FFF8
0700
0700
0700
0700
0700
0700
0700
0700
0700
0700
0700
0700
0700
0700
FFF8
FFF8
FFF8
0E00
0C00
0C00
0E00
07C0
03C0
ENDCHAR
STARTCHAR iogonek
ENCODING 303
SWIDTH 600 0
DWIDTH 20 0
BBX 15 27 3 -6
BITMAP
0780
0780
0780
0780
0000
0000
7F80
7F80
7F80
0380
0380
0380
0380
0380
0380
0380
0380
0380
FFFE
FFFE
FFFE
0700
0600
0600
0700
03E0
01E0
ENDCHAR
STARTCHAR Idotaccent
ENCODING 304
SWIDTH 600 0
DWIDTH 20 0
BBX 13 24 3 0
BITMAP
0700
0700
0700
0000
FFF8
FFF8
FFF8
0700
0700
0700
0700
0700
0700
0700
0700
0700
0700
0700
0700
0700
0700
FFF8
FFF8
FFF8
ENDCHAR
STARTCHAR dotlessi
ENCODING 305
SWIDTH 600 0
DWIDTH 20 0
BBX 15 15 2 0
BITMAP
7F80
7F80
7F80
0380
0380
0380
0380
0380
0380
0380
0380
0380
FFFE
FFFE
FFFE
ENDCHAR
STARTCHAR IJ
ENCODING 306
SWIDTH 600 0
DWIDTH 20 0
BBX 20 20 3 0
BITMAP
FFFFF0
FFFFF0
FFFFF0
070700
070700
070700
070700
070700
070700
070700
1F0700
1F0700
1F0700
1F0700
1F0700
1F0F00
1F1E00
FFFE00
FFFC00
FFF800
ENDCHAR
STARTCHAR ij
ENCODING 307
SWIDTH 600 0
DWIDTH 20 0
BBX 19 28 3 -7
BITMAP
078780
078780
078780
078780
000000
000000
7FFFE0
7FFFE0
7FFFE0
0380E0
0380E0
0380E0
0380E0
0380E0
0380E0
0380E0
0380E0
0380E0
FFFEE0
FFFEE0
FFFEE0
0000E0
0000E0
0000E0
0001E0
01FFC0
01FF80
01FF00
ENDCHAR
STARTCHAR Jcircumflex
ENCODING 308
SWIDTH 600 0
DWIDTH 20 0
BBX 17 26 2 0
BITMAP
002000
007000
01FC00
03DE00
030600
000000
07FF80
07FF80
07FF80
003800
003800
003800
003800
003800
003800
003800
E03800
E03800
E03800
E03800
E03800
E07800
F0F000
FFF000
7FE000
1F8000
ENDCHAR
STARTCHAR jcircumflex
ENCODING 309
SWIDTH 600 0
DWIDTH 20 0
BBX 12 28 3 -7
BITMAP
0200
0700
1FC0
3DE0
3060
0000
FFF0
FFF0
FFF0
0070
0070
0070
0070
0070
0070
0070
0070
0070
0070
0070
0070
0070
0070
0070
00F0
FFE0
FFC0
FF80
ENDCHAR
STARTCHAR Kcommaaccent
ENCODING 310
SWIDTH 600 0
DWIDTH 20 0
BBX 19 31 1 -11
BITMAP
FF9FC0
FF9FC0
FF9FC0
1C0F00
1C1E00
1C3C00
1C7800
1CF000
1FE000
1FF000
1FF800
1E7C00
1C3C00
1C1E00
1C0E00
1C0F00
1C0700
FF87E0
FF87E0
FF87E0
000000
00F000
00F000
01E000
01E000
01C000
038000
038000
070000
070000
060000
ENDCHAR
STARTCHAR kcommaaccent
ENCODING 311
SWIDTH 600 0
DWIDTH 20 0
BBX 17 32 1 -11
BITMAP
FC0000
FC0000
FC0000
1C0000
1C0000
1C0000
1CFF00
1CFF00
1CFF00
1C7800
1CF000
1DE000
1FC000
1FC000
1FE000
1DF000
1CF800
1C7C00
FC3F80
FC3F80
FC3F80
000000
01E000
01E000
03C000
03C000
038000
070000
070000
0E0000
0E0000
0C0000
ENDCHAR
STARTCHAR kgreenlandic
ENCODING 312
SWIDTH 600 0
DWIDTH 20 0
BBX 17 15 1 0
BITMAP
1CFF00
1CFF00
1CFF00
1C7800
1CF000
1DE000
1FC000
1FC000
1FE000
1DF000
1CF800
1C7C00
FC3F80
FC3F80
FC3F80
ENDCHAR
STARTCHAR Lacute
ENCODING 313
SWIDTH 600 0
DWIDTH 20 0
BBX 17 27 1 0
BITMAP
006000
00F000
03E000
078000
0E0000
040000
000000
FFE000
FFE000
FFE000
0E0000
0E0000
0E0000
0E0000
0E0000
0E0000
0E0000
0E0000
0E0380
0E0380
0E0380
0E0380
0E0380
0E0380
FFFF80
FFFF80
FFFF80
ENDCHAR
STARTCHAR lacute
ENCODING 314
SWIDTH 600 0
DWIDTH 20 0
BBX 15 28 3 0
BITMAP
0060
00F0
03E0
0780
0E00
0400
0000
7F80
7F80
7F80
0380
0380
0380
0380
0380
0380
0380
0380
0380
0380
0380
0380
0380
0380
0380
FFFE
FFFE
FFFE
ENDCHAR
STARTCHAR Lcommaaccent
ENCODING 315
SWIDTH 600 0
DWIDTH 20 0
BBX 17 31 1 -11
BITMAP
FFE000
FFE000
FFE000
0E0000
0E0000
0E0000
0E0000
0E0000
0E0000
0E0000
0E0000
0E0380
0E0380
0E0380
0E0380
0E0380
0E0380
FFFF80
FFFF80
FFFF80
000000
00F000
00F000
01E000
01E000
01C000
038000
038000
070000
070000
060000
ENDCHAR
STARTCHAR lcommaaccent
ENCODING 316
SWIDTH 600 0
DWIDTH 20 0
BBX 15 32 3 -11
BITMAP
7F80
7F80
7F80
0380
0380
0380
0380
0380
0380
0380
0380
0380
0380
0380
0380
0380
0380
0380
FFFE
FFFE
FFFE
0000
03C0
03C0
0780
0780
0700
0E00
0E00
1C00
1C00
1800
ENDCHAR
STARTCHAR Lcaron
ENCODING 317
SWIDTH 600 0
DWIDTH 20 0
BBX 17 26 1 0
BITMAP
306000
3DE000
1FC000
070000
020000
000000
FFE000
FFE000
FFE000
0E0000
0E0000
0E0000
0E0000
0E0000
0E0000
0E0000
0E0000
0E0380
0E0380
0E0380
0E0380
0E0380
0E0380
FFFF80
FFFF80
FFFF80
ENDCHAR
STARTCHAR lcaron
ENCODING 318
SWIDTH 600 0
DWIDTH 20 0
BBX 15 27 3 0
BITMAP
3060
3DE0
1FC0
0700
0200
0000
7F80
7F80
7F80
0380
0380
0380
0380
0380
0380
0380
0380
0380
0380
0380
0380
0380
0380
0380
FFFE
FFFE
FFFE
ENDCHAR
STARTCHAR Ldot
ENCODING 319
SWIDTH 600 0
DWIDTH 20 0
BBX 17 20 1 0
BITMAP
FFE000
FFE000
FFE000
0E0000
0E0000
0E0000
0E0000
0E0000
0E7000
0EF800
0EF800
0E7380
0E0380
0E0380
0E0380
0E0380
0E0380
FFFF80
FFFF80
FFFF80
ENDCHAR
STARTCHAR ldot
ENCODING 320
SWIDTH 600 0
DWIDTH 20 0
BBX 17 21 3 0
BITMAP
7F8000
7F8000
7F8000
038000
038000
038000
038000
038000
038000
038700
038F80
038F80
038700
038000
038000
038000
038000
038000
FFFE00
FFFE00
FFFE00
ENDCHAR
STARTCHAR Lslash
ENCODING 321
SWIDTH 600 0
DWIDTH 20 0
BBX 17 20 1 0
BITMAP
FFE000
FFE000
FFE000
0E0000
0E0000
0E0000
0E7000
0FF000
0FF000
0FC000
3F0000
FE0380
FE0380
EE0380
0E0380
0E0380
0E0380
FFFF80
FFFF80
FFFF80
ENDCHAR
STARTCHAR lslash
ENCODING 322
SWIDTH 600 0
DWIDTH 20 0
BBX 15 21 2 0
BITMAP
7F80
7F80
7F80
0380
0380
0380
0380
03B8
03F8
07F8
1FE0
3F80
3F80
3B80
0380
0380
0380
0380
FFFE
FFFE
FFFE
ENDCHAR
STARTCHAR Nacute
ENCODING 323
SWIDTH 600 0
DWIDTH 20 0
BBX 19 27 0 0
BITMAP
000C00
001E00
007C00
00F000
01C000
008000
000000
F81FE0
FC1FE0
FE1FE0
3E0380
3F0380
3F0380
3B8380
3BC380
39C380
39E380
38F380
387380
387B80
383B80
381F80
381F80
380F80
FF0780
FF0780
FF0380
ENDCHAR
STARTCHAR nacute
ENCODING 324
SWIDTH 600 0
DWIDTH 20 0
BBX 17 22 2 0
BITMAP
003000
007800
01F000
03C000
070000
020000
000000
F9F000
FBF800
FFFC00
3E1E00
3C0E00
380E00
380E00
380E00
380E00
380E00
380E00
380E00
FE3F80
FE3F80
FE3F80
ENDCHAR
STARTCHAR Ncommaaccent
ENCODING 325
SWIDTH 600 0
DWIDTH 20 0
BBX 19 31 0 -11
BITMAP
F81FE0
FC1FE0
FE1FE0
3E0380
3F0380
3F0380
3B8380
3BC380
39C380
39E380
38F380
387380
387B80
383B80
381F80
381F80
380F80
FF0780
FF0780
FF0380
000000
00F000
00F000
01E000
01E000
01C000
038000
038000
070000
070000
060000
ENDCHAR
STARTCHAR ncommaaccent
ENCODING 326
SWIDTH 600 0
DWIDTH 20 0
BBX 17 26 2 -11
BITMAP
F9F000
FBF800
FFFC00
3E1E00
3C0E00
380E00
380E00
380E00
380E00
380E00
380E00
380E00
FE3F80
FE3F80
FE3F80
000000
01E000
01E000
03C000
03C000
038000
070000
070000
0E0000
0E0000
0C0000
ENDCHAR
STARTCHAR Ncaron
ENCODING 327
SWIDTH 600 0
DWIDTH 20 0
BBX 19 26 0 0
BITMAP
060C00
07BC00
03F800
00E000
004000
000000
F81FE0
FC1FE0
FE1FE0
3E0380
3F0380
3F0380
3B8380
3BC380
39C380
39E380
38F380
387380
387B80
383B80
381F80
381F80
380F80
FF0780
FF0780
FF0380
ENDCHAR
STARTCHAR ncaron
ENCODING 328
SWIDTH 600 0
DWIDTH 20 0
BBX 17 21 2 0
BITMAP
183000
1EF000
0FE000
038000
010000
000000
F9F000
FBF800
FFFC00
3E1E00
3C0E00
380E00
380E00
380E00
380E00
380E00
380E00
380E00
FE3F80
FE3F80
FE3F80
ENDCHAR
STARTCHAR napostrophe
ENCODING 329
SWIDTH 600 0
DWIDTH 20 0
BBX 21 21 -2 0
BITMAP
3C0000
3C0000
780000
780000
700000
700000
EF9F00
EFBF80
CFFFC0
C3E1E0
03C0E0
0380E0
0380E0
0380E0
0380E0
0380E0
0380E0
0380E0
0FE3F8
0FE3F8
0FE3F8
ENDCHAR
STARTCHAR Eng
ENCODING 330
SWIDTH 600 0
DWIDTH 20 0
BBX 19 27 0 -7
BITMAP
F81FE0
FC1FE0
FE1FE0
3E0380
3F0380
3F0380
3B8380
3BC380
39C380
39E380
38F380
387380
387B80
383B80
381F80
381F80
380F80
FF0780
FF0780
FF0380
000380
000380
000380
000780
07FF00
07FE00
07FC00
ENDCHAR
STARTCHAR eng
ENCODING 331
SWIDTH 600 0
DWIDTH 20 0
BBX 15 22 2 -7
BITMAP
F9F0
FBF8
FFFC
3E1E
3C0E
380E
380E
380E
380E
380E
380E
380E
FE0E
FE0E
FE0E
000E
000E
000E
001E
1FFC
1FF8
1FF0
ENDCHAR
STARTCHAR Omacron
ENCODING 332
SWIDTH 600 0
DWIDTH 20 0
BBX 18 23 1 0
BITMAP
0FFC00
0FFC00
000000
03F000
0FFC00
1FFE00
3C0F00
780780
700380
F003C0
E001C0
E001C0
E001C0
E001C0
E001C0
E001C0
F003C0
700380
780780
3C0F00
1FFE00
0FFC00
03F000
ENDCHAR
STARTCHAR omacron
ENCODING 333
SWIDTH 600 0
DWIDTH 20 0
BBX 17 18 2 0
BITMAP
0FFC00
0FFC00
000000
07F000
1FFC00
3FFE00
780F00
700700
F00780
E00380
E00380
E00380
F00780
700700
780F00
3FFE00
1FFC00
07F000
ENDCHAR
STARTCHAR Obreve
ENCODING 334
SWIDTH 600 0
DWIDTH 20 0
BBX 18 26 1 0
BITMAP
060C00
060C00
071C00
07FC00
01F000
000000
03F000
0FFC00
1FFE00
3C0F00
780780
700380
F003C0
E001C0
E001C0
E001C0
E001C0
E001C0
E001C0
F003C0
700380
780780
3C0F00
1FFE00
0FFC00
03F000
ENDCHAR
STARTCHAR obreve
ENCODING 335
SWIDTH 600 0
DWIDTH 20 0
BBX 17 21 2 0
BITMAP
0C1800
0C1800
0E3800
0FF800
03E000
000000
07F000
1FFC00
3FFE00
780F00
700700
F00780
E00380
E00380
E00380
F00780
700700
780F00
3FFE00
1FFC00
07F000
ENDCHAR
STARTCHAR Ohungarumlaut
ENCODING 336
SWIDTH 600 0
DWIDTH 20 0
BBX 18 27 1 0
BITMAP
00C300
01C700
038E00
071C00
0E3800
0C3000
000000
03F000
0FFC00
1FFE00
3C0F00
780780
700380
F003C0
E001C0
E001C0
E001C0
E001C0
E001C0
E001C0
F003C0
700380
780780
3C0F00
1FFE00
0FFC00
03F000
ENDCHAR
STARTCHAR ohungarumlaut
ENCODING 337
SWIDTH 600 0
DWIDTH 20 0
BBX 17 22 2 0
BITMAP
00C300
01C700
038E00
071C00
0E3800
0C3000
000000
07F000
1FFC00
3FFE00
780F00
700700
F00780
E00380
E00380
E00380
F00780
700700
780F00
3FFE00
1FFC00
07F000
ENDCHAR
STARTCHAR OE
ENCODING 338
SWIDTH 600 0
DWIDTH 20 0
BBX 21 20 -1 0
BITMAP
03FFF0
0FFFF0
1FFFF0
3E3870
3C3870
783870
703870
F03B80
E03B80
E03F80
E03F80
E03F80
E03B80
F03B80
703838
783838
3E3838
1FFFF8
0FFFF8
03FFF8
ENDCHAR
STARTCHAR oe
ENCODING 339
SWIDTH 600 0
DWIDTH 20 0
BBX 20 15 -1 0
BITMAP
0F0700
1F9FC0
3FDFC0
79FDE0
70F8E0
F0F070
E07FF0
E07FF0
E07FF0
E07000
F0F800
79F8F0
3FFFF0
1F9FF0
0F0F80
ENDCHAR
STARTCHAR Racute
ENCODING 340
SWIDTH 600 0
DWIDTH 20 0
BBX 20 27 1 0
BITMAP
000C00
001E00
007C00
00F000
01C000
008000
000000
FFF800
FFFE00
FFFF00
1C0F00
1C0780
1C0380
1C0380
1C0780
1C0F00
1FFE00
1FFC00
1FF800
1C3C00
1C1E00
1C0F00
1C0780
1C03C0
FF83F0
FF81F0
FF81F0
ENDCHAR
STARTCHAR racute
ENCODING 341
SWIDTH 600 0
DWIDTH 20 0
BBX 17 22 2 0
BITMAP
001800
003C00
00F800
01E000
038000
010000
000000
7E3E00
7EFF00
7FFF80
0FC700
0F0200
0F0000
0E0000
0E0000
0E0000
0E0000
0E0000
0E0000
FFFC00
FFFC00
FFFC00
ENDCHAR
STARTCHAR Rcommaaccent
ENCODING 342
SWIDTH 600 0
DWIDTH 20 0
BBX 20 31 1 -11
BITMAP
FFF800
FFFE00
FFFF00
1C0F00
1C0780
1C0380
1C0380
1C0780
1C0F00
1FFE00
1FFC00
1FF800
1C3C00
1C1E00
1C0F00
1C0780
1C03C0
FF83F0
FF81F0
FF81F0
000000
007800
007800
00F000
00F000
00E000
01C000
01C000
038000
038000
030000
ENDCHAR
STARTCHAR rcommaaccent
ENCODING 343
SWIDTH 600 0
DWIDTH 20 0
BBX 17 26 2 -11
BITMAP
7E3E00
7EFF00
7FFF80
0FC700
0F0200
0F0000
0E0000
0E0000
0E0000
0E0000
0E0000
0E0000
FFFC00
FFFC00
FFFC00
000000
03C000
03C000
078000
078000
070000
0E0000
0E0000
1C0000
1C0000
180000
ENDCHAR
STARTCHAR Rcaron
ENCODING 344
SWIDTH 600 0
DWIDTH 20 0
BBX 20 26 1 0
BITMAP
0C1800
0F7800
07F000
01C000
008000
000000
FFF800
FFFE00
FFFF00
1C0F00
1C0780
1C0380
1C0380
1C0780
1C0F00
1FFE00
1FFC00
1FF800
1C3C00
1C1E00
1C0F00
1C0780
1C03C0
FF83F0
FF81F0
FF81F0
ENDCHAR
STARTCHAR rcaron
ENCODING 345
SWIDTH 600 0
DWIDTH 20 0
BBX 17 21 2 0
BITMAP
0C1800
0F7800
07F000
01C000
008000
000000
7E3E00
7EFF00
7FFF80
0FC700
0F0200
0F0000
0E0000
0E0000
0E0000
0E0000
0E0000
0E0000
FFFC00
FFFC00
FFFC00
ENDCHAR
STARTCHAR Sacute
ENCODING 346
SWIDTH 600 0
DWIDTH 20 0
BBX 15 27 2 0
BITMAP
0030
0078
01F0
03C0
0700
0200
0000
0FCC
3FFC
7FFC
F07C
E01C
E01C
F01C
F800
7F00
3FE0
0FF8
01FC
003E
E01E
E00E
E00E
F01E
FFFC
FFF8
E7E0
ENDCHAR
STARTCHAR sacute
ENCODING 347
SWIDTH 600 0
DWIDTH 20 0
BBX 15 22 3 0
BITMAP
0018
003C
00F8
01E0
0380
0100
0000
0FEC
3FFC
3FFC
783C
701C
7800
7FC0
3FF8
0FFC
E03E
E00E
F81E
FFFC
FFF8
E7E0
ENDCHAR
STARTCHAR Scircumflex
ENCODING 348
SWIDTH 600 0
DWIDTH 20 0
BBX 15 26 2 0
BITMAP
0100
0380
0FE0
1EF0
1830
0000
0FCC
3FFC
7FFC
F07C
E01C
E01C
F01C
F800
7F00
3FE0
0FF8
01FC
003E
E01E
E00E
E00E
F01E
FFFC
FFF8
E7E0
ENDCHAR
STARTCHAR scircumflex
ENCODING 349
SWIDTH 600 0
DWIDTH 20 0
BBX 15 21 3 0
BITMAP
0100
0380
0FE0
1EF0
1830
0000
0FEC
3FFC
3FFC
783C
701C
7800
7FC0
3FF8
0FFC
E03E
E00E
F81E
FFFC
FFF8
E7E0
ENDCHAR
STARTCHAR Scedilla
ENCODING 350
SWIDTH 600 0
DWIDTH 20 0
BBX 15 26 2 -6
BITMAP
0FCC
3FFC
7FFC
F07C
E01C
E01C
F01C
F800
7F00
3FE0
0FF8
01FC
003E
E01E
E00E
E00E
F01E
FFFC
FFF8
E7E0
0300
0300
0180
0F80
0F80
0700
ENDCHAR
STARTCHAR scedilla
ENCODING 351
SWIDTH 600 0
DWIDTH 20 0
BBX 15 21 3 -6
BITMAP
0FEC
3FFC
3FFC
783C
701C
7800
7FC0
3FF8
0FFC
E03E
E00E
F81E
FFFC
FFF8
E7E0
0300
0300
0180
0F80
0F80
0700
ENDCHAR
STARTCHAR Scaron
ENCODING 352
SWIDTH 600 0
DWIDTH 20 0
BBX 15 26 2 0
BITMAP
1830
1EF0
0FE0
0380
0100
0000
07C8
1FFC
3FFC
7C7C
703C
701C
701C
7000
7C00
3FC0
1FF0
07F8
007C
401C
E00E
E01E
F83C
FFFC
FFF0
4FE0
ENDCHAR
STARTCHAR scaron
ENCODING 353
SWIDTH 600 0
DWIDTH 20 0
BBX 15 21 2 0
BITMAP
1830
1EF0
0FE0
0380
0100
0000
0FE8
3FFC
3FFC
783C
701C
7800
3FE0
3FF8
0FFC
403C
E01E
F83E
FFFC
FFF8
4FE0
ENDCHAR
STARTCHAR Tcommaaccent
ENCODING 354
SWIDTH 600 0
DWIDTH 20 0
BBX 17 26 1 -6
BITMAP
FFFF80
FFFF80
FFFF80
E1C380
E1C380
E1C380
E1C380
E1C380
E1C380
01C000
01C000
01C000
01C000
01C000
01C000
01C000
01C000
3FFE00
3FFE00
3FFE00
00C000
00C000
006000
03E000
03E000
01C000
ENDCHAR
STARTCHAR tcommaaccent
ENCODING 355
SWIDTH 600 0
DWIDTH 20 0
BBX 16 26 2 -6
BITMAP
1C00
1C00
1C00
1C00
1C00
FFFC
FFFC
FFFC
1C00
1C00
1C00
1C00
1C00
1C00
1C00
1C06
1E1F
1FFF
0FFE
03F0
00C0
00C0
0060
03E0
03E0
01C0
ENDCHAR
STARTCHAR Tcaron
ENCODING 356
SWIDTH 600 0
DWIDTH 20 0
BBX 17 26 1 0
BITMAP
0C1800
0F7800
07F000
01C000
008000
000000
FFFF80
FFFF80
FFFF80
E1C380
E1C380
E1C380
E1C380
E1C380
E1C380
01C000
01C000
01C000
01C000
01C000
01C000
01C000
01C000
3FFE00
3FFE00
3FFE00
ENDCHAR
STARTCHAR tcaron
ENCODING 357
SWIDTH 600 0
DWIDTH 20 0
BBX 16 26 2 0
BITMAP
3060
3DE0
1FC0
0700
0200
0000
1C00
1C00
1C00
1C00
1C00
FFFC
FFFC
FFFC
1C00
1C00
1C00
1C00
1C00
1C00
1C00
1C06
1E1F
1FFF
0FFE
03F0
ENDCHAR
STARTCHAR Tbar
ENCODING 358
SWIDTH 600 0
DWIDTH 20 0
BBX 17 20 1 0
BITMAP
FFFF80
FFFF80
FFFF80
E1C380
E1C380
E1C380
E1C380
E1C380
FFFF80
3FFE00
3FFE00
01C000
01C000
01C000
01C000
01C000
01C000
3FFE00
3FFE00
3FFE00
ENDCHAR
STARTCHAR tbar
ENCODING 359
SWIDTH 600 0
DWIDTH 20 0
BBX 16 20 2 0
BITMAP
1C00
1C00
1C00
1C00
1C00
FFFC
FFFC
FFFC
1C00
1C00
1C00
3FFE
3FFE
3FFE
1C00
1C06
1E1F
1FFF
0FFE
03F0
ENDCHAR
STARTCHAR Utilde
ENCODING 360
SWIDTH 600 0
DWIDTH 20 0
BBX 19 24 0 0
BITMAP
03C600
07FE00
067C00
000000
FF1FE0
FF1FE0
FF1FE0
380380
380380
380380
380380
380380
380380
380380
380380
380380
380380
380380
380380
1C0700
1F1F00
0FFE00
07FC00
01F000
ENDCHAR
STARTCHAR utilde
ENCODING 361
SWIDTH 600 0
DWIDTH 20 0
BBX 18 19 1 0
BITMAP
078C00
0FFC00
0CF800
000000
FC3F00
FC3F00
FC3F00
1C0700
1C0700
1C0700
1C0700
1C0700
1C0700
1C0700
1C0700
1E1F00
1FFFC0
0FFFC0
07F7C0
ENDCHAR
STARTCHAR Umacron
ENCODING 362
SWIDTH 600 0
DWIDTH 20 0
BBX 19 23 0 0
BITMAP
07FE00
07FE00
000000
FF1FE0
FF1FE0
FF1FE0
380380
380380
380380
380380
380380
380380
380380
380380
380380
380380
380380
380380
1C0700
1F1F00
0FFE00
07FC00
01F000
ENDCHAR
STARTCHAR umacron
ENCODING 363
SWIDTH 600 0
DWIDTH 20 0
BBX 18 18 1 0
BITMAP
1FF800
1FF800
000000
FC3F00
FC3F00
FC3F00
1C0700
1C0700
1C0700
1C0700
1C0700
1C0700
1C0700
1C0700
1E1F00
1FFFC0
0FFFC0
07F7C0
ENDCHAR
STARTCHAR Ubreve
ENCODING 364
SWIDTH 600 0
DWIDTH 20 0
BBX 19 26 0 0
BITMAP
060C00
060C00
071C00
07FC00
01F000
000000
FF1FE0
FF1FE0
FF1FE0
380380
380380
380380
380380
380380
380380
380380
380380
380380
380380
380380
380380
1C0700
1F1F00
0FFE00
07FC00
01F000
ENDCHAR
STARTCHAR ubreve
ENCODING 365
SWIDTH 600 0
DWIDTH 20 0
BBX 18 21 1 0
BITMAP
0C1800
0C1800
0E3800
0FF800
03E000
000000
FC3F00
FC3F00
FC3F00
1C0700
1C0700
1C0700
1C0700
1C0700
1C0700
1C0700
1C0700
1E1F00
1FFFC0
0FFFC0
07F7C0
ENDCHAR
STARTCHAR Uring
ENCODING 366
SWIDTH 600 0
DWIDTH 20 0
BBX 19 26 0 0
BITMAP
00E000
01B000
011000
01B000
00E000
000000
FF1FE0
FF1FE0
FF1FE0
380380
380380
380380
380380
380380
380380
380380
380380
380380
380380
380380
380380
1C0700
1F1F00
0FFE00
07FC00
01F000
ENDCHAR
STARTCHAR uring
ENCODING 367
SWIDTH 600 0
DWIDTH 20 0
BBX 18 21 1 0
BITMAP
01C000
036000
022000
036000
01C000
000000
FC3F00
FC3F00
FC3F00
1C0700
1C0700
1C0700
1C0700
1C0700
1C0700
1C0700
1C0700
1E1F00
1FFFC0
0FFFC0
07F7C0
ENDCHAR
STARTCHAR Uhungarumlaut
ENCODING 368
SWIDTH 600 0
DWIDTH 20 0
BBX 19 27 0 0
BITMAP
006180
00E380
01C700
038E00
071C00
061800
000000
FF1FE0
FF1FE0
FF1FE0
380380
380380
380380
380380
380380
380380
380380
380380
380380
380380
380380
380380
1C0700
1F1F00
0FFE00
07FC00
01F000
ENDCHAR
STARTCHAR uhungarumlaut
ENCODING 369
SWIDTH 600 0
DWIDTH 20 0
BBX 18 22 1 0
BITMAP
00C300
01C700
038E00
071C00
0E3800
0C3000
000000
FC3F00
FC3F00
FC3F00
1C0700
1C0700
1C0700
1C0700
1C0700
1C0700
1C0700
1C0700
1E1F00
1FFFC0
0FFFC0
07F7C0
ENDCHAR
STARTCHAR Uogonek
ENCODING 370
SWIDTH 600 0
DWIDTH 20 0
BBX 19 26 0 -6
BITMAP
FF1FE0
FF1FE0
FF1FE0
380380
380380
380380
380380
380380
380380
380380
380380
380380
380380
380380
380380
1C0700
1F1F00
0FFE00
07FC00
01F000
01C000
018000
018000
01C000
00F800
007800
ENDCHAR
STARTCHAR uogonek
ENCODING 371
SWIDTH 600 0
DWIDTH 20 0
BBX 18 21 1 -6
BITMAP
FC3F00
FC3F00
FC3F00
1C0700
1C0700
1C0700
1C0700
1C0700
1C0700
1C0700
1C0700
1E1F00
1FFFC0
0FFFC0
07F7C0
00E000
00C000
00C000
00E000
007C00
003C00
ENDCHAR
STARTCHAR Wcircumflex
ENCODING 372
SWIDTH 600 0
DWIDTH 20 0
BBX 19 26 0 0
BITMAP
004000
00E000
03F800
07BC00
060C00
000000
FF1FE0
FF1FE0
FF1FE0
7001C0
7001C0
70E1C0
70E1C0
71F1C0
39F380
39F380
3BBB80
3BBB80
3BBB80
3F1F80
3F1F80
1E0F00
1E0F00
1E0F00
1C0700
1C0700
ENDCHAR
STARTCHAR wcircumflex
ENCODING 373
SWIDTH 600 0
DWIDTH 20 0
BBX 19 21 0 0
BITMAP
004000
00E000
03F800
07BC00
060C00
000000
FE0FE0
FE0FE0
FE0FE0
38E380
38E380
39F380
3DF780
1DF700
1FBF00
1F1F00
1F1F00
0F1E00
0E0E00
0E0E00
0E0E00
ENDCHAR
STARTCHAR Ycircumflex
ENCODING 374
SWIDTH 600 0
DWIDTH 20 0
BBX 19 26 0 0
BITMAP
004000
00E000
03F800
07BC00
060C00
000000
FF1FE0
FF1FE0
FF1FE0
3C0780
0E0E00
0F1E00
071C00
07BC00
03F800
01F000
01F000
00E000
00E000
00E000
00E000
00E000
00E000
0FFE00
0FFE00
0FFE00
ENDCHAR
STARTCHAR ycircumflex
ENCODING 375
SWIDTH 600 0
DWIDTH 20 0
BBX 19 28 1 -7
BITMAP
004000
00E000
03F800
07BC00
060C00
000000
FF1FE0
FF1FE0
FF1FE0
3C0380
1C0700
1E0700
0E0E00
0F0E00
071C00
079C00
03B800
03F800
01F000
01F000
00E000
00E000
01C000
01C000
038000
7FF000
7FF000
7FF000
ENDCHAR
STARTCHAR Ydieresis
ENCODING 376
SWIDTH 600 0
DWIDTH 20 0
BBX 17 25 1 0
BITMAP
0E1C00
0E1C00
0E1C00
000000
000000
FE3F80
FE3F80
FE3F80
3C1E00
1C1C00
1E3C00
0E3800
0F7800
07F000
03E000
03E000
01C000
01C000
01C000
01C000
01C000
01C000
1FFC00
1FFC00
1FFC00
ENDCHAR
STARTCHAR Zacute
ENCODING 377
SWIDTH 600 0
DWIDTH 20 0
BBX 15 27 2 0
BITMAP
0030
0078
01F0
03C0
0700
0200
0000
7FFC
7FFC
7FFC
703C
7038
7078
70F0
71E0
01C0
03C0
0780
0F00
0E0E
1E0E
3C0E
780E
700E
FFFE
FFFE
FFFE
ENDCHAR
STARTCHAR zacute
ENCODING 378
SWIDTH 600 0
DWIDTH 20 0
BBX 13 22 4 0
BITMAP
0060
00F0
03E0
0780
0E00
0400
0000
FFF8
FFF8
FFF8
E0F0
E1E0
E3C0
0780
0F00
1E00
3C00
7838
F038
FFF8
FFF8
FFF8
ENDCHAR
STARTCHAR Zdotaccent
ENCODING 379
SWIDTH 600 0
DWIDTH 20 0
BBX 15 24 2 0
BITMAP
0380
0380
0380
0000
7FFC
7FFC
7FFC
703C
7038
7078
70F0
71E0
01C0
03C0
0780
0F00
0E0E
1E0E
3C0E
780E
700E
FFFE
FFFE
FFFE
ENDCHAR
STARTCHAR zdotaccent
ENCODING 380
SWIDTH 600 0
DWIDTH 20 0
BBX 13 19 4 0
BITMAP
0700
0700
0700
0000
FFF8
FFF8
FFF8
E0F0
E1E0
E3C0
0780
0F00
1E00
3C00
7838
F038
FFF8
FFF8
FFF8
ENDCHAR
STARTCHAR Zcaron
ENCODING 381
SWIDTH 600 0
DWIDTH 20 0
BBX 15 26 2 0
BITMAP
1830
1EF0
0FE0
0380
0100
0000
7FFC
7FFC
7FFC
703C
7038
7078
70F0
71E0
01C0
03C0
0780
0F00
0E0E
1E0E
3C0E
780E
700E
FFFE
FFFE
FFFE
ENDCHAR
STARTCHAR zcaron
ENCODING 382
SWIDTH 600 0
DWIDTH 20 0
BBX 13 21 3 0
BITMAP
3060
3DE0
1FC0
0700
0200
0000
FFF8
FFF8
FFF8
E078
E0F0
E1E0
03C0
0780
0F00
1E00
3C38
7838
FFF8
FFF8
FFF8
ENDCHAR
STARTCHAR uni0186
ENCODING 390
SWIDTH 600 0
DWIDTH 20 0
BBX 18 20 1 0
BITMAP
0FF800
3FFE00
7FFF00
F80F80
700780
0003C0
0001C0
0001C0
0001C0
0001C0
0001C0
0001C0
0001C0
7003C0
700380
780780
7C1F00
7FFE00
7FFC00
67F000
ENDCHAR
STARTCHAR uni0189
ENCODING 393
SWIDTH 600 0
DWIDTH 20 0
BBX 17 20 2 0
BITMAP
FFE000
FFF800
FFFC00
383E00
380F00
380700
380700
380380
FF8380
FF8380
FF8380
380380
380380
380380
380700
380700
381E00
FFFE00
FFFC00
FFF000
ENDCHAR
STARTCHAR uni018E
ENCODING 398
SWIDTH 600 0
DWIDTH 20 0
BBX 17 20 1 0
BITMAP
FFFF80
FFFF80
FFFF80
E01C00
E01C00
E01C00
E01C00
071C00
071C00
07FC00
07FC00
07FC00
071C00
771C00
701C00
701C00
701C00
7FFF80
7FFF80
7FFF80
ENDCHAR
STARTCHAR florin
ENCODING 402
SWIDTH 600 0
DWIDTH 20 0
BBX 15 25 2 -4
BITMAP
007E
00FE
01FE
01C0
0380
0380
0380
0380
3FF8
3FF8
3FF8
0380
0380
0380
0380
0380
0380
0380
0380
0380
0380
0700
FF00
FE00
FC00
ENDCHAR
STARTCHAR uni0197
ENCODING 407
SWIDTH 600 0
DWIDTH 20 0
BBX 13 20 3 0
BITMAP
FFF8
FFF8
FFF8
0700
0700
0700
0700
0700
FFF8
FFF8
FFF8
0700
0700
0700
0700
0700
0700
FFF8
FFF8
FFF8
ENDCHAR
STARTCHAR uni019A
ENCODING 410
SWIDTH 600 0
DWIDTH 20 0
BBX 15 21 3 0
BITMAP
7F80
7F80
7F80
0380
0380
0380
0380
0380
0380
7FFC
7FFC
7FFC
0380
0380
0380
0380
0380
0380
FFFE
FFFE
FFFE
ENDCHAR
STARTCHAR uni019D
ENCODING 413
SWIDTH 600 0
DWIDTH 20 0
BBX 26 27 -7 -7
BITMAP
01F03FC0
01F83FC0
01FC3FC0
007C0700
007E0700
007E0700
00770700
00778700
00738700
0073C700
0071E700
0070E700
0070F700
00707700
00703F00
00703F00
00701F00
00700F00
00700F00
00700700
00700000
00700000
00700000
00F00000
FFE00000
FFC00000
FF800000
ENDCHAR
STARTCHAR uni019F
ENCODING 415
SWIDTH 600 0
DWIDTH 20 0
BBX 18 20 1 0
BITMAP
03F000
0FFC00
1FFE00
3C0F00
780780
700380
F003C0
E001C0
FFFFC0
FFFFC0
FFFFC0
E001C0
E001C0
F003C0
700380
780780
3C0F00
1FFE00
0FFC00
03F000
ENDCHAR
STARTCHAR Ohorn
ENCODING 416
SWIDTH 600 0
DWIDTH 20 0
BBX 22 20 1 0
BITMAP
03F03C
0FFC3C
1FFE78
3C0F78
7807F0
7003F0
F003E0
E001E0
E001C0
E001C0
E001C0
E001C0
E001C0
F003C0
700380
780780
3C0F00
1FFE00
0FFC00
03F000
ENDCHAR
STARTCHAR ohorn
ENCODING 417
SWIDTH 600 0
DWIDTH 20 0
BBX 21 15 2 0
BITMAP
07F078
1FFC78
3FFEF0
780FF0
7007E0
F007E0
E003C0
E003C0
E00380
F00780
700700
780F00
3FFE00
1FFC00
07F000
ENDCHAR
STARTCHAR uni01A7
ENCODING 423
SWIDTH 600 0
DWIDTH 20 0
BBX 15 20 2 0
BITMAP
67E0
7FF8
7FFC
7C1E
700E
700E
701E
003E
01FC
0FF8
3FE0
7F00
F800
F00E
E00E
E00E
F01E
7FFE
3FFE
0FCE
ENDCHAR
STARTCHAR uni01A8
ENCODING 424
SWIDTH 600 0
DWIDTH 20 0
BBX 15 15 3 0
BITMAP
6FE0
7FF8
7FF8
783C
701C
003C
07FC
3FF8
7FE0
F80E
E00E
F03E
7FFE
3FFE
0FCE
ENDCHAR
STARTCHAR uni01AE
ENCODING 430
SWIDTH 600 0
DWIDTH 20 0
BBX 19 27 1 -7
BITMAP
FFFF80
FFFF80
FFFF80
E1C380
E1C380
E1C380
E1C380
E1C380
E1C380
01C000
01C000
01C000
01C000
01C000
01C000
01C000
01C000
01C000
01C000
01C000
01C000
01C000
01C000
01E000
00FFE0
007FE0
003FE0
ENDCHAR
STARTCHAR Uhorn
ENCODING 431
SWIDTH 600 0
DWIDTH 20 0
BBX 23 20 0 0
BITMAP
FF1FFE
FF1FFE
FF1FFC
3803BC
3803B8
3803B8
3803F0
3803F0
3803E0
3803E0
380380
380380
380380
380380
380380
1C0700
1F1F00
0FFE00
07FC00
01F000
ENDCHAR
STARTCHAR uhorn
ENCODING 432
SWIDTH 600 0
DWIDTH 20 0
BBX 22 15 1 0
BITMAP
FC3F3C
FC3F3C
FC3F78
1C0778
1C0770
1C0770
1C07E0
1C07E0
1C07C0
1C07C0
1C0700
1E1F00
1FFFC0
0FFFC0
07F7C0
ENDCHAR
STARTCHAR uni01B5
ENCODING 437
SWIDTH 600 0
DWIDTH 20 0
BBX 15 20 2 0
BITMAP
7FFC
7FFC
7FFC
703C
7038
7078
70F0
71E0
7FFC
7FFC
7FFC
0F00
0E0E
1E0E
3C0E
780E
700E
FFFE
FFFE
FFFE
ENDCHAR
STARTCHAR uni01B6
ENCODING 438
SWIDTH 600 0
DWIDTH 20 0
BBX 13 15 4 0
BITMAP
FFF8
FFF8
FFF8
E0F0
E1E0
E3C0
FFF8
FFF8
FFF8
3C00
7838
F038
FFF8
FFF8
FFF8
ENDCHAR
STARTCHAR uni01BB
ENCODING 443
SWIDTH 600 0
DWIDTH 20 0
BBX 14 21 2 0
BITMAP
07C0
1FF0
3FF8
783C
701C
701C
701C
001C
0038
FFFC
FFFC
FFFC
03C0
0780
0F00
1E00
3C00
7800
FFFC
FFFC
FFFC
ENDCHAR
STARTCHAR uni01BC
ENCODING 444
SWIDTH 600 0
DWIDTH 20 0
BBX 15 21 2 0
BITMAP
3FFC
3FFC
3FFC
3800
3800
3800
3800
3FE0
3FF8
3FFC
387C
001E
000E
000E
000E
000E
401E
F03C
FFF8
7FF8
1FE0
ENDCHAR
STARTCHAR uni01C0
ENCODING 448
SWIDTH 600 0
DWIDTH 20 0
BBX 3 26 8 -5
BITMAP
E0
E0
E0
E0
E0
E0
E0
E0
E0
E0
E0
E0
E0
E0
E0
E0
E0
E0
E0
E0
E0
E0
E0
E0
E0
E0
ENDCHAR
STARTCHAR uni01C2
ENCODING 450
SWIDTH 600 0
DWIDTH 20 0
BBX 17 26 1 -3
BITMAP
01C000
01C000
01C000
01C000
01C000
01C000
01C000
01C000
01C000
FFFF80
FFFF80
FFFF80
01C000
01C000
01C000
FFFF80
FFFF80
FFFF80
01C000
01C000
01C000
01C000
01C000
01C000
01C000
01C000
ENDCHAR
STARTCHAR uni01C3
ENCODING 451
SWIDTH 600 0
DWIDTH 20 0
BBX 5 21 7 0
BITMAP
70
F8
F8
F8
F8
F8
70
70
70
70
70
70
70
70
70
20
00
00
70
F8
70
ENDCHAR
STARTCHAR uni01CD
ENCODING 461
SWIDTH 600 0
DWIDTH 20 0
BBX 21 26 -1 0
BITMAP
060C00
07BC00
03F800
00E000
004000
000000
1FF000
1FF800
1FF800
01DC00
01DC00
01DC00
038E00
038E00
038E00
070700
070700
070700
0FFF80
0FFF80
1FFFC0
1C01C0
1C01C0
FF8FF8
FF8FF8
FF8FF8
ENDCHAR
STARTCHAR uni01CE
ENCODING 462
SWIDTH 600 0
DWIDTH 20 0
BBX 16 21 2 0
BITMAP
1830
1EF0
0FE0
0380
0100
0000
1FE0
7FF8
7FFC
703C
001C
001C
0FFC
7FFC
7FFC
F01C
E01C
E07C
FFFF
7FDF
3F9F
ENDCHAR
STARTCHAR uni01CF
ENCODING 463
SWIDTH 600 0
DWIDTH 20 0
BBX 13 26 3 0
BITMAP
3060
3DE0
1FC0
0700
0200
0000
FFF8
FFF8
FFF8
0700
0700
0700
0700
0700
0700
0700
0700
0700
0700
0700
0700
0700
0700
FFF8
FFF8
FFF8
ENDCHAR
STARTCHAR uni01D0
ENCODING 464
SWIDTH 600 0
DWIDTH 20 0
BBX 15 21 2 0
BITMAP
3060
3DE0
1FC0
0700
0200
0000
7F80
7F80
7F80
0380
0380
0380
0380
0380
0380
0380
0380
0380
FFFE
FFFE
FFFE
ENDCHAR
STARTCHAR uni01D1
ENCODING 465
SWIDTH 600 0
DWIDTH 20 0
BBX 18 26 1 0
BITMAP
060C00
07BC00
03F800
00E000
004000
000000
03F000
0FFC00
1FFE00
3C0F00
780780
700380
F003C0
E001C0
E001C0
E001C0
E001C0
E001C0
E001C0
F003C0
700380
780780
3C0F00
1FFE00
0FFC00
03F000
ENDCHAR
STARTCHAR uni01D2
ENCODING 466
SWIDTH 600 0
DWIDTH 20 0
BBX 17 21 2 0
BITMAP
0C1800
0F7800
07F000
01C000
008000
000000
07F000
1FFC00
3FFE00
780F00
700700
F00780
E00380
E00380
E00380
F00780
700700
780F00
3FFE00
1FFC00
07F000
ENDCHAR
STARTCHAR uni01D3
ENCODING 467
SWIDTH 600 0
DWIDTH 20 0
BBX 19 26 0 0
BITMAP
060C00
07BC00
03F800
00E000
004000
000000
FF1FE0
FF1FE0
FF1FE0
380380
380380
380380
380380
380380
380380
380380
380380
380380
380380
380380
380380
1C0700
1F1F00
0FFE00
07FC00
01F000
ENDCHAR
STARTCHAR uni01D4
ENCODING 468
SWIDTH 600 0
DWIDTH 20 0
BBX 18 21 1 0
BITMAP
0C1800
0F7800
07F000
01C000
008000
000000
FC3F00
FC3F00
FC3F00
1C0700
1C0700
1C0700
1C0700
1C0700
1C0700
1C0700
1C0700
1E1F00
1FFFC0
0FFFC0
07F7C0
ENDCHAR
STARTCHAR uni01D5
ENCODING 469
SWIDTH 600 0
DWIDTH 20 0
BBX 19 29 0 0
BITMAP
07FE00
07FE00
000000
060C00
0F1E00
0F1E00
060C00
000000
000000
FFBFE0
FFBFE0
FFBFE0
380380
380380
380380
380380
380380
380380
380380
380380
380380
380380
380380
380380
1C0780
1F1F00
0FFE00
07FC00
01F800
ENDCHAR
STARTCHAR uni01D6
ENCODING 470
SWIDTH 600 0
DWIDTH 20 0
BBX 18 24 0 0
BITMAP
0FFC00
0FFC00
000000
0C1800
1E3C00
1E3C00
0C1800
000000
000000
FC3F00
FC3F00
FC3F00
1C0700
1C0700
1C0700
1C0700
1C0700
1C0700
1C0700
1C0F00
1C1F00
1FFFC0
0FF7C0
07E7C0
ENDCHAR
STARTCHAR uni01D7
ENCODING 471
SWIDTH 600 0
DWIDTH 20 0
BBX 19 33 0 0
BITMAP
000C00
001E00
007C00
00F000
01C000
008000
000000
060C00
0F1E00
0F1E00
060C00
000000
000000
FFBFE0
FFBFE0
FFBFE0
380380
380380
380380
380380
380380
380380
380380
380380
380380
380380
380380
380380
1C0780
1F1F00
0FFE00
07FC00
01F800
ENDCHAR
STARTCHAR uni01D8
ENCODING 472
SWIDTH 600 0
DWIDTH 20 0
BBX 18 28 0 0
BITMAP
001800
003C00
00F800
01E000
038000
010000
000000
0C1800
1E3C00
1E3C00
0C1800
000000
000000
FC3F00
FC3F00
FC3F00
1C0700
1C0700
1C0700
1C0700
1C0700
1C0700
1C0700
1C0F00
1C1F00
1FFFC0
0FF7C0
07E7C0
ENDCHAR
STARTCHAR uni01D9
ENCODING 473
SWIDTH 600 0
DWIDTH 20 0
BBX 19 32 0 0
BITMAP
060C00
07BC00
03F800
00E000
004000
000000
060C00
0F1E00
0F1E00
060C00
000000
000000
FFBFE0
FFBFE0
FFBFE0
380380
380380
380380
380380
380380
380380
380380
380380
380380
380380
380380
380380
1C0780
1F1F00
0FFE00
07FC00
01F800
ENDCHAR
STARTCHAR uni01DA
ENCODING 474
SWIDTH 600 0
DWIDTH 20 0
BBX 18 27 0 0
BITMAP
0C1800
0F7800
07F000
01C000
008000
000000
0C1800
1E3C00
1E3C00
0C1800
000000
000000
FC3F00
FC3F00
FC3F00
1C0700
1C0700
1C0700
1C0700
1C0700
1C0700
1C0700
1C0F00
1C1F00
1FFFC0
0FF7C0
07E7C0
ENDCHAR
STARTCHAR uni01DB
ENCODING 475
SWIDTH 600 0
DWIDTH 20 0
BBX 19 33 0 0
BITMAP
060000
070000
038000
01C000
00E000
006000
000000
060C00
0F1E00
0F1E00
060C00
000000
000000
FFBFE0
FFBFE0
FFBFE0
380380
380380
380380
380380
380380
380380
380380
380380
380380
380380
380380
380380
1C0780
1F1F00
0FFE00
07FC00
01F800
ENDCHAR
STARTCHAR uni01DC
ENCODING 476
SWIDTH 600 0
DWIDTH 20 0
BBX 18 28 0 0
BITMAP
060000
070000
038000
01C000
00E000
006000
000000
0C1800
1E3C00
1E3C00
0C1800
000000
000000
FC3F00
FC3F00
FC3F00
1C0700
1C0700
1C0700
1C0700
1C0700
1C0700
1C0700
1C0F00
1C1F00
1FFFC0
0FF7C0
07E7C0
ENDCHAR
STARTCHAR uni01DD
ENCODING 477
SWIDTH 600 0
DWIDTH 20 0
BBX 18 15 1 0
BITMAP
1FF800
7FFE00
FFFF00
701F80
000780
0003C0
7FFFC0
7FFFC0
7FFFC0
700380
780780
3E1F00
1FFE00
0FFC00
03F000
ENDCHAR
STARTCHAR uni01DE
ENCODING 478
SWIDTH 600 0
DWIDTH 20 0
BBX 21 28 -1 0
BITMAP
0FFC00
0FFC00
000000
0C1800
1E3C00
1E3C00
0C1800
000000
1FF000
1FF800
1FF800
01FC00
01DC00
01DC00
03DE00
038E00
038E00
070700
070700
070700
0FFF80
0FFF80
1FFFC0
1C01C0
1C01C0
FF8FF8
FF8FF8
FF8FF8
ENDCHAR
STARTCHAR uni01DF
ENCODING 479
SWIDTH 600 0
DWIDTH 20 0
BBX 17 24 2 0
BITMAP
0FFC00
0FFC00
000000
0C1800
1E3C00
1E3C00
0C1800
000000
000000
0FE000
3FF000
3FF800
383C00
001C00
001C00
0FFC00
3FFC00
7FFC00
781C00
F01C00
E07C00
FFFF80
7FDF80
3F9F80
ENDCHAR
STARTCHAR uni01E0
ENCODING 480
SWIDTH 600 0
DWIDTH 20 0
BBX 21 27 -1 0
BITMAP
0FFC00
0FFC00
000000
00E000
00E000
00E000
000000
1FF000
1FF800
1FF800
01DC00
01DC00
01DC00
038E00
038E00
038E00
070700
070700
070700
0FFF80
0FFF80
1FFFC0
1C01C0
1C01C0
FF8FF8
FF8FF8
FF8FF8
ENDCHAR
STARTCHAR uni01E1
ENCODING 481
SWIDTH 600 0
DWIDTH 20 0
BBX 16 22 2 0
BITMAP
1FF8
1FF8
0000
0380
0380
0380
0000
1FE0
7FF8
7FFC
703C
001C
001C
0FFC
7FFC
7FFC
F01C
E01C
E07C
FFFF
7FDF
3F9F
ENDCHAR
STARTCHAR uni01E2
ENCODING 482
SWIDTH 600 0
DWIDTH 20 0
BBX 20 23 0 0
BITMAP
03FF00
03FF00
000000
1FFFE0
1FFFE0
1FFFE0
0770E0
0770E0
0670E0
0E70E0
0E7300
0E7300
0E7F00
1C7F00
1C7300
1FF300
1FF300
387070
387070
387070
FFFFF0
FFFFF0
FFFFF0
ENDCHAR
STARTCHAR uni01E3
ENCODING 483
SWIDTH 600 0
DWIDTH 20 0
BBX 20 18 -1 0
BITMAP
07FE00
07FE00
000000
0F8700
3FFFC0
3FFFC0
38FDE0
007070
03F070
1FFFF0
7FFFF0
FFFFF0
F07000
E07800
F1F870
7FFFF0
3FFFF0
1F2780
ENDCHAR
STARTCHAR uni01E4
ENCODING 484
SWIDTH 600 0
DWIDTH 20 0
BBX 21 20 2 0
BITMAP
03F300
0FFF00
1FFF00
3C0F00
780700
700700
F00700
E00000
E00000
E00000
E00000
E0FF80
E0FF80
E0FFF8
F0FFF8
70FFF8
7C0F00
3FFF00
1FFE00
07F800
ENDCHAR
STARTCHAR uni01E5
ENCODING 485
SWIDTH 600 0
DWIDTH 20 0
BBX 18 22 1 -7
BITMAP
07CFC0
1FFFC0
3FFFC0
7C7E00
701E00
F01E00
E00E00
E00E00
E00E00
F01E00
701E00
787E00
3FFE00
1FEE00
0FCE00
FFFFC0
FFFFC0
FFFFC0
003C00
1FFC00
1FF800
1FE000
ENDCHAR
STARTCHAR Gcaron
ENCODING 486
SWIDTH 600 0
DWIDTH 20 0
BBX 17 26 2 0
BITMAP
060C00
07BC00
03F800
00E000
004000
000000
03F300
0FFF00
1FFF00
3C0F00
780700
700700
F00700
E00000
E00000
E00000
E00000
E0FF80
E0FF80
E0FF80
F00700
700700
7C0F00
3FFF00
1FFE00
07F800
ENDCHAR
STARTCHAR gcaron
ENCODING 487
SWIDTH 600 0
DWIDTH 20 0
BBX 18 28 1 -7
BITMAP
060C00
07BC00
03F800
00E000
004000
000000
07CFC0
1FFFC0
3FFFC0
7C7E00
701E00
F01E00
E00E00
E00E00
E00E00
F01E00
701E00
787E00
3FFE00
1FEE00
0FCE00
000E00
000E00
001E00
003C00
1FFC00
1FF800
1FE000
ENDCHAR
STARTCHAR uni01E8
ENCODING 488
SWIDTH 600 0
DWIDTH 20 0
BBX 19 26 1 0
BITMAP
060C00
07BC00
03F800
00E000
004000
000000
FF9FC0
FF9FC0
FF9FC0
1C0F00
1C1E00
1C3C00
1C7800
1CF000
1FE000
1FF000
1FF800
1E7C00
1C3C00
1C1E00
1C0E00
1C0F00
1C0700
FF87E0
FF87E0
FF87E0
ENDCHAR
STARTCHAR uni01E9
ENCODING 489
SWIDTH 600 0
DWIDTH 20 0
BBX 17 27 1 0
BITMAP
60C000
7BC000
3F8000
0E0000
040000
000000
FC0000
FC0000
FC0000
1C0000
1C0000
1C0000
1CFF00
1CFF00
1CFF00
1C7800
1CF000
1DE000
1FC000
1FC000
1FE000
1DF000
1CF800
1C7C00
FC3F80
FC3F80
FC3F80
ENDCHAR
STARTCHAR uni01EA
ENCODING 490
SWIDTH 600 0
DWIDTH 20 0
BBX 18 26 1 -6
BITMAP
03F000
0FFC00
1FFE00
3C0F00
780780
700380
F003C0
E001C0
E001C0
E001C0
E001C0
E001C0
E001C0
F003C0
700380
780780
3C0F00
1FFE00
0FFC00
03F000
01C000
018000
018000
01C000
00F800
007800
ENDCHAR
STARTCHAR uni01EB
ENCODING 491
SWIDTH 600 0
DWIDTH 20 0
BBX 17 21 2 -6
BITMAP
07F000
1FFC00
3FFE00
780F00
700700
F00780
E00380
E00380
E00380
F00780
700700
780F00
3FFE00
1FFC00
07F000
038000
030000
030000
038000
01F000
00F000
ENDCHAR
STARTCHAR uni01EC
ENCODING 492
SWIDTH 600 0
DWIDTH 20 0
BBX 18 29 1 -6
BITMAP
0FFC00
0FFC00
000000
03F000
0FFC00
1FFE00
3C0F00
780780
700380
F003C0
E001C0
E001C0
E001C0
E001C0
E001C0
E001C0
F003C0
700380
780780
3C0F00
1FFE00
0FFC00
03F000
01C000
018000
018000
01C000
00F800
007800
ENDCHAR
STARTCHAR uni01ED
ENCODING 493
SWIDTH 600 0
DWIDTH 20 0
BBX 17 24 2 -6
BITMAP
0FFC00
0FFC00
000000
07F000
1FFC00
3FFE00
780F00
700700
F00780
E00380
E00380
E00380
F00780
700700
780F00
3FFE00
1FFC00
07F000
038000
030000
030000
038000
01F000
00F000
ENDCHAR
STARTCHAR uni01F0
ENCODING 496
SWIDTH 600 0
DWIDTH 20 0
BBX 12 28 3 -7
BITMAP
3060
3DE0
1FC0
0700
0200
0000
FFF0
FFF0
FFF0
0070
0070
0070
0070
0070
0070
0070
0070
0070
0070
0070
0070
0070
0070
0070
00F0
FFE0
FFC0
FF80
ENDCHAR
STARTCHAR uni01F4
ENCODING 500
SWIDTH 600 0
DWIDTH 20 0
BBX 17 27 2 0
BITMAP
000C00
001E00
007C00
00F000
01C000
008000
000000
03F300
0FFF00
1FFF00
3C0F00
780700
700700
F00700
E00000
E00000
E00000
E00000
E0FF80
E0FF80
E0FF80
F00700
700700
7C0F00
3FFF00
1FFE00
07F800
ENDCHAR
STARTCHAR uni01F5
ENCODING 501
SWIDTH 600 0
DWIDTH 20 0
BBX 18 29 1 -7
BITMAP
000C00
001E00
007C00
00F000
01C000
008000
000000
07CFC0
1FFFC0
3FFFC0
7C7E00
701E00
F01E00
E00E00
E00E00
E00E00
F01E00
701E00
787E00
3FFE00
1FEE00
0FCE00
000E00
000E00
001E00
003C00
1FFC00
1FF800
1FE000
ENDCHAR
STARTCHAR uni01F8
ENCODING 504
SWIDTH 600 0
DWIDTH 20 0
BBX 19 27 0 0
BITMAP
060000
070000
038000
01C000
00E000
006000
000000
F81FE0
FC1FE0
FE1FE0
3E0380
3F0380
3F0380
3B8380
3BC380
39C380
39E380
38F380
387380
387B80
383B80
381F80
381F80
380F80
FF0780
FF0780
FF0380
ENDCHAR
STARTCHAR uni01F9
ENCODING 505
SWIDTH 600 0
DWIDTH 20 0
BBX 17 22 2 0
BITMAP
180000
1C0000
0E0000
070000
038000
018000
000000
F9F000
FBF800
FFFC00
3E1E00
3C0E00
380E00
380E00
380E00
380E00
380E00
380E00
380E00
FE3F80
FE3F80
FE3F80
ENDCHAR
STARTCHAR Aringacute
ENCODING 506
SWIDTH 600 0
DWIDTH 20 0
BBX 21 33 -1 0
BITMAP
000C00
001E00
007C00
00F000
01C000
008000
000000
00F000
019800
010800
019800
00F000
000000
1FF000
1FF800
1FF800
01FC00
01DC00
01DC00
03DE00
038E00
038E00
070700
070700
070700
0FFF80
0FFF80
1FFFC0
1C01C0
1C01C0
FF8FF8
FF8FF8
FF8FF8
ENDCHAR
STARTCHAR aringacute
ENCODING 507
SWIDTH 600 0
DWIDTH 20 0
BBX 17 28 1 0
BITMAP
001800
003C00
00F800
01E000
038000
010000
000000
03C000
066000
042000
066000
03C000
000000
0FE000
3FF000
3FF800
383C00
001C00
001C00
0FFC00
3FFC00
7FFC00
781C00
F01C00
E07C00
FFFF80
7FDF80
3F9F80
ENDCHAR
STARTCHAR AEacute
ENCODING 508
SWIDTH 600 0
DWIDTH 20 0
BBX 20 27 0 0
BITMAP
000600
000F00
003E00
007800
00E000
004000
000000
1FFFE0
1FFFE0
1FFFE0
0770E0
0770E0
0670E0
0E70E0
0E7300
0E7300
0E7F00
1C7F00
1C7300
1FF300
1FF300
387070
387070
387070
FFFFF0
FFFFF0
FFFFF0
ENDCHAR
STARTCHAR aeacute
ENCODING 509
SWIDTH 600 0
DWIDTH 20 0
BBX 20 22 -1 0
BITMAP
000600
000F00
003E00
007800
00E000
004000
000000
0F8700
3FFFC0
3FFFC0
38FDE0
007070
03F070
1FFFF0
7FFFF0
FFFFF0
F07000
E07800
F1F870
7FFFF0
3FFFF0
1F2780
ENDCHAR
STARTCHAR Oslashacute
ENCODING 510
SWIDTH 600 0
DWIDTH 20 0
BBX 17 30 1 -2
BITMAP
000C00
001E00
007C00
00F000
01C000
008000
000000
000380
03E380
0FFF80
1FFF00
3E3E00
381E00
783F00
707F00
E07B80
E0F380
E1E380
E1C380
E3C380
E78380
FF0780
7E0700
7E0F00
3C1E00
7FFC00
7FF800
F7F000
E00000
E00000
ENDCHAR
STARTCHAR oslashacute
ENCODING 511
SWIDTH 600 0
DWIDTH 20 0
BBX 17 25 1 -2
BITMAP
000C00
001E00
007C00
00F000
01C000
008000
000000
000380
03E380
0FFF80
3FFF00
3E3E00
783F00
707F00
E0F380
E1E380
E3C380
E78380
7F0700
7E1F00
3FFE00
7FFC00
F7F000
E00000
E00000
ENDCHAR
STARTCHAR uni0200
ENCODING 512
SWIDTH 600 0
DWIDTH 20 0
BBX 21 27 -1 0
BITMAP
30C000
38E000
1C7000
0E3800
071C00
030C00
000000
1FF000
1FF800
1FF800
01DC00
01DC00
01DC00
038E00
038E00
038E00
070700
070700
070700
0FFF80
0FFF80
1FFFC0
1C01C0
1C01C0
FF8FF8
FF8FF8
FF8FF8
ENDCHAR
STARTCHAR uni0201
ENCODING 513
SWIDTH 600 0
DWIDTH 20 0
BBX 16 22 2 0
BITMAP
C300
E380
71C0
38E0
1C70
0C30
0000
1FE0
7FF8
7FFC
703C
001C
001C
0FFC
7FFC
7FFC
F01C
E01C
E07C
FFFF
7FDF
3F9F
ENDCHAR
STARTCHAR uni0202
ENCODING 514
SWIDTH 600 0
DWIDTH 20 0
BBX 21 26 -1 0
BITMAP
01F000
07FC00
071C00
060C00
060C00
000000
1FF000
1FF800
1FF800
01DC00
01DC00
01DC00
038E00
038E00
038E00
070700
070700
070700
0FFF80
0FFF80
1FFFC0
1C01C0
1C01C0
FF8FF8
FF8FF8
FF8FF8
ENDCHAR
STARTCHAR uni0203
ENCODING 515
SWIDTH 600 0
DWIDTH 20 0
BBX 16 21 2 0
BITMAP
07C0
1FF0
1C70
1830
1830
0000
1FE0
7FF8
7FFC
703C
001C
001C
0FFC
7FFC
7FFC
F01C
E01C
E07C
FFFF
7FDF
3F9F
ENDCHAR
STARTCHAR uni0204
ENCODING 516
SWIDTH 600 0
DWIDTH 20 0
BBX 17 27 1 0
BITMAP
618000
71C000
38E000
1C7000
0E3800
061800
000000
FFFF00
FFFF00
FFFF00
1C0700
1C0700
1C0700
1C7700
1C7000
1FF000
1FF000
1FF000
1C7000
1C7000
1C0380
1C0380
1C0380
1C0380
FFFF80
FFFF80
FFFF80
ENDCHAR
STARTCHAR uni0205
ENCODING 517
SWIDTH 600 0
DWIDTH 20 0
BBX 18 22 1 0
BITMAP
30C000
38E000
1C7000
0E3800
071C00
030C00
000000
03F000
0FFC00
1FFE00
3E1F00
780780
700380
FFFF80
FFFF80
FFFF80
F00000
780000
7E0380
3FFFC0
1FFF80
07FE00
ENDCHAR
STARTCHAR uni0206
ENCODING 518
SWIDTH 600 0
DWIDTH 20 0
BBX 17 26 1 0
BITMAP
03E000
0FF800
0E3800
0C1800
0C1800
000000
FFFF00
FFFF00
FFFF00
1C0700
1C0700
1C0700
1C7700
1C7000
1FF000
1FF000
1FF000
1C7000
1C7000
1C0380
1C0380
1C0380
1C0380
FFFF80
FFFF80
FFFF80
ENDCHAR
STARTCHAR uni0207
ENCODING 519
SWIDTH 600 0
DWIDTH 20 0
BBX 18 21 1 0
BITMAP
01F000
07FC00
071C00
060C00
060C00
000000
03F000
0FFC00
1FFE00
3E1F00
780780
700380
FFFF80
FFFF80
FFFF80
F00000
780000
7E0380
3FFFC0
1FFF80
07FE00
ENDCHAR
STARTCHAR uni0208
ENCODING 520
SWIDTH 600 0
DWIDTH 20 0
BBX 14 27 2 0
BITMAP
C300
E380
71C0
38E0
1C70
0C30
0000
7FFC
7FFC
7FFC
0380
0380
0380
0380
0380
0380
0380
0380
0380
0380
0380
0380
0380
0380
7FFC
7FFC
7FFC
ENDCHAR
STARTCHAR uni0209
ENCODING 521
SWIDTH 600 0
DWIDTH 20 0
BBX 16 22 1 0
BITMAP
C300
E380
71C0
38E0
1C70
0C30
0000
3FC0
3FC0
3FC0
01C0
01C0
01C0
01C0
01C0
01C0
01C0
01C0
01C0
7FFF
7FFF
7FFF
ENDCHAR
STARTCHAR uni020A
ENCODING 522
SWIDTH 600 0
DWIDTH 20 0
BBX 13 26 3 0
BITMAP
0F80
3FE0
38E0
3060
3060
0000
FFF8
FFF8
FFF8
0700
0700
0700
0700
0700
0700
0700
0700
0700
0700
0700
0700
0700
0700
FFF8
FFF8
FFF8
ENDCHAR
STARTCHAR uni020B
ENCODING 523
SWIDTH 600 0
DWIDTH 20 0
BBX 15 21 2 0
BITMAP
0F80
3FE0
38E0
3060
3060
0000
7F80
7F80
7F80
0380
0380
0380
0380
0380
0380
0380
0380
0380
FFFE
FFFE
FFFE
ENDCHAR
STARTCHAR uni020C
ENCODING 524
SWIDTH 600 0
DWIDTH 20 0
BBX 18 27 1 0
BITMAP
30C000
38E000
1C7000
0E3800
071C00
030C00
000000
03F000
0FFC00
1FFE00
3C0F00
780780
700380
F003C0
E001C0
E001C0
E001C0
E001C0
E001C0
E001C0
F003C0
700380
780780
3C0F00
1FFE00
0FFC00
03F000
ENDCHAR
STARTCHAR uni020D
ENCODING 525
SWIDTH 600 0
DWIDTH 20 0
BBX 17 22 2 0
BITMAP
618000
71C000
38E000
1C7000
0E3800
061800
000000
07F000
1FFC00
3FFE00
780F00
700700
F00780
E00380
E00380
E00380
F00780
700700
780F00
3FFE00
1FFC00
07F000
ENDCHAR
STARTCHAR uni020E
ENCODING 526
SWIDTH 600 0
DWIDTH 20 0
BBX 18 26 1 0
BITMAP
01F000
07FC00
071C00
060C00
060C00
000000
03F000
0FFC00
1FFE00
3C0F00
780780
700380
F003C0
E001C0
E001C0
E001C0
E001C0
E001C0
E001C0
F003C0
700380
780780
3C0F00
1FFE00
0FFC00
03F000
ENDCHAR
STARTCHAR uni020F
ENCODING 527
SWIDTH 600 0
DWIDTH 20 0
BBX 17 21 2 0
BITMAP
03E000
0FF800
0E3800
0C1800
0C1800
000000
07F000
1FFC00
3FFE00
780F00
700700
F00780
E00380
E00380
E00380
F00780
700700
780F00
3FFE00
1FFC00
07F000
ENDCHAR
STARTCHAR uni0210
ENCODING 528
SWIDTH 600 0
DWIDTH 20 0
BBX 20 27 1 0
BITMAP
30C000
38E000
1C7000
0E3800
071C00
030C00
000000
FFF800
FFFE00
FFFF00
1C0F00
1C0780
1C0380
1C0380
1C0780
1C0F00
1FFE00
1FFC00
1FF800
1C3C00
1C1E00
1C0F00
1C0780
1C03C0
FF83F0
FF81F0
FF81F0
ENDCHAR
STARTCHAR uni0211
ENCODING 529
SWIDTH 600 0
DWIDTH 20 0
BBX 17 22 2 0
BITMAP
30C000
38E000
1C7000
0E3800
071C00
030C00
000000
7E3E00
7EFF00
7FFF80
0FC700
0F0200
0F0000
0E0000
0E0000
0E0000
0E0000
0E0000
0E0000
FFFC00
FFFC00
FFFC00
ENDCHAR
STARTCHAR uni0212
ENCODING 530
SWIDTH 600 0
DWIDTH 20 0
BBX 20 26 1 0
BITMAP
03E000
0FF800
0E3800
0C1800
0C1800
000000
FFF800
FFFE00
FFFF00
1C0F00
1C0780
1C0380
1C0380
1C0780
1C0F00
1FFE00
1FFC00
1FF800
1C3C00
1C1E00
1C0F00
1C0780
1C03C0
FF83F0
FF81F0
FF81F0
ENDCHAR
STARTCHAR uni0213
ENCODING 531
SWIDTH 600 0
DWIDTH 20 0
BBX 17 21 2 0
BITMAP
03E000
0FF800
0E3800
0C1800
0C1800
000000
7E3E00
7EFF00
7FFF80
0FC700
0F0200
0F0000
0E0000
0E0000
0E0000
0E0000
0E0000
0E0000
FFFC00
FFFC00
FFFC00
ENDCHAR
STARTCHAR uni0214
ENCODING 532
SWIDTH 600 0
DWIDTH 20 0
BBX 19 27 0 0
BITMAP
30C000
38E000
1C7000
0E3800
071C00
030C00
000000
FF1FE0
FF1FE0
FF1FE0
380380
380380
380380
380380
380380
380380
380380
380380
380380
380380
380380
380380
1C0700
1F1F00
0FFE00
07FC00
01F000
ENDCHAR
STARTCHAR uni0215
ENCODING 533
SWIDTH 600 0
DWIDTH 20 0
BBX 18 22 1 0
BITMAP
618000
71C000
38E000
1C7000
0E3800
061800
000000
FC3F00
FC3F00
FC3F00
1C0700
1C0700
1C0700
1C0700
1C0700
1C0700
1C0700
1C0700
1E1F00
1FFFC0
0FFFC0
07F7C0
ENDCHAR
STARTCHAR uni0216
ENCODING 534
SWIDTH 600 0
DWIDTH 20 0
BBX 19 26 0 0
BITMAP
01F000
07FC00
071C00
060C00
060C00
000000
FF1FE0
FF1FE0
FF1FE0
380380
380380
380380
380380
380380
380380
380380
380380
380380
380380
380380
380380
1C0700
1F1F00
0FFE00
07FC00
01F000
ENDCHAR
STARTCHAR uni0217
ENCODING 535
SWIDTH 600 0
DWIDTH 20 0
BBX 18 21 1 0
BITMAP
03E000
0FF800
0E3800
0C1800
0C1800
000000
FC3F00
FC3F00
FC3F00
1C0700
1C0700
1C0700
1C0700
1C0700
1C0700
1C0700
1C0700
1E1F00
1FFFC0
0FFFC0
07F7C0
ENDCHAR
STARTCHAR Scommaaccent
ENCODING 536
SWIDTH 600 0
DWIDTH 20 0
BBX 15 31 2 -11
BITMAP
0FCC
3FFC
7FFC
F07C
E01C
E01C
F01C
F800
7F00
3FE0
0FF8
01FC
003E
E01E
E00E
E00E
F01E
FFFC
FFF8
E7E0
0000
03C0
03C0
0780
0780
0700
0E00
0E00
1C00
1C00
1800
ENDCHAR
STARTCHAR scommaaccent
ENCODING 537
SWIDTH 600 0
DWIDTH 20 0
BBX 15 26 3 -11
BITMAP
0FEC
3FFC
3FFC
783C
701C
7800
7FC0
3FF8
0FFC
E03E
E00E
F81E
FFFC
FFF8
E7E0
0000
03C0
03C0
0780
0780
0700
0E00
0E00
1C00
1C00
1800
ENDCHAR
STARTCHAR Tcommaaccent
ENCODING 538
SWIDTH 600 0
DWIDTH 20 0
BBX 17 31 1 -11
BITMAP
FFFF80
FFFF80
FFFF80
E1C380
E1C380
E1C380
E1C380
E1C380
E1C380
01C000
01C000
01C000
01C000
01C000
01C000
01C000
01C000
3FFE00
3FFE00
3FFE00
000000
01E000
01E000
03C000
03C000
038000
070000
070000
0E0000
0E0000
0C0000
ENDCHAR
STARTCHAR tcommaaccent
ENCODING 539
SWIDTH 600 0
DWIDTH 20 0
BBX 16 31 2 -11
BITMAP
1C00
1C00
1C00
1C00
1C00
FFFC
FFFC
FFFC
1C00
1C00
1C00
1C00
1C00
1C00
1C00
1C06
1E1F
1FFF
0FFE
03F0
0000
01E0
01E0
03C0
03C0
0380
0700
0700
0E00
0E00
0C00
ENDCHAR
STARTCHAR uni021E
ENCODING 542
SWIDTH 600 0
DWIDTH 20 0
BBX 17 26 1 0
BITMAP
0C1800
0F7800
07F000
01C000
008000
000000
FF7F80
FF7F80
FF7F80
380E00
380E00
380E00
380E00
380E00
3FFE00
3FFE00
3FFE00
380E00
380E00
380E00
380E00
380E00
380E00
FF7F80
FF7F80
FF7F80
ENDCHAR
STARTCHAR uni021F
ENCODING 543
SWIDTH 600 0
DWIDTH 20 0
BBX 18 27 1 0
BITMAP
60C000
7BC000
3F8000
0E0000
040000
000000
FC0000
FC0000
FC0000
1C0000
1C0000
1C0000
1CF800
1DFC00
1FFE00
1F0F00
1E0700
1C0700
1C0700
1C0700
1C0700
1C0700
1C0700
1C0700
7F1FC0
7F1FC0
7F1FC0
ENDCHAR
STARTCHAR uni0226
ENCODING 550
SWIDTH 600 0
DWIDTH 20 0
BBX 21 24 -1 0
BITMAP
00E000
00E000
00E000
000000
1FF000
1FF800
1FF800
01DC00
01DC00
01DC00
038E00
038E00
038E00
070700
070700
070700
0FFF80
0FFF80
1FFFC0
1C01C0
1C01C0
FF8FF8
FF8FF8
FF8FF8
ENDCHAR
STARTCHAR uni0227
ENCODING 551
SWIDTH 600 0
DWIDTH 20 0
BBX 16 19 2 0
BITMAP
0380
0380
0380
0000
1FE0
7FF8
7FFC
703C
001C
001C
0FFC
7FFC
7FFC
F01C
E01C
E07C
FFFF
7FDF
3F9F
ENDCHAR
STARTCHAR uni0228
ENCODING 552
SWIDTH 600 0
DWIDTH 20 0
BBX 17 26 1 -6
BITMAP
FFFF00
FFFF00
FFFF00
1C0700
1C0700
1C0700
1C7700
1C7000
1FF000
1FF000
1FF000
1C7000
1C7000
1C0380
1C0380
1C0380
1C0380
FFFF80
FFFF80
FFFF80
00C000
00C000
006000
03E000
03E000
01C000
ENDCHAR
STARTCHAR uni0229
ENCODING 553
SWIDTH 600 0
DWIDTH 20 0
BBX 18 21 1 -6
BITMAP
03F000
0FFC00
1FFE00
3E1F00
780780
700380
FFFF80
FFFF80
FFFF80
F00000
780000
7E0380
3FFFC0
1FFF80
07FE00
006000
006000
003000
01F000
01F000
00E000
ENDCHAR
STARTCHAR uni022A
ENCODING 554
SWIDTH 600 0
DWIDTH 20 0
BBX 17 28 1 0
BITMAP
0FFC00
0FFC00
000000
0C1800
1E3C00
1E3C00
0C1800
000000
07F000
0FFC00
1FFC00
3C1E00
780F00
700700
700700
E00380
E00380
E00380
E00380
E00380
E00380
700700
780700
380E00
3E3E00
1FFC00
0FF800
03E000
ENDCHAR
STARTCHAR uni022B
ENCODING 555
SWIDTH 600 0
DWIDTH 20 0
BBX 17 24 1 0
BITMAP
0FFC00
0FFC00
000000
0C1800
1E3C00
1E3C00
0C1800
000000
000000
07F000
0FF800
3FFE00
3C1E00
780F00
F00780
E00380
E00380
E00380
F00780
780F00
7C1F00
3FFE00
1FFC00
07F000
ENDCHAR
STARTCHAR uni022C
ENCODING 556
SWIDTH 600 0
DWIDTH 20 0
BBX 17 28 1 0
BITMAP
0FFC00
0FFC00
000000
070C00
0FCC00
0CEC00
0C3800
000000
07F000
0FFC00
1FFC00
3C1E00
780F00
700700
700700
E00380
E00380
E00380
E00380
E00380
E00380
700700
780700
380E00
3E3E00
1FFC00
0FF800
03E000
ENDCHAR
STARTCHAR uni022D
ENCODING 557
SWIDTH 600 0
DWIDTH 20 0
BBX 17 24 1 0
BITMAP
0FFC00
0FFC00
000000
070C00
0FCC00
0CFC00
0C3800
000000
000000
07F000
0FF800
3FFE00
3C1E00
780F00
F00780
E00380
E00380
E00380
F00780
780F00
7C1F00
3FFE00
1FFC00
07F000
ENDCHAR
STARTCHAR uni022E
ENCODING 558
SWIDTH 600 0
DWIDTH 20 0
BBX 18 24 1 0
BITMAP
00E000
00E000
00E000
000000
03F000
0FFC00
1FFE00
3C0F00
780780
700380
F003C0
E001C0
E001C0
E001C0
E001C0
E001C0
E001C0
F003C0
700380
780780
3C0F00
1FFE00
0FFC00
03F000
ENDCHAR
STARTCHAR uni022F
ENCODING 559
SWIDTH 600 0
DWIDTH 20 0
BBX 17 19 2 0
BITMAP
01C000
01C000
01C000
000000
07F000
1FFC00
3FFE00
780F00
700700
F00780
E00380
E00380
E00380
F00780
700700
780F00
3FFE00
1FFC00
07F000
ENDCHAR
STARTCHAR uni0230
ENCODING 560
SWIDTH 600 0
DWIDTH 20 0
BBX 18 27 1 0
BITMAP
0FFC00
0FFC00
000000
00E000
00E000
00E000
000000
03F000
0FFC00
1FFE00
3C0F00
780780
700380
F003C0
E001C0
E001C0
E001C0
E001C0
E001C0
E001C0
F003C0
700380
780780
3C0F00
1FFE00
0FFC00
03F000
ENDCHAR
STARTCHAR uni0231
ENCODING 561
SWIDTH 600 0
DWIDTH 20 0
BBX 17 22 2 0
BITMAP
0FFC00
0FFC00
000000
01C000
01C000
01C000
000000
07F000
1FFC00
3FFE00
780F00
700700
F00780
E00380
E00380
E00380
F00780
700700
780F00
3FFE00
1FFC00
07F000
ENDCHAR
STARTCHAR uni0232
ENCODING 562
SWIDTH 600 0
DWIDTH 20 0
BBX 19 23 0 0
BITMAP
07FE00
07FE00
000000
FF1FE0
FF1FE0
FF1FE0
3C0780
0E0E00
0F1E00
071C00
07BC00
03F800
01F000
01F000
00E000
00E000
00E000
00E000
00E000
00E000
0FFE00
0FFE00
0FFE00
ENDCHAR
STARTCHAR uni0233
ENCODING 563
SWIDTH 600 0
DWIDTH 20 0
BBX 19 25 1 -7
BITMAP
0FFC00
0FFC00
000000
FF1FE0
FF1FE0
FF1FE0
3C0380
1C0700
1E0700
0E0E00
0F0E00
071C00
079C00
03B800
03F800
01F000
01F000
00E000
00E000
01C000
01C000
038000
7FF000
7FF000
7FF000
ENDCHAR
STARTCHAR uni0250
ENCODING 592
SWIDTH 600 0
DWIDTH 20 0
BBX 16 15 2 0
BITMAP
F9FC
FBFE
FFFF
3E07
3807
380F
3FFE
3FFE
3FF0
3800
3800
3C0E
3FFE
1FFE
07F8
ENDCHAR
STARTCHAR uni0254
ENCODING 596
SWIDTH 600 0
DWIDTH 20 0
BBX 16 15 2 0
BITMAP
67E0
7FF8
7FFC
7C3E
700E
7007
7007
0007
0007
0007
600F
F01E
7FFE
3FFC
0FF0
ENDCHAR
STARTCHAR uni0258
ENCODING 600
SWIDTH 600 0
DWIDTH 20 0
BBX 18 15 1 0
BITMAP
03F000
0FFC00
1FFE00
3E1F00
780780
700380
7FFFC0
7FFFC0
7FFFC0
0003C0
000780
701F80
FFFF00
7FFE00
1FF800
ENDCHAR
STARTCHAR uni0259
ENCODING 601
SWIDTH 600 0
DWIDTH 20 0
BBX 18 15 1 0
BITMAP
1FF800
7FFE00
FFFF00
701F80
000780
0003C0
7FFFC0
7FFFC0
7FFFC0
700380
780780
3E1F00
1FFE00
0FFC00
03F000
ENDCHAR
STARTCHAR uni025F
ENCODING 607
SWIDTH 600 0
DWIDTH 20 0
BBX 16 21 3 -6
BITMAP
3FFF
3FFF
3FFF
0070
0070
0070
0070
0070
0070
0070
0070
0070
3FFF
3FFF
3FFF
0070
0070
00F0
FFE0
FFE0
FF80
ENDCHAR
STARTCHAR uni0265
ENCODING 613
SWIDTH 600 0
DWIDTH 20 0
BBX 18 21 1 -6
BITMAP
FE3F80
FE3F80
FE3F80
380E00
380E00
380E00
380E00
380E00
380E00
380E00
381E00
3C3E00
1FFE00
0FEE00
07CE00
000E00
000E00
000E00
000FC0
000FC0
000FC0
ENDCHAR
STARTCHAR uni0275
ENCODING 629
SWIDTH 600 0
DWIDTH 20 0
BBX 17 15 2 0
BITMAP
07F000
1FFC00
3FFE00
780F00
700700
F00780
FFFF80
FFFF80
FFFF80
F00780
700700
780F00
3FFE00
1FFC00
07F000
ENDCHAR
STARTCHAR uni0279
ENCODING 633
SWIDTH 600 0
DWIDTH 20 0
BBX 17 15 2 0
BITMAP
1FFF80
1FFF80
1FFF80
003800
003800
003800
003800
003800
003800
007800
207800
71F800
FFFF00
7FBF00
3E3F00
ENDCHAR
STARTCHAR uni0287
ENCODING 647
SWIDTH 600 0
DWIDTH 20 0
BBX 16 20 2 0
BITMAP
0FC0
7FF0
FFF8
F878
6038
0038
0038
0038
0038
0038
0038
0038
3FFF
3FFF
3FFF
0038
0038
0038
0038
0038
ENDCHAR
STARTCHAR uni0288
ENCODING 648
SWIDTH 600 0
DWIDTH 20 0
BBX 15 27 2 -7
BITMAP
1C00
1C00
1C00
1C00
1C00
FFFC
FFFC
FFFC
1C00
1C00
1C00
1C00
1C00
1C00
1C00
1C00
1C00
1C00
1C00
1C00
1C00
1C00
1C00
1E00
0FFE
07FE
03FE
ENDCHAR
STARTCHAR uni0289
ENCODING 649
SWIDTH 600 0
DWIDTH 20 0
BBX 18 15 1 0
BITMAP
FC3F00
FC3F00
FC3F00
1C0700
1C0700
1C0700
FFFFC0
FFFFC0
FFFFC0
1C0700
1C0700
1E1F00
1FFFC0
0FFFC0
07F7C0
ENDCHAR
STARTCHAR uni028C
ENCODING 652
SWIDTH 600 0
DWIDTH 20 0
BBX 19 15 0 0
BITMAP
00E000
00F000
01F000
01F800
03B800
03BC00
071C00
071E00
0E0E00
0E0F00
1C0700
1C0780
FF1FE0
FF1FE0
FF1FE0
ENDCHAR
STARTCHAR uni028D
ENCODING 653
SWIDTH 600 0
DWIDTH 20 0
BBX 19 15 0 0
BITMAP
0E0E00
0E0E00
0E0E00
0F1E00
1F1F00
1F1F00
1FBF00
1DF700
3DF780
39F380
38E380
38E380
FE0FE0
FE0FE0
FE0FE0
ENDCHAR
STARTCHAR uni028E
ENCODING 654
SWIDTH 600 0
DWIDTH 20 0
BBX 19 22 1 0
BITMAP
01FFC0
01FFC0
01FFC0
003800
007000
007000
00E000
00E000
01F000
01F000
03F800
03B800
073C00
071C00
0E1E00
0E0E00
1C0F00
1C0700
380780
FF1FE0
FF1FE0
FF1FE0
ENDCHAR
STARTCHAR uni029E
ENCODING 670
SWIDTH 600 0
DWIDTH 20 0
BBX 17 21 1 -6
BITMAP
FE1F80
FE1F80
FE1F80
1F1C00
0F9C00
07DC00
03FC00
01FC00
01FC00
03DC00
079C00
0F1C00
7F9C00
7F9C00
7F9C00
001C00
001C00
001C00
001F80
001F80
001F80
ENDCHAR
STARTCHAR uni02BB
ENCODING 699
SWIDTH 600 0
DWIDTH 20 0
BBX 7 10 8 11
BITMAP
F0
F0
78
78
38
3C
1C
1C
0E
0C
ENDCHAR
STARTCHAR afii57929
ENCODING 700
SWIDTH 600 0
DWIDTH 20 0
BBX 6 10 5 11
BITMAP
3C
3C
78
78
70
70
E0
E0
C0
C0
ENDCHAR
STARTCHAR afii64937
ENCODING 701
SWIDTH 600 0
DWIDTH 20 0
BBX 6 10 5 11
BITMAP
F0
F0
78
78
38
38
1C
1C
0C
0C
ENDCHAR
STARTCHAR circumflex
ENCODING 710
SWIDTH 600 0
DWIDTH 20 0
BBX 9 5 5 16
BITMAP
0800
1C00
7F00
F780
C180
ENDCHAR
STARTCHAR caron
ENCODING 711
SWIDTH 600 0
DWIDTH 20 0
BBX 9 5 5 16
BITMAP
C180
F780
7F00
1C00
0800
ENDCHAR
STARTCHAR uni02C8
ENCODING 712
SWIDTH 600 0
DWIDTH 20 0
BBX 4 11 8 10
BITMAP
70
70
70
70
70
E0
E0
E0
E0
E0
E0
ENDCHAR
STARTCHAR macron
ENCODING 713
SWIDTH 600 0
DWIDTH 20 0
BBX 10 2 5 17
BITMAP
FFC0
FFC0
ENDCHAR
STARTCHAR uni02CA
ENCODING 714
SWIDTH 600 0
DWIDTH 20 0
BBX 8 6 6 15
BITMAP
06
0F
3E
78
E0
40
ENDCHAR
STARTCHAR uni02CB
ENCODING 715
SWIDTH 600 0
DWIDTH 20 0
BBX 6 6 6 16
BITMAP
C0
E0
70
38
1C
0C
ENDCHAR
STARTCHAR uni02CD
ENCODING 717
SWIDTH 600 0
DWIDTH 20 0
BBX 10 2 5 -3
BITMAP
FFC0
FFC0
ENDCHAR
STARTCHAR uni02CE
ENCODING 718
SWIDTH 600 0
DWIDTH 20 0
BBX 6 6 6 -7
BITMAP
C0
E0
70
38
1C
0C
ENDCHAR
STARTCHAR uni02CF
ENCODING 719
SWIDTH 600 0
DWIDTH 20 0
BBX 8 6 6 -7
BITMAP
06
0F
3E
78
E0
40
ENDCHAR
STARTCHAR breve
ENCODING 728
SWIDTH 600 0
DWIDTH 20 0
BBX 9 5 5 16
BITMAP
C180
C180
E380
FF80
3E00
ENDCHAR
STARTCHAR dotaccent
ENCODING 729
SWIDTH 600 0
DWIDTH 20 0
BBX 3 3 8 17
BITMAP
E0
E0
E0
ENDCHAR
STARTCHAR ring
ENCODING 730
SWIDTH 600 0
DWIDTH 20 0
BBX 5 5 7 16
BITMAP
70
D8
88
D8
70
ENDCHAR
STARTCHAR ogonek
ENCODING 731
SWIDTH 600 0
DWIDTH 20 0
BBX 6 8 7 -6
BITMAP
30
70
E0
C0
C0
E0
7C
3C
ENDCHAR
STARTCHAR tilde
ENCODING 732
SWIDTH 600 0
DWIDTH 20 0
BBX 10 3 5 17
BITMAP
78C0
FFC0
CF80
ENDCHAR
STARTCHAR hungarumlaut
ENCODING 733
SWIDTH 600 0
DWIDTH 20 0
BBX 12 6 4 16
BITMAP
0C30
1C70
38E0
71C0
E380
C300
ENDCHAR
STARTCHAR uni02EE
ENCODING 750
SWIDTH 600 0
DWIDTH 20 0
BBX 13 8 3 12
BITMAP
1C38
3C78
3870
70E0
70E0
E1C0
C180
C180
ENDCHAR
STARTCHAR uni037E
ENCODING 894
SWIDTH 600 0
DWIDTH 20 0
BBX 8 19 5 -4
BITMAP
0E
1F
1F
0E
00
00
00
00
00
00
1E
1E
3C
38
78
70
E0
E0
C0
ENDCHAR
STARTCHAR tonos
ENCODING 900
SWIDTH 600 0
DWIDTH 20 0
BBX 8 6 6 15
BITMAP
06
0F
3E
78
E0
40
ENDCHAR
STARTCHAR dieresistonos
ENCODING 901
SWIDTH 600 0
DWIDTH 20 0
BBX 11 11 4 17
BITMAP
00C0
01E0
07C0
0F00
1C00
0800
0000
60C0
F1E0
F1E0
60C0
ENDCHAR
STARTCHAR anoteleia
ENCODING 903
SWIDTH 600 0
DWIDTH 20 0
BBX 5 4 7 8
BITMAP
70
F8
F8
70
ENDCHAR
STARTCHAR mu
ENCODING 956
SWIDTH 600 0
DWIDTH 20 0
BBX 18 22 1 -7
BITMAP
FC3F00
FC3F00
FC3F00
1C0700
1C0700
1C0700
1C0700
1C0700
1C0700
1C0700
1C0F00
1E1F00
1FFFC0
1FF7C0
1DE7C0
1C0000
1C0000
1C0000
1C0000
1C0000
1C0000
1C0000
ENDCHAR
STARTCHAR uni1E00
ENCODING 7680
SWIDTH 600 0
DWIDTH 20 0
BBX 21 26 -1 -6
BITMAP
1FF000
1FF800
1FF800
01DC00
01DC00
01DC00
038E00
038E00
038E00
070700
070700
070700
0FFF80
0FFF80
1FFFC0
1C01C0
1C01C0
FF8FF8
FF8FF8
FF8FF8
000000
007000
00D800
008800
00D800
007000
ENDCHAR
STARTCHAR uni1E01
ENCODING 7681
SWIDTH 600 0
DWIDTH 20 0
BBX 16 21 2 -6
BITMAP
1FE0
7FF8
7FFC
703C
001C
001C
0FFC
7FFC
7FFC
F01C
E01C
E07C
FFFF
7FDF
3F9F
0000
01C0
0360
0220
0360
01C0
ENDCHAR
STARTCHAR uni1E02
ENCODING 7682
SWIDTH 600 0
DWIDTH 20 0
BBX 18 24 1 0
BITMAP
01C000
01C000
01C000
000000
FFF800
FFFE00
FFFF00
1C0780
1C0380
1C0380
1C0380
1C0780
1FFF00
1FFC00
1FFE00
1C0F80
1C03C0
1C01C0
1C01C0
1C01C0
1C03C0
FFFF80
FFFF00
FFFC00
ENDCHAR
STARTCHAR uni1E03
ENCODING 7683
SWIDTH 600 0
DWIDTH 20 0
BBX 19 25 0 0
BITMAP
0E0000
0E0000
0E0000
000000
FC0000
FC0000
FC0000
1C0000
1C0000
1C0000
1C7C00
1DFF00
1FFF80
1F87C0
1E01C0
1E01E0
1C00E0
1C00E0
1C00E0
1C00E0
1E01C0
1F03C0
FFFF80
FFFF00
FCFE00
ENDCHAR
STARTCHAR uni1E04
ENCODING 7684
SWIDTH 600 0
DWIDTH 20 0
BBX 18 24 1 -4
BITMAP
FFF800
FFFE00
FFFF00
1C0780
1C0380
1C0380
1C0380
1C0780
1FFF00
1FFC00
1FFE00
1C0F80
1C03C0
1C01C0
1C01C0
1C01C0
1C03C0
FFFF80
FFFF00
FFFC00
000000
01C000
01C000
01C000
ENDCHAR
STARTCHAR uni1E05
ENCODING 7685
SWIDTH 600 0
DWIDTH 20 0
BBX 19 25 0 -4
BITMAP
FC0000
FC0000
FC0000
1C0000
1C0000
1C0000
1C7C00
1DFF00
1FFF80
1F87C0
1E01C0
1E01E0
1C00E0
1C00E0
1C00E0
1C00E0
1E01C0
1F03C0
FFFF80
FFFF00
FCFE00
000000
00E000
00E000
00E000
ENDCHAR
STARTCHAR uni1E06
ENCODING 7686
SWIDTH 600 0
DWIDTH 20 0
BBX 18 23 1 -3
BITMAP
FFF800
FFFE00
FFFF00
1C0780
1C0380
1C0380
1C0380
1C0780
1FFF00
1FFC00
1FFE00
1C0F80
1C03C0
1C01C0
1C01C0
1C01C0
1C03C0
FFFF80
FFFF00
FFFC00
000000
0FFC00
0FFC00
ENDCHAR
STARTCHAR uni1E07
ENCODING 7687
SWIDTH 600 0
DWIDTH 20 0
BBX 19 24 0 -3
BITMAP
FC0000
FC0000
FC0000
1C0000
1C0000
1C0000
1C7C00
1DFF00
1FFF80
1F87C0
1E01C0
1E01E0
1C00E0
1C00E0
1C00E0
1C00E0
1E01C0
1F03C0
FFFF80
FFFF00
FCFE00
000000
0FFC00
0FFC00
ENDCHAR
STARTCHAR uni1E08
ENCODING 7688
SWIDTH 600 0
DWIDTH 20 0
BBX 17 33 1 -6
BITMAP
000C00
001E00
007C00
00F000
01C000
008000
000000
03E300
0FFF00
1FFF00
3E1F00
780F00
700700
F00700
E00000
E00000
E00000
E00000
E00000
E00000
F00000
700100
780380
3E0F80
3FFF00
0FFE00
03F800
00C000
00C000
00E000
047000
07F000
03E000
ENDCHAR
STARTCHAR uni1E09
ENCODING 7689
SWIDTH 600 0
DWIDTH 20 0
BBX 16 28 2 -6
BITMAP
0018
003C
00F8
01E0
0380
0100
0000
07E6
1FFE
3FFE
7C3E
700E
F00E
E00E
E000
E000
E000
F006
7C0F
3FFE
1FFC
07F0
0180
0180
01C0
08E0
0FC0
0380
ENDCHAR
STARTCHAR uni1E0A
ENCODING 7690
SWIDTH 600 0
DWIDTH 20 0
BBX 17 24 1 0
BITMAP
038000
038000
038000
000000
FFE000
FFF800
FFFC00
383E00
380F00
380700
380780
380380
380380
380380
380380
380380
380380
380380
380780
380700
381F00
FFFE00
FFFC00
FFF000
ENDCHAR
STARTCHAR uni1E0B
ENCODING 7691
SWIDTH 600 0
DWIDTH 20 0
BBX 19 25 1 0
BITMAP
001C00
001C00
001C00
000000
003F00
003F00
003F00
000700
000700
000700
07E700
1FFF00
3FFF00
7C3F00
700F00
F00F00
E00700
E00700
E00700
E00700
700F00
7C3F00
3FFFE0
1FF7E0
07E7E0
ENDCHAR
STARTCHAR uni1E0C
ENCODING 7692
SWIDTH 600 0
DWIDTH 20 0
BBX 17 24 1 -4
BITMAP
FFE000
FFF800
FFFC00
383E00
380F00
380700
380780
380380
380380
380380
380380
380380
380380
380380
380780
380700
381F00
FFFE00
FFFC00
FFF000
000000
01C000
01C000
01C000
ENDCHAR
STARTCHAR uni1E0D
ENCODING 7693
SWIDTH 600 0
DWIDTH 20 0
BBX 19 25 1 -4
BITMAP
003F00
003F00
003F00
000700
000700
000700
07E700
1FFF00
3FFF00
7C3F00
700F00
F00F00
E00700
E00700
E00700
E00700
700F00
7C3F00
3FFFE0
1FF7E0
07E7E0
000000
00E000
00E000
00E000
ENDCHAR
STARTCHAR uni1E0E
ENCODING 7694
SWIDTH 600 0
DWIDTH 20 0
BBX 17 23 1 -3
BITMAP
FFE000
FFF800
FFFC00
383E00
380F00
380700
380780
380380
380380
380380
380380
380380
380380
380380
380780
380700
381F00
FFFE00
FFFC00
FFF000
000000
1FF800
1FF800
ENDCHAR
STARTCHAR uni1E0F
ENCODING 7695
SWIDTH 600 0
DWIDTH 20 0
BBX 19 24 1 -3
BITMAP
003F00
003F00
003F00
000700
000700
000700
07E700
1FFF00
3FFF00
7C3F00
700F00
F00F00
E00700
E00700
E00700
E00700
700F00
7C3F00
3FFFE0
1FF7E0
07E7E0
000000
07FE00
07FE00
ENDCHAR
STARTCHAR uni1E10
ENCODING 7696
SWIDTH 600 0
DWIDTH 20 0
BBX 17 26 1 -6
BITMAP
FFE000
FFF800
FFFC00
383E00
380F00
380700
380780
380380
380380
380380
380380
380380
380380
380380
380780
380700
381F00
FFFE00
FFFC00
FFF000
018000
018000
00C000
07C000
07C000
038000
ENDCHAR
STARTCHAR uni1E11
ENCODING 7697
SWIDTH 600 0
DWIDTH 20 0
BBX 19 27 1 -6
BITMAP
003F00
003F00
003F00
000700
000700
000700
07E700
1FFF00
3FFF00
7C3F00
700F00
F00F00
E00700
E00700
E00700
E00700
700F00
7C3F00
3FFFE0
1FF7E0
07E7E0
006000
006000
003000
01F000
01F000
00E000
ENDCHAR
STARTCHAR uni1E12
ENCODING 7698
SWIDTH 600 0
DWIDTH 20 0
BBX 17 26 1 -6
BITMAP
FFE000
FFF800
FFFC00
383E00
380F00
380700
380780
380380
380380
380380
380380
380380
380380
380380
380780
380700
381F00
FFFE00
FFFC00
FFF000
000000
008000
01C000
07F000
0F7800
0C1800
ENDCHAR
STARTCHAR uni1E13
ENCODING 7699
SWIDTH 600 0
DWIDTH 20 0
BBX 19 27 1 -6
BITMAP
003F00
003F00
003F00
000700
000700
000700
07E700
1FFF00
3FFF00
7C3F00
700F00
F00F00
E00700
E00700
E00700
E00700
700F00
7C3F00
3FFFE0
1FF7E0
07E7E0
000000
004000
00E000
03F800
07BC00
060C00
ENDCHAR
STARTCHAR uni1E14
ENCODING 7700
SWIDTH 600 0
DWIDTH 20 0
BBX 17 30 1 0
BITMAP
0C0000
0E0000
070000
038000
01C000
00C000
000000
1FF800
1FF800
000000
FFFF00
FFFF00
FFFF00
1C0700
1C0700
1C0700
1C7700
1C7000
1FF000
1FF000
1FF000
1C7000
1C7000
1C0380
1C0380
1C0380
1C0380
FFFF80
FFFF80
FFFF80
ENDCHAR
STARTCHAR uni1E15
ENCODING 7701
SWIDTH 600 0
DWIDTH 20 0
BBX 18 25 1 0
BITMAP
060000
070000
038000
01C000
00E000
006000
000000
0FFC00
0FFC00
000000
03F000
0FFC00
1FFE00
3E1F00
780780
700380
FFFF80
FFFF80
FFFF80
F00000
780000
7E0380
3FFFC0
1FFF80
07FE00
ENDCHAR
STARTCHAR uni1E16
ENCODING 7702
SWIDTH 600 0
DWIDTH 20 0
BBX 17 30 1 0
BITMAP
001800
003C00
00F800
01E000
038000
010000
000000
1FF800
1FF800
000000
FFFF00
FFFF00
FFFF00
1C0700
1C0700
1C0700
1C7700
1C7000
1FF000
1FF000
1FF000
1C7000
1C7000
1C0380
1C0380
1C0380
1C0380
FFFF80
FFFF80
FFFF80
ENDCHAR
STARTCHAR uni1E17
ENCODING 7703
SWIDTH 600 0
DWIDTH 20 0
BBX 18 25 1 0
BITMAP
000C00
001E00
007C00
00F000
01C000
008000
000000
0FFC00
0FFC00
000000
03F000
0FFC00
1FFE00
3E1F00
780780
700380
FFFF80
FFFF80
FFFF80
F00000
780000
7E0380
3FFFC0
1FFF80
07FE00
ENDCHAR
STARTCHAR uni1E18
ENCODING 7704
SWIDTH 600 0
DWIDTH 20 0
BBX 17 26 1 -6
BITMAP
FFFF00
FFFF00
FFFF00
1C0700
1C0700
1C0700
1C7700
1C7000
1FF000
1FF000
1FF000
1C7000
1C7000
1C0380
1C0380
1C0380
1C0380
FFFF80
FFFF80
FFFF80
000000
008000
01C000
07F000
0F7800
0C1800
ENDCHAR
STARTCHAR uni1E19
ENCODING 7705
SWIDTH 600 0
DWIDTH 20 0
BBX 18 21 1 -6
BITMAP
03F000
0FFC00
1FFE00
3E1F00
780780
700380
FFFF80
FFFF80
FFFF80
F00000
780000
7E0380
3FFFC0
1FFF80
07FE00
000000
004000
00E000
03F800
07BC00
060C00
ENDCHAR
STARTCHAR uni1E1A
ENCODING 7706
SWIDTH 600 0
DWIDTH 20 0
BBX 17 24 1 -4
BITMAP
FFFF00
FFFF00
FFFF00
1C0700
1C0700
1C0700
1C7700
1C7000
1FF000
1FF000
1FF000
1C7000
1C7000
1C0380
1C0380
1C0380
1C0380
FFFF80
FFFF80
FFFF80
000000
078C00
0FFC00
0CF800
ENDCHAR
STARTCHAR uni1E1B
ENCODING 7707
SWIDTH 600 0
DWIDTH 20 0
BBX 18 19 1 -4
BITMAP
03F000
0FFC00
1FFE00
3E1F00
780780
700380
FFFF80
FFFF80
FFFF80
F00000
780000
7E0380
3FFFC0
1FFF80
07FE00
000000
078C00
0FFC00
0CF800
ENDCHAR
STARTCHAR uni1E1C
ENCODING 7708
SWIDTH 600 0
DWIDTH 20 0
BBX 17 32 1 -6
BITMAP
0C1800
0C1800
0E3800
0FF800
03E000
000000
FFFF00
FFFF00
FFFF00
1C0700
1C0700
1C0700
1C7700
1C7000
1FF000
1FF000
1FF000
1C7000
1C7000
1C0380
1C0380
1C0380
1C0380
FFFF80
FFFF80
FFFF80
00C000
00C000
006000
03E000
03E000
01C000
ENDCHAR
STARTCHAR uni1E1D
ENCODING 7709
SWIDTH 600 0
DWIDTH 20 0
BBX 18 27 1 -6
BITMAP
060C00
060C00
071C00
07FC00
01F000
000000
03F000
0FFC00
1FFE00
3E1F00
780780
700380
FFFF80
FFFF80
FFFF80
F00000
780000
7E0380
3FFFC0
1FFF80
07FE00
006000
006000
003000
01F000
01F000
00E000
ENDCHAR
STARTCHAR uni1E1E
ENCODING 7710
SWIDTH 600 0
DWIDTH 20 0
BBX 17 24 1 0
BITMAP
01C000
01C000
01C000
000000
FFFF80
FFFF80
FFFF80
1C0380
1C0380
1C0380
1C7380
1C7000
1FF000
1FF000
1FF000
1C7000
1C7000
1C0000
1C0000
1C0000
1C0000
FFE000
FFE000
FFE000
ENDCHAR
STARTCHAR uni1E1F
ENCODING 7711
SWIDTH 600 0
DWIDTH 20 0
BBX 16 25 3 0
BITMAP
00E0
00E0
00E0
0000
01FF
07FF
07FF
0F00
0E00
0E00
FFFC
FFFC
FFFC
0E00
0E00
0E00
0E00
0E00
0E00
0E00
0E00
0E00
FFFC
FFFC
FFFC
ENDCHAR
STARTCHAR uni1E20
ENCODING 7712
SWIDTH 600 0
DWIDTH 20 0
BBX 17 23 2 0
BITMAP
0FFC00
0FFC00
000000
03F300
0FFF00
1FFF00
3C0F00
780700
700700
F00700
E00000
E00000
E00000
E00000
E0FF80
E0FF80
E0FF80
F00700
700700
7C0F00
3FFF00
1FFE00
07F800
ENDCHAR
STARTCHAR uni1E21
ENCODING 7713
SWIDTH 600 0
DWIDTH 20 0
BBX 18 25 1 -7
BITMAP
0FFC00
0FFC00
000000
07CFC0
1FFFC0
3FFFC0
7C7E00
701E00
F01E00
E00E00
E00E00
E00E00
F01E00
701E00
787E00
3FFE00
1FEE00
0FCE00
000E00
000E00
001E00
003C00
1FFC00
1FF800
1FE000
ENDCHAR
STARTCHAR uni1E22
ENCODING 7714
SWIDTH 600 0
DWIDTH 20 0
BBX 17 24 1 0
BITMAP
01C000
01C000
01C000
000000
FF7F80
FF7F80
FF7F80
380E00
380E00
380E00
380E00
380E00
3FFE00
3FFE00
3FFE00
380E00
380E00
380E00
380E00
380E00
380E00
FF7F80
FF7F80
FF7F80
ENDCHAR
STARTCHAR uni1E23
ENCODING 7715
SWIDTH 600 0
DWIDTH 20 0
BBX 18 25 1 0
BITMAP
0E0000
0E0000
0E0000
000000
FC0000
FC0000
FC0000
1C0000
1C0000
1C0000
1CF800
1DFC00
1FFE00
1F0F00
1E0700
1C0700
1C0700
1C0700
1C0700
1C0700
1C0700
1C0700
7F1FC0
7F1FC0
7F1FC0
ENDCHAR
STARTCHAR uni1E24
ENCODING 7716
SWIDTH 600 0
DWIDTH 20 0
BBX 17 24 1 -4
BITMAP
FF7F80
FF7F80
FF7F80
380E00
380E00
380E00
380E00
380E00
3FFE00
3FFE00
3FFE00
380E00
380E00
380E00
380E00
380E00
380E00
FF7F80
FF7F80
FF7F80
000000
01C000
01C000
01C000
ENDCHAR
STARTCHAR uni1E25
ENCODING 7717
SWIDTH 600 0
DWIDTH 20 0
BBX 18 25 1 -4
BITMAP
FC0000
FC0000
FC0000
1C0000
1C0000
1C0000
1CF800
1DFC00
1FFE00
1F0F00
1E0700
1C0700
1C0700
1C0700
1C0700
1C0700
1C0700
1C0700
7F1FC0
7F1FC0
7F1FC0
000000
00E000
00E000
00E000
ENDCHAR
STARTCHAR uni1E26
ENCODING 7718
SWIDTH 600 0
DWIDTH 20 0
BBX 17 25 1 0
BITMAP
0C1800
1E3C00
1E3C00
0C1800
000000
FF7F80
FF7F80
FF7F80
380E00
380E00
380E00
380E00
380E00
3FFE00
3FFE00
3FFE00
380E00
380E00
380E00
380E00
380E00
380E00
FF7F80
FF7F80
FF7F80
ENDCHAR
STARTCHAR uni1E27
ENCODING 7719
SWIDTH 600 0
DWIDTH 20 0
BBX 18 26 1 0
BITMAP
60C000
F1E000
F1E000
60C000
000000
FC0000
FC0000
FC0000
1C0000
1C0000
1C0000
1CF800
1DFC00
1FFE00
1F0F00
1E0700
1C0700
1C0700
1C0700
1C0700
1C0700
1C0700
1C0700
7F1FC0
7F1FC0
7F1FC0
ENDCHAR
STARTCHAR uni1E28
ENCODING 7720
SWIDTH 600 0
DWIDTH 20 0
BBX 17 26 1 -6
BITMAP
FF7F80
FF7F80
FF7F80
380E00
380E00
380E00
380E00
380E00
3FFE00
3FFE00
3FFE00
380E00
380E00
380E00
380E00
380E00
380E00
FF7F80
FF7F80
FFFF80
00C000
00C000
006000
03E000
03E000
01C000
ENDCHAR
STARTCHAR uni1E29
ENCODING 7721
SWIDTH 600 0
DWIDTH 20 0
BBX 18 27 1 -6
BITMAP
FC0000
FC0000
FC0000
1C0000
1C0000
1C0000
1CF800
1DFC00
1FFE00
1F0F00
1E0700
1C0700
1C0700
1C0700
1C0700
1C0700
1C0700
1C0700
7F1FC0
7F1FC0
7F7FC0
006000
006000
003000
01F000
01F000
00E000
ENDCHAR
STARTCHAR uni1E2A
ENCODING 7722
SWIDTH 600 0
DWIDTH 20 0
BBX 17 26 1 -6
BITMAP
FF7F80
FF7F80
FF7F80
380E00
380E00
380E00
380E00
380E00
3FFE00
3FFE00
3FFE00
380E00
380E00
380E00
380E00
380E00
380E00
FF7F80
FF7F80
FF7F80
000000
0C1800
0C1800
0E3800
0FF800
03E000
ENDCHAR
STARTCHAR uni1E2B
ENCODING 7723
SWIDTH 600 0
DWIDTH 20 0
BBX 18 27 1 -6
BITMAP
FC0000
FC0000
FC0000
1C0000
1C0000
1C0000
1CF800
1DFC00
1FFE00
1F0F00
1E0700
1C0700
1C0700
1C0700
1C0700
1C0700
1C0700
1C0700
7F1FC0
7F1FC0
7F1FC0
000000
060C00
060C00
071C00
07FC00
01F000
ENDCHAR
STARTCHAR uni1E2C
ENCODING 7724
SWIDTH 600 0
DWIDTH 20 0
BBX 13 24 3 -4
BITMAP
FFF8
FFF8
FFF8
0700
0700
0700
0700
0700
0700
0700
0700
0700
0700
0700
0700
0700
0700
FFF8
FFF8
FFF8
0000
1E30
3FF0
33E0
ENDCHAR
STARTCHAR uni1E2D
ENCODING 7725
SWIDTH 600 0
DWIDTH 20 0
BBX 15 25 3 -4
BITMAP
0780
0780
0780
0780
0000
0000
7F80
7F80
7F80
0380
0380
0380
0380
0380
0380
0380
0380
0380
FFFE
FFFE
FFFE
0000
0F18
1FF8
19F0
ENDCHAR
STARTCHAR uni1E2E
ENCODING 7726
SWIDTH 600 0
DWIDTH 20 0
BBX 13 32 3 0
BITMAP
0060
00F0
03E0
0780
0E00
0400
0000
3060
78F0
78F0
3060
0000
FFF8
FFF8
FFF8
0700
0700
0700
0700
0700
0700
0700
0700
0700
0700
0700
0700
0700
0700
FFF8
FFF8
FFF8
ENDCHAR
STARTCHAR uni1E2F
ENCODING 7727
SWIDTH 600 0
DWIDTH 20 0
BBX 15 28 2 0
BITMAP
0030
0078
01F0
03C0
0700
0200
0000
3060
78F0
78F0
3060
0000
0000
7F80
7F80
7F80
0380
0380
0380
0380
0380
0380
0380
0380
0380
FFFE
FFFE
FFFE
ENDCHAR
STARTCHAR uni1E30
ENCODING 7728
SWIDTH 600 0
DWIDTH 20 0
BBX 19 27 1 0
BITMAP
000C00
001E00
007C00
00F000
01C000
008000
000000
FF9FC0
FF9FC0
FF9FC0
1C0F00
1C1E00
1C3C00
1C7800
1CF000
1FE000
1FF000
1FF800
1E7C00
1C3C00
1C1E00
1C0E00
1C0F00
1C0700
FF87E0
FF87E0
FF87E0
ENDCHAR
STARTCHAR uni1E31
ENCODING 7729
SWIDTH 600 0
DWIDTH 20 0
BBX 17 28 1 0
BITMAP
00C000
01E000
07C000
0F0000
1C0000
080000
000000
FC0000
FC0000
FC0000
1C0000
1C0000
1C0000
1CFF00
1CFF00
1CFF00
1C7800
1CF000
1DE000
1FC000
1FC000
1FE000
1DF000
1CF800
1C7C00
FC3F80
FC3F80
FC3F80
ENDCHAR
STARTCHAR uni1E32
ENCODING 7730
SWIDTH 600 0
DWIDTH 20 0
BBX 19 24 1 -4
BITMAP
FF9FC0
FF9FC0
FF9FC0
1C0F00
1C1E00
1C3C00
1C7800
1CF000
1FE000
1FF000
1FF800
1E7C00
1C3C00
1C1E00
1C0E00
1C0F00
1C0700
FF87E0
FF87E0
FF87E0
000000
00E000
00E000
00E000
ENDCHAR
STARTCHAR uni1E33
ENCODING 7731
SWIDTH 600 0
DWIDTH 20 0
BBX 17 25 1 -4
BITMAP
FC0000
FC0000
FC0000
1C0000
1C0000
1C0000
1CFF00
1CFF00
1CFF00
1C7800
1CF000
1DE000
1FC000
1FC000
1FE000
1DF000
1CF800
1C7C00
FC3F80
FC3F80
FC3F80
000000
01C000
01C000
01C000
ENDCHAR
STARTCHAR uni1E34
ENCODING 7732
SWIDTH 600 0
DWIDTH 20 0
BBX 19 23 1 -3
BITMAP
FF9FC0
FF9FC0
FF9FC0
1C0F00
1C1E00
1C3C00
1C7800
1CF000
1FE000
1FF000
1FF800
1E7C00
1C3C00
1C1E00
1C0E00
1C0F00
1C0700
FF87E0
FF87E0
FF87E0
000000
0FFC00
0FFC00
ENDCHAR
STARTCHAR uni1E35
ENCODING 7733
SWIDTH 600 0
DWIDTH 20 0
BBX 17 24 1 -3
BITMAP
FC0000
FC0000
FC0000
1C0000
1C0000
1C0000
1CFF00
1CFF00
1CFF00
1C7800
1CF000
1DE000
1FC000
1FC000
1FE000
1DF000
1CF800
1C7C00
FC3F80
FC3F80
FC3F80
000000
0FFC00
0FFC00
ENDCHAR
STARTCHAR uni1E36
ENCODING 7734
SWIDTH 600 0
DWIDTH 20 0
BBX 17 24 1 -4
BITMAP
FFE000
FFE000
FFE000
0E0000
0E0000
0E0000
0E0000
0E0000
0E0000
0E0000
0E0000
0E0380
0E0380
0E0380
0E0380
0E0380
0E0380
FFFF80
FFFF80
FFFF80
000000
01C000
01C000
01C000
ENDCHAR
STARTCHAR uni1E37
ENCODING 7735
SWIDTH 600 0
DWIDTH 20 0
BBX 15 25 3 -4
BITMAP
7F80
7F80
7F80
0380
0380
0380
0380
0380
0380
0380
0380
0380
0380
0380
0380
0380
0380
0380
FFFE
FFFE
FFFE
0000
0380
0380
0380
ENDCHAR
STARTCHAR uni1E38
ENCODING 7736
SWIDTH 600 0
DWIDTH 20 0
BBX 17 27 1 -4
BITMAP
3FF000
3FF000
000000
FFE000
FFE000
FFE000
0E0000
0E0000
0E0000
0E0000
0E0000
0E0000
0E0000
0E0000
0E0380
0E0380
0E0380
0E0380
0E0380
0E0380
FFFF80
FFFF80
FFFF80
000000
01C000
01C000
01C000
ENDCHAR
STARTCHAR uni1E39
ENCODING 7737
SWIDTH 600 0
DWIDTH 20 0
BBX 15 28 3 -4
BITMAP
7FE0
7FE0
0000
7F80
7F80
7F80
0380
0380
0380
0380
0380
0380
0380
0380
0380
0380
0380
0380
0380
0380
0380
FFFE
FFFE
FFFE
0000
0380
0380
0380
ENDCHAR
STARTCHAR uni1E3A
ENCODING 7738
SWIDTH 600 0
DWIDTH 20 0
BBX 17 23 1 -3
BITMAP
FFE000
FFE000
FFE000
0E0000
0E0000
0E0000
0E0000
0E0000
0E0000
0E0000
0E0000
0E0380
0E0380
0E0380
0E0380
0E0380
0E0380
FFFF80
FFFF80
FFFF80
000000
0FFC00
0FFC00
ENDCHAR
STARTCHAR uni1E3B
ENCODING 7739
SWIDTH 600 0
DWIDTH 20 0
BBX 15 24 3 -3
BITMAP
7F80
7F80
7F80
0380
0380
0380
0380
0380
0380
0380
0380
0380
0380
0380
0380
0380
0380
0380
FFFE
FFFE
FFFE
0000
1FF8
1FF8
ENDCHAR
STARTCHAR uni1E3C
ENCODING 7740
SWIDTH 600 0
DWIDTH 20 0
BBX 17 26 1 -6
BITMAP
FFE000
FFE000
FFE000
0E0000
0E0000
0E0000
0E0000
0E0000
0E0000
0E0000
0E0000
0E0380
0E0380
0E0380
0E0380
0E0380
0E0380
FFFF80
FFFF80
FFFF80
000000
008000
01C000
07F000
0F7800
0C1800
ENDCHAR
STARTCHAR uni1E3D
ENCODING 7741
SWIDTH 600 0
DWIDTH 20 0
BBX 15 27 3 -6
BITMAP
7F80
7F80
7F80
0380
0380
0380
0380
0380
0380
0380
0380
0380
0380
0380
0380
0380
0380
0380
FFFE
FFFE
FFFE
0000
0100
0380
0FE0
1EF0
1830
ENDCHAR
STARTCHAR uni1E3E
ENCODING 7742
SWIDTH 600 0
DWIDTH 20 0
BBX 21 27 -1 0
BITMAP
000600
000F00
003E00
007800
00E000
004000
000000
FC01F8
FC01F8
FE03F8
3E03E0
3F07E0
3F07E0
3B8EE0
3B8EE0
3BDEE0
39DCE0
39DCE0
38F8E0
38F8E0
38F8E0
3870E0
3870E0
3800E0
FF07F8
FF07F8
FF07F8
ENDCHAR
STARTCHAR uni1E3F
ENCODING 7743
SWIDTH 600 0
DWIDTH 20 0
BBX 20 22 1 0
BITMAP
000C00
001E00
007C00
00F000
01C000
008000
000000
F38F00
FFFF80
FFFFC0
78F1C0
70E1C0
70E1C0
70E1C0
70E1C0
70E1C0
70E1C0
70E1C0
70E1C0
FCF9F0
FCF9F0
FCF9F0
ENDCHAR
STARTCHAR uni1E40
ENCODING 7744
SWIDTH 600 0
DWIDTH 20 0
BBX 21 24 -1 0
BITMAP
007000
007000
007000
000000
FC01F8
FC01F8
FE03F8
3E03E0
3F07E0
3F07E0
3B8EE0
3B8EE0
3BDEE0
39DCE0
39DCE0
38F8E0
38F8E0
38F8E0
3870E0
3870E0
3800E0
FF07F8
FF07F8
FF07F8
ENDCHAR
STARTCHAR uni1E41
ENCODING 7745
SWIDTH 600 0
DWIDTH 20 0
BBX 20 19 1 0
BITMAP
00E000
00E000
00E000
000000
F38F00
FFFF80
FFFFC0
78F1C0
70E1C0
70E1C0
70E1C0
70E1C0
70E1C0
70E1C0
70E1C0
70E1C0
FCF9F0
FCF9F0
FCF9F0
ENDCHAR
STARTCHAR uni1E42
ENCODING 7746
SWIDTH 600 0
DWIDTH 20 0
BBX 21 24 -1 -4
BITMAP
FC01F8
FC01F8
FE03F8
3E03E0
3F07E0
3F07E0
3B8EE0
3B8EE0
3BDEE0
39DCE0
39DCE0
38F8E0
38F8E0
38F8E0
3870E0
3870E0
3800E0
FF07F8
FF07F8
FF07F8
000000
007000
007000
007000
ENDCHAR
STARTCHAR uni1E43
ENCODING 7747
SWIDTH 600 0
DWIDTH 20 0
BBX 20 19 1 -4
BITMAP
F38F00
FFFF80
FFFFC0
78F1C0
70E1C0
70E1C0
70E1C0
70E1C0
70E1C0
70E1C0
70E1C0
70E1C0
FCF9F0
FCF9F0
FCF9F0
000000
00E000
00E000
00E000
ENDCHAR
STARTCHAR uni1E44
ENCODING 7748
SWIDTH 600 0
DWIDTH 20 0
BBX 19 24 0 0
BITMAP
00E000
00E000
00E000
000000
F81FE0
FC1FE0
FE1FE0
3E0380
3F0380
3F0380
3B8380
3BC380
39C380
39E380
38F380
387380
387B80
383B80
381F80
381F80
380F80
FF0780
FF0780
FF0380
ENDCHAR
STARTCHAR uni1E45
ENCODING 7749
SWIDTH 600 0
DWIDTH 20 0
BBX 17 19 2 0
BITMAP
038000
038000
038000
000000
F9F000
FBF800
FFFC00
3E1E00
3C0E00
380E00
380E00
380E00
380E00
380E00
380E00
380E00
FE3F80
FE3F80
FE3F80
ENDCHAR
STARTCHAR uni1E46
ENCODING 7750
SWIDTH 600 0
DWIDTH 20 0
BBX 19 24 0 -4
BITMAP
F81FE0
FC1FE0
FE1FE0
3E0380
3F0380
3F0380
3B8380
3BC380
39C380
39E380
38F380
387380
387B80
383B80
381F80
381F80
380F80
FF0780
FF0780
FF0380
000000
00E000
00E000
00E000
ENDCHAR
STARTCHAR uni1E47
ENCODING 7751
SWIDTH 600 0
DWIDTH 20 0
BBX 17 19 2 -4
BITMAP
F9F000
FBF800
FFFC00
3E1E00
3C0E00
380E00
380E00
380E00
380E00
380E00
380E00
380E00
FE3F80
FE3F80
FE3F80
000000
01C000
01C000
01C000
ENDCHAR
STARTCHAR uni1E48
ENCODING 7752
SWIDTH 600 0
DWIDTH 20 0
BBX 19 23 0 -3
BITMAP
F81FE0
FC1FE0
FE1FE0
3E0380
3F0380
3F0380
3B8380
3BC380
39C380
39E380
38F380
387380
387B80
383B80
381F80
381F80
380F80
FF0780
FF0780
FF0380
000000
0FFC00
0FFC00
ENDCHAR
STARTCHAR uni1E49
ENCODING 7753
SWIDTH 600 0
DWIDTH 20 0
BBX 17 18 2 -3
BITMAP
F9F000
FBF800
FFFC00
3E1E00
3C0E00
380E00
380E00
380E00
380E00
380E00
380E00
380E00
FE3F80
FE3F80
FE3F80
000000
0FFC00
0FFC00
ENDCHAR
STARTCHAR uni1E4A
ENCODING 7754
SWIDTH 600 0
DWIDTH 20 0
BBX 19 26 0 -6
BITMAP
F81FE0
FC1FE0
FE1FE0
3E0380
3F0380
3F0380
3B8380
3BC380
39C380
39E380
38F380
387380
387B80
383B80
381F80
381F80
380F80
FF0780
FF0780
FF0380
000000
004000
00E000
03F800
07BC00
060C00
ENDCHAR
STARTCHAR uni1E4B
ENCODING 7755
SWIDTH 600 0
DWIDTH 20 0
BBX 17 21 2 -6
BITMAP
F9F000
FBF800
FFFC00
3E1E00
3C0E00
380E00
380E00
380E00
380E00
380E00
380E00
380E00
FE3F80
FE3F80
FE3F80
000000
008000
01C000
07F000
0F7800
0C1800
ENDCHAR
STARTCHAR uni1E4C
ENCODING 7756
SWIDTH 600 0
DWIDTH 20 0
BBX 17 32 1 0
BITMAP
001800
003C00
00F800
01E000
038000
010000
000000
070C00
0FCC00
0CEC00
0C3800
000000
07F000
0FFC00
1FFC00
3C1E00
780F00
700700
700700
E00380
E00380
E00380
E00380
E00380
E00380
700700
780700
380E00
3E3E00
1FFC00
0FF800
03E000
ENDCHAR
STARTCHAR uni1E4D
ENCODING 7757
SWIDTH 600 0
DWIDTH 20 0
BBX 17 28 1 0
BITMAP
000C00
001E00
007C00
00F000
01C000
008000
000000
070C00
0FCC00
0CFC00
0C3800
000000
000000
07F000
0FF800
3FFE00
3C1E00
780F00
F00780
E00380
E00380
E00380
F00780
780F00
7C1F00
3FFE00
1FFC00
07F000
ENDCHAR
STARTCHAR uni1E4E
ENCODING 7758
SWIDTH 600 0
DWIDTH 20 0
BBX 17 30 1 0
BITMAP
0C1800
1E3C00
1E3C00
0C1800
000000
070C00
0FCC00
0CEC00
0C3800
000000
07F000
0FFC00
1FFC00
3C1E00
780F00
700700
700700
E00380
E00380
E00380
E00380
E00380
E00380
700700
780700
380E00
3E3E00
1FFC00
0FF800
03E000
ENDCHAR
STARTCHAR uni1E4F
ENCODING 7759
SWIDTH 600 0
DWIDTH 20 0
BBX 17 26 1 0
BITMAP
0C1800
1E3C00
1E3C00
0C1800
000000
070C00
0FCC00
0CFC00
0C3800
000000
000000
07F000
0FF800
3FFE00
3C1E00
780F00
F00780
E00380
E00380
E00380
F00780
780F00
7C1F00
3FFE00
1FFC00
07F000
ENDCHAR
STARTCHAR uni1E50
ENCODING 7760
SWIDTH 600 0
DWIDTH 20 0
BBX 18 30 1 0
BITMAP
060000
070000
038000
01C000
00E000
006000
000000
0FFC00
0FFC00
000000
03F000
0FFC00
1FFE00
3C0F00
780780
700380
F003C0
E001C0
E001C0
E001C0
E001C0
E001C0
E001C0
F003C0
700380
780780
3C0F00
1FFE00
0FFC00
03F000
ENDCHAR
STARTCHAR uni1E51
ENCODING 7761
SWIDTH 600 0
DWIDTH 20 0
BBX 17 25 2 0
BITMAP
060000
070000
038000
01C000
00E000
006000
000000
0FFC00
0FFC00
000000
07F000
1FFC00
3FFE00
780F00
700700
F00780
E00380
E00380
E00380
F00780
700700
780F00
3FFE00
1FFC00
07F000
ENDCHAR
STARTCHAR uni1E52
ENCODING 7762
SWIDTH 600 0
DWIDTH 20 0
BBX 18 30 1 0
BITMAP
000C00
001E00
007C00
00F000
01C000
008000
000000
0FFC00
0FFC00
000000
03F000
0FFC00
1FFE00
3C0F00
780780
700380
F003C0
E001C0
E001C0
E001C0
E001C0
E001C0
E001C0
F003C0
700380
780780
3C0F00
1FFE00
0FFC00
03F000
ENDCHAR
STARTCHAR uni1E53
ENCODING 7763
SWIDTH 600 0
DWIDTH 20 0
BBX 17 25 2 0
BITMAP
001800
003C00
00F800
01E000
038000
010000
000000
0FFC00
0FFC00
000000
07F000
1FFC00
3FFE00
780F00
700700
F00780
E00380
E00380
E00380
F00780
700700
780F00
3FFE00
1FFC00
07F000
ENDCHAR
STARTCHAR uni1E54
ENCODING 7764
SWIDTH 600 0
DWIDTH 20 0
BBX 17 27 1 0
BITMAP
001800
003C00
00F800
01E000
038000
010000
000000
FFF800
FFFE00
FFFF00
1C0F00
1C0380
1C0380
1C0380
1C0380
1C0780
1C0F00
1FFE00
1FFC00
1FF000
1C0000
1C0000
1C0000
1C0000
FFE000
FFE000
FFE000
ENDCHAR
STARTCHAR uni1E55
ENCODING 7765
SWIDTH 600 0
DWIDTH 20 0
BBX 19 29 0 -7
BITMAP
000C00
001E00
007C00
00F000
01C000
008000
000000
FC7C00
FDFF00
FFFF80
1F03C0
1E01E0
1C00E0
1C00E0
1C00E0
1C00E0
1C01E0
1E01C0
1F07C0
1FFF80
1DFE00
1C7800
1C0000
1C0000
1C0000
1C0000
FFC000
FFC000
FFC000
ENDCHAR
STARTCHAR uni1E56
ENCODING 7766
SWIDTH 600 0
DWIDTH 20 0
BBX 17 24 1 0
BITMAP
01C000
01C000
01C000
000000
FFF800
FFFE00
FFFF00
1C0F00
1C0380
1C0380
1C0380
1C0380
1C0780
1C0F00
1FFE00
1FFC00
1FF000
1C0000
1C0000
1C0000
1C0000
FFE000
FFE000
FFE000
ENDCHAR
STARTCHAR uni1E57
ENCODING 7767
SWIDTH 600 0
DWIDTH 20 0
BBX 19 26 0 -7
BITMAP
00E000
00E000
00E000
000000
FC7C00
FDFF00
FFFF80
1F03C0
1E01E0
1C00E0
1C00E0
1C00E0
1C00E0
1C01E0
1E01C0
1F07C0
1FFF80
1DFE00
1C7800
1C0000
1C0000
1C0000
1C0000
FFC000
FFC000
FFC000
ENDCHAR
STARTCHAR uni1E58
ENCODING 7768
SWIDTH 600 0
DWIDTH 20 0
BBX 20 24 1 0
BITMAP
01C000
01C000
01C000
000000
FFF800
FFFE00
FFFF00
1C0F00
1C0780
1C0380
1C0380
1C0780
1C0F00
1FFE00
1FFC00
1FF800
1C3C00
1C1E00
1C0F00
1C0780
1C03C0
FF83F0
FF81F0
FF81F0
ENDCHAR
STARTCHAR uni1E59
ENCODING 7769
SWIDTH 600 0
DWIDTH 20 0
BBX 17 19 2 0
BITMAP
01C000
01C000
01C000
000000
7E3E00
7EFF00
7FFF80
0FC700
0F0200
0F0000
0E0000
0E0000
0E0000
0E0000
0E0000
0E0000
FFFC00
FFFC00
FFFC00
ENDCHAR
STARTCHAR uni1E5A
ENCODING 7770
SWIDTH 600 0
DWIDTH 20 0
BBX 20 24 1 -4
BITMAP
FFF800
FFFE00
FFFF00
1C0F00
1C0780
1C0380
1C0380
1C0780
1C0F00
1FFE00
1FFC00
1FF800
1C3C00
1C1E00
1C0F00
1C0780
1C03C0
FF83F0
FF81F0
FF81F0
000000
00E000
00E000
00E000
ENDCHAR
STARTCHAR uni1E5B
ENCODING 7771
SWIDTH 600 0
DWIDTH 20 0
BBX 17 19 2 -4
BITMAP
7E3E00
7EFF00
7FFF80
0FC700
0F0200
0F0000
0E0000
0E0000
0E0000
0E0000
0E0000
0E0000
FFFC00
FFFC00
FFFC00
000000
038000
038000
038000
ENDCHAR
STARTCHAR uni1E5C
ENCODING 7772
SWIDTH 600 0
DWIDTH 20 0
BBX 20 27 1 -4
BITMAP
0FFC00
0FFC00
000000
FFF800
FFFE00
FFFF00
1C0F00
1C0780
1C0380
1C0380
1C0780
1C0F00
1FFE00
1FFC00
1FF800
1C3C00
1C1E00
1C0F00
1C0780
1C03C0
FF83F0
FF81F0
FF81F0
000000
00E000
00E000
00E000
ENDCHAR
STARTCHAR uni1E5D
ENCODING 7773
SWIDTH 600 0
DWIDTH 20 0
BBX 17 22 2 -4
BITMAP
0FFC00
0FFC00
000000
7E3E00
7EFF00
7FFF80
0FC700
0F0200
0F0000
0E0000
0E0000
0E0000
0E0000
0E0000
0E0000
FFFC00
FFFC00
FFFC00
000000
038000
038000
038000
ENDCHAR
STARTCHAR uni1E5E
ENCODING 7774
SWIDTH 600 0
DWIDTH 20 0
BBX 20 23 1 -3
BITMAP
FFF800
FFFE00
FFFF00
1C0F00
1C0780
1C0380
1C0380
1C0780
1C0F00
1FFE00
1FFC00
1FF800
1C3C00
1C1E00
1C0F00
1C0780
1C03C0
FF83F0
FF81F0
FF81F0
000000
07FE00
07FE00
ENDCHAR
STARTCHAR uni1E5F
ENCODING 7775
SWIDTH 600 0
DWIDTH 20 0
BBX 17 18 2 -3
BITMAP
7E3E00
7EFF00
7FFF80
0FC700
0F0200
0F0000
0E0000
0E0000
0E0000
0E0000
0E0000
0E0000
FFFC00
FFFC00
FFFC00
000000
3FF000
3FF000
ENDCHAR
STARTCHAR uni1E60
ENCODING 7776
SWIDTH 600 0
DWIDTH 20 0
BBX 15 24 2 0
BITMAP
0380
0380
0380
0000
0FCC
3FFC
7FFC
F07C
E01C
E01C
F01C
F800
7F00
3FE0
0FF8
01FC
003E
E01E
E00E
E00E
F01E
FFFC
FFF8
E7E0
ENDCHAR
STARTCHAR uni1E61
ENCODING 7777
SWIDTH 600 0
DWIDTH 20 0
BBX 15 19 3 0
BITMAP
0380
0380
0380
0000
0FEC
3FFC
3FFC
783C
701C
7800
7FC0
3FF8
0FFC
E03E
E00E
F81E
FFFC
FFF8
E7E0
ENDCHAR
STARTCHAR uni1E62
ENCODING 7778
SWIDTH 600 0
DWIDTH 20 0
BBX 15 24 2 -4
BITMAP
0FCC
3FFC
7FFC
F07C
E01C
E01C
F01C
F800
7F00
3FE0
0FF8
01FC
003E
E01E
E00E
E00E
F01E
FFFC
FFF8
E7E0
0000
0380
0380
0380
ENDCHAR
STARTCHAR uni1E63
ENCODING 7779
SWIDTH 600 0
DWIDTH 20 0
BBX 15 19 3 -4
BITMAP
0FEC
3FFC
3FFC
783C
701C
7800
7FC0
3FF8
0FFC
E03E
E00E
F81E
FFFC
FFF8
E7E0
0000
0700
0700
0700
ENDCHAR
STARTCHAR uni1E64
ENCODING 7780
SWIDTH 600 0
DWIDTH 20 0
BBX 15 31 2 0
BITMAP
01C0
01C0
01C0
0000
0030
0078
01F0
03C0
0700
0200
0000
0FCC
3FFC
7FFC
F07C
E01C
E01C
F01C
F800
7F00
3FE0
0FF8
01FC
003E
E01E
E00E
E00E
F01E
FFFC
FFF8
E7E0
ENDCHAR
STARTCHAR uni1E65
ENCODING 7781
SWIDTH 600 0
DWIDTH 20 0
BBX 15 26 3 0
BITMAP
00E0
00E0
00E0
0000
0018
003C
00F8
01E0
0380
0100
0000
0FEC
3FFC
3FFC
783C
701C
7800
7FC0
3FF8
0FFC
E03E
E00E
F81E
FFFC
FFF8
E7E0
ENDCHAR
STARTCHAR uni1E66
ENCODING 7782
SWIDTH 600 0
DWIDTH 20 0
BBX 15 30 2 0
BITMAP
0380
0380
0380
0000
1830
1EF0
0FE0
0380
0100
0000
07C8
1FFC
3FFC
7C7C
703C
701C
701C
7000
7C00
3FC0
1FF0
07F8
007C
401C
E00E
E01E
F83C
FFFC
FFF0
4FE0
ENDCHAR
STARTCHAR uni1E67
ENCODING 7783
SWIDTH 600 0
DWIDTH 20 0
BBX 15 25 2 0
BITMAP
0380
0380
0380
0000
1830
1EF0
0FE0
0380
0100
0000
0FE8
3FFC
3FFC
783C
701C
7800
3FE0
3FF8
0FFC
403C
E01E
F83E
FFFC
FFF8
4FE0
ENDCHAR
STARTCHAR uni1E68
ENCODING 7784
SWIDTH 600 0
DWIDTH 20 0
BBX 15 28 2 -4
BITMAP
0380
0380
0380
0000
0FCC
3FFC
7FFC
F07C
E01C
E01C
F01C
F800
7F00
3FE0
0FF8
01FC
003E
E01E
E00E
E00E
F01E
FFFC
FFF8
E7E0
0000
0380
0380
0380
ENDCHAR
STARTCHAR uni1E69
ENCODING 7785
SWIDTH 600 0
DWIDTH 20 0
BBX 15 23 3 -4
BITMAP
0380
0380
0380
0000
0FEC
3FFC
3FFC
783C
701C
7800
7FC0
3FF8
0FFC
E03E
E00E
F81E
FFFC
FFF8
E7E0
0000
0700
0700
0700
ENDCHAR
STARTCHAR uni1E6A
ENCODING 7786
SWIDTH 600 0
DWIDTH 20 0
BBX 17 24 1 0
BITMAP
01C000
01C000
01C000
000000
FFFF80
FFFF80
FFFF80
E1C380
E1C380
E1C380
E1C380
E1C380
E1C380
01C000
01C000
01C000
01C000
01C000
01C000
01C000
01C000
3FFE00
3FFE00
3FFE00
ENDCHAR
STARTCHAR uni1E6B
ENCODING 7787
SWIDTH 600 0
DWIDTH 20 0
BBX 16 24 2 0
BITMAP
0700
0700
0700
0000
1C00
1C00
1C00
1C00
1C00
FFFC
FFFC
FFFC
1C00
1C00
1C00
1C00
1C00
1C00
1C00
1C06
1E1F
1FFF
0FFE
03F0
ENDCHAR
STARTCHAR uni1E6C
ENCODING 7788
SWIDTH 600 0
DWIDTH 20 0
BBX 17 24 1 -4
BITMAP
FFFF80
FFFF80
FFFF80
E1C380
E1C380
E1C380
E1C380
E1C380
E1C380
01C000
01C000
01C000
01C000
01C000
01C000
01C000
01C000
3FFE00
3FFE00
3FFE00
000000
01C000
01C000
01C000
ENDCHAR
STARTCHAR uni1E6D
ENCODING 7789
SWIDTH 600 0
DWIDTH 20 0
BBX 16 24 2 -4
BITMAP
1C00
1C00
1C00
1C00
1C00
FFFC
FFFC
FFFC
1C00
1C00
1C00
1C00
1C00
1C00
1C00
1C06
1E1F
1FFF
0FFE
03F0
0000
01C0
01C0
01C0
ENDCHAR
STARTCHAR uni1E6E
ENCODING 7790
SWIDTH 600 0
DWIDTH 20 0
BBX 17 23 1 -3
BITMAP
FFFF80
FFFF80
FFFF80
E1C380
E1C380
E1C380
E1C380
E1C380
E1C380
01C000
01C000
01C000
01C000
01C000
01C000
01C000
01C000
3FFE00
3FFE00
3FFE00
000000
0FFC00
0FFC00
ENDCHAR
STARTCHAR uni1E6F
ENCODING 7791
SWIDTH 600 0
DWIDTH 20 0
BBX 16 23 2 -3
BITMAP
1C00
1C00
1C00
1C00
1C00
FFFC
FFFC
FFFC
1C00
1C00
1C00
1C00
1C00
1C00
1C00
1C06
1E1F
1FFF
0FFE
03F0
0000
0FFC
0FFC
ENDCHAR
STARTCHAR uni1E70
ENCODING 7792
SWIDTH 600 0
DWIDTH 20 0
BBX 17 26 1 -6
BITMAP
FFFF80
FFFF80
FFFF80
E1C380
E1C380
E1C380
E1C380
E1C380
E1C380
01C000
01C000
01C000
01C000
01C000
01C000
01C000
01C000
3FFE00
3FFE00
3FFE00
000000
008000
01C000
07F000
0F7800
0C1800
ENDCHAR
STARTCHAR uni1E71
ENCODING 7793
SWIDTH 600 0
DWIDTH 20 0
BBX 16 26 2 -6
BITMAP
1C00
1C00
1C00
1C00
1C00
FFFC
FFFC
FFFC
1C00
1C00
1C00
1C00
1C00
1C00
1C00
1C06
1E1F
1FFF
0FFE
03F0
0000
0080
01C0
07F0
0F78
0C18
ENDCHAR
STARTCHAR uni1E72
ENCODING 7794
SWIDTH 600 0
DWIDTH 20 0
BBX 19 25 0 -5
BITMAP
FF1FE0
FF1FE0
FF1FE0
380380
380380
380380
380380
380380
380380
380380
380380
380380
380380
380380
380380
1C0700
1F1F00
0FFE00
07FC00
01F000
000000
060C00
0F1E00
0F1E00
060C00
ENDCHAR
STARTCHAR uni1E73
ENCODING 7795
SWIDTH 600 0
DWIDTH 20 0
BBX 18 20 1 -5
BITMAP
FC3F00
FC3F00
FC3F00
1C0700
1C0700
1C0700
1C0700
1C0700
1C0700
1C0700
1C0700
1E1F00
1FFFC0
0FFFC0
07F7C0
000000
030600
078F00
078F00
030600
ENDCHAR
STARTCHAR uni1E74
ENCODING 7796
SWIDTH 600 0
DWIDTH 20 0
BBX 19 24 0 -4
BITMAP
FF1FE0
FF1FE0
FF1FE0
380380
380380
380380
380380
380380
380380
380380
380380
380380
380380
380380
380380
1C0700
1F1F00
0FFE00
07FC00
01F000
000000
03C600
07FE00
067C00
ENDCHAR
STARTCHAR uni1E75
ENCODING 7797
SWIDTH 600 0
DWIDTH 20 0
BBX 18 19 1 -4
BITMAP
FC3F00
FC3F00
FC3F00
1C0700
1C0700
1C0700
1C0700
1C0700
1C0700
1C0700
1C0700
1E1F00
1FFFC0
0FFFC0
07F7C0
000000
03C600
07FE00
067C00
ENDCHAR
STARTCHAR uni1E76
ENCODING 7798
SWIDTH 600 0
DWIDTH 20 0
BBX 19 26 0 -6
BITMAP
FF1FE0
FF1FE0
FF1FE0
380380
380380
380380
380380
380380
380380
380380
380380
380380
380380
380380
380380
1C0700
1F1F00
0FFE00
07FC00
01F000
000000
004000
00E000
03F800
07BC00
060C00
ENDCHAR
STARTCHAR uni1E77
ENCODING 7799
SWIDTH 600 0
DWIDTH 20 0
BBX 18 21 1 -6
BITMAP
FC3F00
FC3F00
FC3F00
1C0700
1C0700
1C0700
1C0700
1C0700
1C0700
1C0700
1C0700
1E1F00
1FFFC0
0FFFC0
07F7C0
000000
002000
007000
01FC00
03DE00
030600
ENDCHAR
STARTCHAR uni1E78
ENCODING 7800
SWIDTH 600 0
DWIDTH 20 0
BBX 19 31 0 0
BITMAP
000C00
001E00
007C00
00F000
01C000
008000
000000
03C600
07FE00
067C00
000000
FF1FE0
FF1FE0
FF1FE0
380380
380380
380380
380380
380380
380380
380380
380380
380380
380380
380380
380380
1C0700
1F1F00
0FFE00
07FC00
01F000
ENDCHAR
STARTCHAR uni1E79
ENCODING 7801
SWIDTH 600 0
DWIDTH 20 0
BBX 18 26 1 0
BITMAP
001800
003C00
00F800
01E000
038000
010000
000000
078C00
0FFC00
0CF800
000000
FC3F00
FC3F00
FC3F00
1C0700
1C0700
1C0700
1C0700
1C0700
1C0700
1C0700
1C0700
1E1F00
1FFFC0
0FFFC0
07F7C0
ENDCHAR
STARTCHAR uni1E7A
ENCODING 7802
SWIDTH 600 0
DWIDTH 20 0
BBX 19 28 0 0
BITMAP
060C00
0F1E00
0F1E00
060C00
000000
07FE00
07FE00
000000
FF1FE0
FF1FE0
FF1FE0
380380
380380
380380
380380
380380
380380
380380
380380
380380
380380
380380
380380
1C0700
1F1F00
0FFE00
07FC00
01F000
ENDCHAR
STARTCHAR uni1E7B
ENCODING 7803
SWIDTH 600 0
DWIDTH 20 0
BBX 18 23 1 0
BITMAP
0C1800
1E3C00
1E3C00
0C1800
000000
1FF800
1FF800
000000
FC3F00
FC3F00
FC3F00
1C0700
1C0700
1C0700
1C0700
1C0700
1C0700
1C0700
1C0700
1E1F00
1FFFC0
0FFFC0
07F7C0
ENDCHAR
STARTCHAR uni1E7C
ENCODING 7804
SWIDTH 600 0
DWIDTH 20 0
BBX 21 24 -1 0
BITMAP
01E300
03FF00
033E00
000000
FF8FF8
FF8FF8
FF8FF8
1C01C0
1C01C0
1E03C0
0E0380
0E0380
070700
070700
078F00
038E00
038E00
03DE00
01DC00
01DC00
00F800
00F800
00F800
007000
ENDCHAR
STARTCHAR uni1E7D
ENCODING 7805
SWIDTH 600 0
DWIDTH 20 0
BBX 19 19 0 0
BITMAP
078C00
0FFC00
0CF800
000000
FF1FE0
FF1FE0
FF1FE0
3C0700
1C0700
1E0E00
0E0E00
0F1C00
071C00
07B800
03B800
03F000
01F000
01E000
00E000
ENDCHAR
STARTCHAR uni1E7E
ENCODING 7806
SWIDTH 600 0
DWIDTH 20 0
BBX 21 24 -1 -4
BITMAP
FF8FF8
FF8FF8
FF8FF8
1C01C0
1C01C0
1E03C0
0E0380
0E0380
070700
070700
078F00
038E00
038E00
03DE00
01DC00
01DC00
00F800
00F800
00F800
007000
000000
007000
007000
007000
ENDCHAR
STARTCHAR uni1E7F
ENCODING 7807
SWIDTH 600 0
DWIDTH 20 0
BBX 19 19 0 -4
BITMAP
FF1FE0
FF1FE0
FF1FE0
3C0700
1C0700
1E0E00
0E0E00
0F1C00
071C00
07B800
03B800
03F000
01F000
01E000
00E000
000000
00E000
00E000
00E000
ENDCHAR
STARTCHAR Wgrave
ENCODING 7808
SWIDTH 600 0
DWIDTH 20 0
BBX 19 27 0 0
BITMAP
060000
070000
038000
01C000
00E000
006000
000000
FF1FE0
FF1FE0
FF1FE0
7001C0
7001C0
70E1C0
70E1C0
71F1C0
39F380
39F380
3BBB80
3BBB80
3BBB80
3F1F80
3F1F80
1E0F00
1E0F00
1E0F00
1C0700
1C0700
ENDCHAR
STARTCHAR wgrave
ENCODING 7809
SWIDTH 600 0
DWIDTH 20 0
BBX 19 22 0 0
BITMAP
060000
070000
038000
01C000
00E000
006000
000000
FE0FE0
FE0FE0
FE0FE0
38E380
38E380
39F380
3DF780
1DF700
1FBF00
1F1F00
1F1F00
0F1E00
0E0E00
0E0E00
0E0E00
ENDCHAR
STARTCHAR Wacute
ENCODING 7810
SWIDTH 600 0
DWIDTH 20 0
BBX 19 27 0 0
BITMAP
000C00
001E00
007C00
00F000
01C000
008000
000000
FF1FE0
FF1FE0
FF1FE0
7001C0
7001C0
70E1C0
70E1C0
71F1C0
39F380
39F380
3BBB80
3BBB80
3BBB80
3F1F80
3F1F80
1E0F00
1E0F00
1E0F00
1C0700
1C0700
ENDCHAR
STARTCHAR wacute
ENCODING 7811
SWIDTH 600 0
DWIDTH 20 0
BBX 19 22 0 0
BITMAP
000C00
001E00
007C00
00F000
01C000
008000
000000
FE0FE0
FE0FE0
FE0FE0
38E380
38E380
39F380
3DF780
1DF700
1FBF00
1F1F00
1F1F00
0F1E00
0E0E00
0E0E00
0E0E00
ENDCHAR
STARTCHAR Wdieresis
ENCODING 7812
SWIDTH 600 0
DWIDTH 20 0
BBX 19 25 0 0
BITMAP
060C00
0F1E00
0F1E00
060C00
000000
FF1FE0
FF1FE0
FF1FE0
7001C0
7001C0
70E1C0
70E1C0
71F1C0
39F380
39F380
3BBB80
3BBB80
3BBB80
3F1F80
3F1F80
1E0F00
1E0F00
1E0F00
1C0700
1C0700
ENDCHAR
STARTCHAR wdieresis
ENCODING 7813
SWIDTH 600 0
DWIDTH 20 0
BBX 19 20 0 0
BITMAP
060C00
0F1E00
0F1E00
060C00
000000
FE0FE0
FE0FE0
FE0FE0
38E380
38E380
39F380
3DF780
1DF700
1FBF00
1F1F00
1F1F00
0F1E00
0E0E00
0E0E00
0E0E00
ENDCHAR
STARTCHAR uni1E86
ENCODING 7814
SWIDTH 600 0
DWIDTH 20 0
BBX 19 24 0 0
BITMAP
00E000
00E000
00E000
000000
FF1FE0
FF1FE0
FF1FE0
7001C0
7001C0
70E1C0
70E1C0
71F1C0
39F380
39F380
3BBB80
3BBB80
3BBB80
3F1F80
3F1F80
1E0F00
1E0F00
1E0F00
1C0700
1C0700
ENDCHAR
STARTCHAR uni1E87
ENCODING 7815
SWIDTH 600 0
DWIDTH 20 0
BBX 19 19 0 0
BITMAP
00E000
00E000
00E000
000000
FE0FE0
FE0FE0
FE0FE0
38E380
38E380
39F380
3DF780
1DF700
1FBF00
1F1F00
1F1F00
0F1E00
0E0E00
0E0E00
0E0E00
ENDCHAR
STARTCHAR uni1E88
ENCODING 7816
SWIDTH 600 0
DWIDTH 20 0
BBX 19 24 0 -4
BITMAP
FF1FE0
FF1FE0
FF1FE0
7001C0
7001C0
70E1C0
70E1C0
71F1C0
39F380
39F380
3BBB80
3BBB80
3BBB80
3F1F80
3F1F80
1E0F00
1E0F00
1E0F00
1C0700
1C0700
000000
00E000
00E000
00E000
ENDCHAR
STARTCHAR uni1E89
ENCODING 7817
SWIDTH 600 0
DWIDTH 20 0
BBX 19 19 0 -4
BITMAP
FE0FE0
FE0FE0
FE0FE0
38E380
38E380
39F380
3DF780
1DF700
1FBF00
1F1F00
1F1F00
0F1E00
0E0E00
0E0E00
0E0E00
000000
00E000
00E000
00E000
ENDCHAR
STARTCHAR uni1E8A
ENCODING 7818
SWIDTH 600 0
DWIDTH 20 0
BBX 19 24 0 0
BITMAP
00E000
00E000
00E000
000000
FF1FE0
FF1FE0
FF1FE0
3C0780
1E0F00
0F1E00
07BC00
03F800
01F000
00E000
01F000
03F800
07BC00
0F1E00
0E0E00
1E0F00
3C0780
FF1FE0
FF1FE0
FF1FE0
ENDCHAR
STARTCHAR uni1E8B
ENCODING 7819
SWIDTH 600 0
DWIDTH 20 0
BBX 17 19 1 0
BITMAP
01C000
01C000
01C000
000000
FE3F80
FE3F80
FE3F80
3C1C00
1E3800
0F7000
07E000
03E000
03F000
077800
0E3C00
1C1E00
FE3F80
FE3F80
FE3F80
ENDCHAR
STARTCHAR uni1E8C
ENCODING 7820
SWIDTH 600 0
DWIDTH 20 0
BBX 19 25 0 0
BITMAP
060C00
0F1E00
0F1E00
060C00
000000
FF1FE0
FF1FE0
FF1FE0
3C0780
1E0F00
0F1E00
07BC00
03F800
01F000
00E000
01F000
03F800
07BC00
0F1E00
0E0E00
1E0F00
3C0780
FF1FE0
FF1FE0
FF1FE0
ENDCHAR
STARTCHAR uni1E8D
ENCODING 7821
SWIDTH 600 0
DWIDTH 20 0
BBX 17 20 1 0
BITMAP
0C1800
1E3C00
1E3C00
0C1800
000000
FE3F80
FE3F80
FE3F80
3C1C00
1E3800
0F7000
07E000
03E000
03F000
077800
0E3C00
1C1E00
FE3F80
FE3F80
FE3F80
ENDCHAR
STARTCHAR uni1E8E
ENCODING 7822
SWIDTH 600 0
DWIDTH 20 0
BBX 19 24 0 0
BITMAP
00E000
00E000
00E000
000000
FF1FE0
FF1FE0
FF1FE0
3C0780
0E0E00
0F1E00
071C00
07BC00
03F800
01F000
01F000
00E000
00E000
00E000
00E000
00E000
00E000
0FFE00
0FFE00
0FFE00
ENDCHAR
STARTCHAR uni1E8F
ENCODING 7823
SWIDTH 600 0
DWIDTH 20 0
BBX 19 26 1 -7
BITMAP
00E000
00E000
00E000
000000
FF1FE0
FF1FE0
FF1FE0
3C0380
1C0700
1E0700
0E0E00
0F0E00
071C00
079C00
03B800
03F800
01F000
01F000
00E000
00E000
01C000
01C000
038000
7FF000
7FF000
7FF000
ENDCHAR
STARTCHAR uni1E90
ENCODING 7824
SWIDTH 600 0
DWIDTH 20 0
BBX 15 26 2 0
BITMAP
0100
0380
0FE0
1EF0
1830
0000
7FFC
7FFC
7FFC
703C
7038
7078
70F0
71E0
01C0
03C0
0780
0F00
0E0E
1E0E
3C0E
780E
700E
FFFE
FFFE
FFFE
ENDCHAR
STARTCHAR uni1E91
ENCODING 7825
SWIDTH 600 0
DWIDTH 20 0
BBX 13 21 4 0
BITMAP
0200
0700
1FC0
3DE0
3060
0000
FFF8
FFF8
FFF8
E0F0
E1E0
E3C0
0780
0F00
1E00
3C00
7838
F038
FFF8
FFF8
FFF8
ENDCHAR
STARTCHAR uni1E92
ENCODING 7826
SWIDTH 600 0
DWIDTH 20 0
BBX 15 24 2 -4
BITMAP
7FFC
7FFC
7FFC
703C
7038
7078
70F0
71E0
01C0
03C0
0780
0F00
0E0E
1E0E
3C0E
780E
700E
FFFE
FFFE
FFFE
0000
0380
0380
0380
ENDCHAR
STARTCHAR uni1E93
ENCODING 7827
SWIDTH 600 0
DWIDTH 20 0
BBX 13 19 4 -4
BITMAP
FFF8
FFF8
FFF8
E0F0
E1E0
E3C0
0780
0F00
1E00
3C00
7838
F038
FFF8
FFF8
FFF8
0000
0700
0700
0700
ENDCHAR
STARTCHAR uni1E94
ENCODING 7828
SWIDTH 600 0
DWIDTH 20 0
BBX 15 23 2 -3
BITMAP
7FFC
7FFC
7FFC
703C
7038
7078
70F0
71E0
01C0
03C0
0780
0F00
0E0E
1E0E
3C0E
780E
700E
FFFE
FFFE
FFFE
0000
1FF8
1FF8
ENDCHAR
STARTCHAR uni1E95
ENCODING 7829
SWIDTH 600 0
DWIDTH 20 0
BBX 13 18 4 -3
BITMAP
FFF8
FFF8
FFF8
E0F0
E1E0
E3C0
0780
0F00
1E00
3C00
7838
F038
FFF8
FFF8
FFF8
0000
7FE0
7FE0
ENDCHAR
STARTCHAR uni1E96
ENCODING 7830
SWIDTH 600 0
DWIDTH 20 0
BBX 18 24 1 -3
BITMAP
FC0000
FC0000
FC0000
1C0000
1C0000
1C0000
1CF800
1DFC00
1FFE00
1F0F00
1E0700
1C0700
1C0700
1C0700
1C0700
1C0700
1C0700
1C0700
7F1FC0
7F1FC0
7F1FC0
000000
0FFC00
0FFC00
ENDCHAR
STARTCHAR uni1E97
ENCODING 7831
SWIDTH 600 0
DWIDTH 20 0
BBX 16 25 2 0
BITMAP
3060
78F0
78F0
3060
0000
1C00
1C00
1C00
1C00
1C00
FFFC
FFFC
FFFC
1C00
1C00
1C00
1C00
1C00
1C00
1C00
1C06
1E1F
1FFF
0FFE
03F0
ENDCHAR
STARTCHAR uni1E98
ENCODING 7832
SWIDTH 600 0
DWIDTH 20 0
BBX 19 21 0 0
BITMAP
00E000
01B000
011000
01B000
00E000
000000
FE0FE0
FE0FE0
FE0FE0
38E380
38E380
39F380
3DF780
1DF700
1FBF00
1F1F00
1F1F00
0F1E00
0E0E00
0E0E00
0E0E00
ENDCHAR
STARTCHAR uni1E99
ENCODING 7833
SWIDTH 600 0
DWIDTH 20 0
BBX 19 28 1 -7
BITMAP
00E000
01B000
011000
01B000
00E000
000000
FF1FE0
FF1FE0
FF1FE0
3C0380
1C0700
1E0700
0E0E00
0F0E00
071C00
079C00
03B800
03F800
01F000
01F000
00E000
00E000
01C000
01C000
038000
7FF000
7FF000
7FF000
ENDCHAR
STARTCHAR uni1EA0
ENCODING 7840
SWIDTH 600 0
DWIDTH 20 0
BBX 21 24 -1 -4
BITMAP
1FF000
1FF800
1FF800
01DC00
01DC00
01DC00
038E00
038E00
038E00
070700
070700
070700
0FFF80
0FFF80
1FFFC0
1C01C0
1C01C0
FF8FF8
FF8FF8
FF8FF8
000000
007000
007000
007000
ENDCHAR
STARTCHAR uni1EA1
ENCODING 7841
SWIDTH 600 0
DWIDTH 20 0
BBX 16 19 2 -4
BITMAP
1FE0
7FF8
7FFC
703C
001C
001C
0FFC
7FFC
7FFC
F01C
E01C
E07C
FFFF
7FDF
3F9F
0000
01C0
01C0
01C0
ENDCHAR
STARTCHAR uni1EA4
ENCODING 7844
SWIDTH 600 0
DWIDTH 20 0
BBX 21 33 -1 0
BITMAP
000C00
001E00
007C00
00F000
01C000
008000
000000
004000
00E000
03B800
071C00
0E0E00
000000
1FF000
1FF800
1FF800
01FC00
01DC00
01DC00
03DE00
038E00
038E00
070700
070700
070700
0FFF80
0FFF80
1FFFC0
1C01C0
1C01C0
FF8FF8
FF8FF8
FF8FF8
ENDCHAR
STARTCHAR uni1EA5
ENCODING 7845
SWIDTH 600 0
DWIDTH 20 0
BBX 17 29 1 0
BITMAP
001800
003C00
00F800
01E000
038000
010000
000000
008000
01C000
077000
0E3800
1C1C00
000000
000000
07E000
3FF000
3FF800
3C3C00
001C00
001C00
0FFC00
3FFC00
7FFC00
781C00
F01C00
E03C00
FFFF80
7FFF80
3F9F80
ENDCHAR
STARTCHAR uni1EA6
ENCODING 7846
SWIDTH 600 0
DWIDTH 20 0
BBX 21 33 -1 0
BITMAP
060000
070000
038000
01C000
00E000
006000
000000
004000
00E000
03B800
071C00
0E0E00
000000
1FF000
1FF800
1FF800
01FC00
01DC00
01DC00
03DE00
038E00
038E00
070700
070700
070700
0FFF80
0FFF80
1FFFC0
1C01C0
1C01C0
FF8FF8
FF8FF8
FF8FF8
ENDCHAR
STARTCHAR uni1EA7
ENCODING 7847
SWIDTH 600 0
DWIDTH 20 0
BBX 17 29 1 0
BITMAP
0C0000
0E0000
070000
038000
01C000
00C000
000000
008000
01C000
077000
0E3800
1C1C00
000000
000000
07E000
3FF000
3FF800
3C3C00
001C00
001C00
0FFC00
3FFC00
7FFC00
781C00
F01C00
E03C00
FFFF80
7FFF80
3F9F80
ENDCHAR
STARTCHAR uni1EAA
ENCODING 7850
SWIDTH 600 0
DWIDTH 20 0
BBX 21 30 -1 0
BITMAP
078C00
0FFC00
0CF800
000000
004000
00E000
03B800
071C00
0E0E00
000000
1FF000
1FF800
1FF800
01FC00
01DC00
01DC00
03DE00
038E00
038E00
070700
070700
070700
0FFF80
0FFF80
1FFFC0
1C01C0
1C01C0
FF8FF8
FF8FF8
FF8FF8
ENDCHAR
STARTCHAR uni1EAB
ENCODING 7851
SWIDTH 600 0
DWIDTH 20 0
BBX 17 26 1 0
BITMAP
078C00
0FFC00
0CF800
000000
008000
01C000
077000
0E3800
1C1C00
000000
000000
07E000
3FF000
3FF800
3C3C00
001C00
001C00
0FFC00
3FFC00
7FFC00
781C00
F01C00
E03C00
FFFF80
7FFF80
3F9F80
ENDCHAR
STARTCHAR uni1EAC
ENCODING 7852
SWIDTH 600 0
DWIDTH 20 0
BBX 21 30 -1 -4
BITMAP
004000
00E000
03F800
07BC00
060C00
000000
1FF000
1FF800
1FF800
01DC00
01DC00
01DC00
038E00
038E00
038E00
070700
070700
070700
0FFF80
0FFF80
1FFFC0
1C01C0
1C01C0
FF8FF8
FF8FF8
FF8FF8
000000
007000
007000
007000
ENDCHAR
STARTCHAR uni1EAD
ENCODING 7853
SWIDTH 600 0
DWIDTH 20 0
BBX 16 25 2 -4
BITMAP
0100
0380
0FE0
1EF0
1830
0000
1FE0
7FF8
7FFC
703C
001C
001C
0FFC
7FFC
7FFC
F01C
E01C
E07C
FFFF
7FDF
3F9F
0000
01C0
01C0
01C0
ENDCHAR
STARTCHAR uni1EAE
ENCODING 7854
SWIDTH 600 0
DWIDTH 20 0
BBX 21 33 -1 0
BITMAP
000C00
001E00
007C00
00F000
01C000
008000
000000
060C00
060C00
071C00
07FC00
01F000
000000
1FF000
1FF800
1FF800
01DC00
01DC00
01DC00
038E00
038E00
038E00
070700
070700
070700
0FFF80
0FFF80
1FFFC0
1C01C0
1C01C0
FF8FF8
FF8FF8
FF8FF8
ENDCHAR
STARTCHAR uni1EAF
ENCODING 7855
SWIDTH 600 0
DWIDTH 20 0
BBX 16 28 2 0
BITMAP
0030
0078
01F0
03C0
0700
0200
0000
1830
1830
1C70
1FF0
07C0
0000
1FE0
7FF8
7FFC
703C
001C
001C
0FFC
7FFC
7FFC
F01C
E01C
E07C
FFFF
7FDF
3F9F
ENDCHAR
STARTCHAR uni1EB0
ENCODING 7856
SWIDTH 600 0
DWIDTH 20 0
BBX 21 33 -1 0
BITMAP
060000
070000
038000
01C000
00E000
006000
000000
060C00
060C00
071C00
07FC00
01F000
000000
1FF000
1FF800
1FF800
01DC00
01DC00
01DC00
038E00
038E00
038E00
070700
070700
070700
0FFF80
0FFF80
1FFFC0
1C01C0
1C01C0
FF8FF8
FF8FF8
FF8FF8
ENDCHAR
STARTCHAR uni1EB1
ENCODING 7857
SWIDTH 600 0
DWIDTH 20 0
BBX 16 28 2 0
BITMAP
0C00
0E00
0700
0380
01C0
00C0
0000
1830
1830
1C70
1FF0
07C0
0000
1FE0
7FF8
7FFC
703C
001C
001C
0FFC
7FFC
7FFC
F01C
E01C
E07C
FFFF
7FDF
3F9F
ENDCHAR
STARTCHAR uni1EB4
ENCODING 7860
SWIDTH 600 0
DWIDTH 20 0
BBX 21 30 -1 0
BITMAP
03C600
07FE00
067C00
000000
060C00
060C00
071C00
07FC00
01F000
000000
1FF000
1FF800
1FF800
01DC00
01DC00
01DC00
038E00
038E00
038E00
070700
070700
070700
0FFF80
0FFF80
1FFFC0
1C01C0
1C01C0
FF8FF8
FF8FF8
FF8FF8
ENDCHAR
STARTCHAR uni1EB5
ENCODING 7861
SWIDTH 600 0
DWIDTH 20 0
BBX 16 25 2 0
BITMAP
0F18
1FF8
19F0
0000
1830
1830
1C70
1FF0
07C0
0000
1FE0
7FF8
7FFC
703C
001C
001C
0FFC
7FFC
7FFC
F01C
E01C
E07C
FFFF
7FDF
3F9F
ENDCHAR
STARTCHAR uni1EB6
ENCODING 7862
SWIDTH 600 0
DWIDTH 20 0
BBX 21 30 -1 -4
BITMAP
060C00
060C00
071C00
07FC00
01F000
000000
1FF000
1FF800
1FF800
01DC00
01DC00
01DC00
038E00
038E00
038E00
070700
070700
070700
0FFF80
0FFF80
1FFFC0
1C01C0
1C01C0
FF8FF8
FF8FF8
FF8FF8
000000
007000
007000
007000
ENDCHAR
STARTCHAR uni1EB7
ENCODING 7863
SWIDTH 600 0
DWIDTH 20 0
BBX 16 25 2 -4
BITMAP
1830
1830
1C70
1FF0
07C0
0000
1FE0
7FF8
7FFC
703C
001C
001C
0FFC
7FFC
7FFC
F01C
E01C
E07C
FFFF
7FDF
3F9F
0000
01C0
01C0
01C0
ENDCHAR
STARTCHAR uni1EB8
ENCODING 7864
SWIDTH 600 0
DWIDTH 20 0
BBX 17 24 1 -4
BITMAP
FFFF00
FFFF00
FFFF00
1C0700
1C0700
1C0700
1C7700
1C7000
1FF000
1FF000
1FF000
1C7000
1C7000
1C0380
1C0380
1C0380
1C0380
FFFF80
FFFF80
FFFF80
000000
01C000
01C000
01C000
ENDCHAR
STARTCHAR uni1EB9
ENCODING 7865
SWIDTH 600 0
DWIDTH 20 0
BBX 18 19 1 -4
BITMAP
03F000
0FFC00
1FFE00
3E1F00
780780
700380
FFFF80
FFFF80
FFFF80
F00000
780000
7E0380
3FFFC0
1FFF80
07FE00
000000
00E000
00E000
00E000
ENDCHAR
STARTCHAR uni1EBC
ENCODING 7868
SWIDTH 600 0
DWIDTH 20 0
BBX 17 24 1 0
BITMAP
0F1800
1FF800
19F000
000000
FFFF00
FFFF00
FFFF00
1C0700
1C0700
1C0700
1C7700
1C7000
1FF000
1FF000
1FF000
1C7000
1C7000
1C0380
1C0380
1C0380
1C0380
FFFF80
FFFF80
FFFF80
ENDCHAR
STARTCHAR uni1EBD
ENCODING 7869
SWIDTH 600 0
DWIDTH 20 0
BBX 18 19 1 0
BITMAP
078C00
0FFC00
0CF800
000000
03F000
0FFC00
1FFE00
3E1F00
780780
700380
FFFF80
FFFF80
FFFF80
F00000
780000
7E0380
3FFFC0
1FFF80
07FE00
ENDCHAR
STARTCHAR uni1EBE
ENCODING 7870
SWIDTH 600 0
DWIDTH 20 0
BBX 17 33 1 0
BITMAP
001800
003C00
00F800
01E000
038000
010000
000000
008000
01C000
077000
0E3800
1C1C00
000000
FFFF00
FFFF00
FFFF00
1C0700
1C0700
1C0700
1C7700
1C7000
1FF000
1FF000
1FF000
1C7000
1C7000
1C0380
1C0380
1C0380
1C0380
FFFF80
FFFF80
FFFF80
ENDCHAR
STARTCHAR uni1EBF
ENCODING 7871
SWIDTH 600 0
DWIDTH 20 0
BBX 16 29 1 0
BITMAP
0018
003C
00F8
01E0
0380
0100
0000
0080
01C0
0770
0E38
1C1C
0000
0000
07E0
1FF8
3FFC
7C3E
700E
F00F
FFFF
FFFF
FFFF
E000
7000
7C1F
3FFF
1FFF
07F0
ENDCHAR
STARTCHAR uni1EC0
ENCODING 7872
SWIDTH 600 0
DWIDTH 20 0
BBX 17 33 1 0
BITMAP
0C0000
0E0000
070000
038000
01C000
00C000
000000
008000
01C000
077000
0E3800
1C1C00
000000
FFFF00
FFFF00
FFFF00
1C0700
1C0700
1C0700
1C7700
1C7000
1FF000
1FF000
1FF000
1C7000
1C7000
1C0380
1C0380
1C0380
1C0380
FFFF80
FFFF80
FFFF80
ENDCHAR
STARTCHAR uni1EC1
ENCODING 7873
SWIDTH 600 0
DWIDTH 20 0
BBX 16 29 1 0
BITMAP
0C00
0E00
0700
0380
01C0
00C0
0000
0080
01C0
0770
0E38
1C1C
0000
0000
07E0
1FF8
3FFC
7C3E
700E
F00F
FFFF
FFFF
FFFF
E000
7000
7C1F
3FFF
1FFF
07F0
ENDCHAR
STARTCHAR uni1EC4
ENCODING 7876
SWIDTH 600 0
DWIDTH 20 0
BBX 17 30 1 0
BITMAP
0F1800
1FF800
19F000
000000
008000
01C000
077000
0E3800
1C1C00
000000
FFFF00
FFFF00
FFFF00
1C0700
1C0700
1C0700
1C7700
1C7000
1FF000
1FF000
1FF000
1C7000
1C7000
1C0380
1C0380
1C0380
1C0380
FFFF80
FFFF80
FFFF80
ENDCHAR
STARTCHAR uni1EC5
ENCODING 7877
SWIDTH 600 0
DWIDTH 20 0
BBX 16 26 1 0
BITMAP
0F18
1FF8
19F0
0000
0080
01C0
0770
0E38
1C1C
0000
0000
07E0
1FF8
3FFC
7C3E
700E
F00F
FFFF
FFFF
FFFF
E000
7000
7C1F
3FFF
1FFF
07F0
ENDCHAR
STARTCHAR uni1EC6
ENCODING 7878
SWIDTH 600 0
DWIDTH 20 0
BBX 17 30 1 -4
BITMAP
008000
01C000
07F000
0F7800
0C1800
000000
FFFF00
FFFF00
FFFF00
1C0700
1C0700
1C0700
1C7700
1C7000
1FF000
1FF000
1FF000
1C7000
1C7000
1C0380
1C0380
1C0380
1C0380
FFFF80
FFFF80
FFFF80
000000
01C000
01C000
01C000
ENDCHAR
STARTCHAR uni1EC7
ENCODING 7879
SWIDTH 600 0
DWIDTH 20 0
BBX 18 25 1 -4
BITMAP
004000
00E000
03F800
07BC00
060C00
000000
03F000
0FFC00
1FFE00
3E1F00
780780
700380
FFFF80
FFFF80
FFFF80
F00000
780000
7E0380
3FFFC0
1FFF80
07FE00
000000
00E000
00E000
00E000
ENDCHAR
STARTCHAR uni1ECA
ENCODING 7882
SWIDTH 600 0
DWIDTH 20 0
BBX 13 24 3 -4
BITMAP
FFF8
FFF8
FFF8
0700
0700
0700
0700
0700
0700
0700
0700
0700
0700
0700
0700
0700
0700
FFF8
FFF8
FFF8
0000
0700
0700
0700
ENDCHAR
STARTCHAR uni1ECB
ENCODING 7883
SWIDTH 600 0
DWIDTH 20 0
BBX 15 25 3 -4
BITMAP
0780
0780
0780
0780
0000
0000
7F80
7F80
7F80
0380
0380
0380
0380
0380
0380
0380
0380
0380
FFFE
FFFE
FFFE
0000
0380
0380
0380
ENDCHAR
STARTCHAR uni1ECC
ENCODING 7884
SWIDTH 600 0
DWIDTH 20 0
BBX 18 24 1 -4
BITMAP
03F000
0FFC00
1FFE00
3C0F00
780780
700380
F003C0
E001C0
E001C0
E001C0
E001C0
E001C0
E001C0
F003C0
700380
780780
3C0F00
1FFE00
0FFC00
03F000
000000
00E000
00E000
00E000
ENDCHAR
STARTCHAR uni1ECD
ENCODING 7885
SWIDTH 600 0
DWIDTH 20 0
BBX 17 19 2 -4
BITMAP
07F000
1FFC00
3FFE00
780F00
700700
F00780
E00380
E00380
E00380
F00780
700700
780F00
3FFE00
1FFC00
07F000
000000
01C000
01C000
01C000
ENDCHAR
STARTCHAR uni1ED0
ENCODING 7888
SWIDTH 600 0
DWIDTH 20 0
BBX 17 33 1 0
BITMAP
001800
003C00
00F800
01E000
038000
010000
000000
008000
01C000
077000
0E3800
1C1C00
000000
07F000
0FFC00
1FFC00
3C1E00
780F00
700700
700700
E00380
E00380
E00380
E00380
E00380
E00380
700700
780700
380E00
3E3E00
1FFC00
0FF800
03E000
ENDCHAR
STARTCHAR uni1ED1
ENCODING 7889
SWIDTH 600 0
DWIDTH 20 0
BBX 17 29 1 0
BITMAP
001800
003C00
00F800
01E000
038000
010000
000000
008000
01C000
077000
0E3800
1C1C00
000000
000000
07F000
0FF800
3FFE00
3C1E00
780F00
F00780
E00380
E00380
E00380
F00780
780F00
7C1F00
3FFE00
1FFC00
07F000
ENDCHAR
STARTCHAR uni1ED2
ENCODING 7890
SWIDTH 600 0
DWIDTH 20 0
BBX 17 33 1 0
BITMAP
0C0000
0E0000
070000
038000
01C000
00C000
000000
008000
01C000
077000
0E3800
1C1C00
000000
07F000
0FFC00
1FFC00
3C1E00
780F00
700700
700700
E00380
E00380
E00380
E00380
E00380
E00380
700700
780700
380E00
3E3E00
1FFC00
0FF800
03E000
ENDCHAR
STARTCHAR uni1ED3
ENCODING 7891
SWIDTH 600 0
DWIDTH 20 0
BBX 17 29 1 0
BITMAP
0C0000
0E0000
070000
038000
01C000
00C000
000000
008000
01C000
077000
0E3800
1C1C00
000000
000000
07F000
0FF800
3FFE00
3C1E00
780F00
F00780
E00380
E00380
E00380
F00780
780F00
7C1F00
3FFE00
1FFC00
07F000
ENDCHAR
STARTCHAR uni1ED6
ENCODING 7894
SWIDTH 600 0
DWIDTH 20 0
BBX 17 30 1 0
BITMAP
078C00
0FFC00
0CF800
000000
008000
01C000
077000
0E3800
1C1C00
000000
07F000
0FFC00
1FFC00
3C1E00
780F00
700700
700700
E00380
E00380
E00380
E00380
E00380
E00380
700700
780700
380E00
3E3E00
1FFC00
0FF800
03E000
ENDCHAR
STARTCHAR uni1ED7
ENCODING 7895
SWIDTH 600 0
DWIDTH 20 0
BBX 17 26 1 0
BITMAP
078C00
0FFC00
0CF800
000000
008000
01C000
077000
0E3800
1C1C00
000000
000000
07F000
0FF800
3FFE00
3C1E00
780F00
F00780
E00380
E00380
E00380
F00780
780F00
7C1F00
3FFE00
1FFC00
07F000
ENDCHAR
STARTCHAR uni1ED8
ENCODING 7896
SWIDTH 600 0
DWIDTH 20 0
BBX 18 30 1 -4
BITMAP
004000
00E000
03F800
07BC00
060C00
000000
03F000
0FFC00
1FFE00
3C0F00
780780
700380
F003C0
E001C0
E001C0
E001C0
E001C0
E001C0
E001C0
F003C0
700380
780780
3C0F00
1FFE00
0FFC00
03F000
000000
00E000
00E000
00E000
ENDCHAR
STARTCHAR uni1ED9
ENCODING 7897
SWIDTH 600 0
DWIDTH 20 0
BBX 17 25 2 -4
BITMAP
008000
01C000
07F000
0F7800
0C1800
000000
07F000
1FFC00
3FFE00
780F00
700700
F00780
E00380
E00380
E00380
F00780
700700
780F00
3FFE00
1FFC00
07F000
000000
01C000
01C000
01C000
ENDCHAR
STARTCHAR uni1EDA
ENCODING 7898
SWIDTH 600 0
DWIDTH 20 0
BBX 22 27 1 0
BITMAP
000300
000780
001F00
003C00
007000
002000
000000
03F03C
0FFC3C
1FFE78
3C0F78
7807F0
7003F0
F003E0
E001E0
E001C0
E001C0
E001C0
E001C0
E001C0
F003C0
700380
780780
3C0F00
1FFE00
0FFC00
03F000
ENDCHAR
STARTCHAR uni1EDB
ENCODING 7899
SWIDTH 600 0
DWIDTH 20 0
BBX 21 22 2 0
BITMAP
000300
000780
001F00
003C00
007000
002000
000000
07F078
1FFC78
3FFEF0
780FF0
7007E0
F007E0
E003C0
E003C0
E00380
F00780
700700
780F00
3FFE00
1FFC00
07F000
ENDCHAR
STARTCHAR uni1EDC
ENCODING 7900
SWIDTH 600 0
DWIDTH 20 0
BBX 22 27 1 0
BITMAP
00C000
00E000
007000
003800
001C00
000C00
000000
03F03C
0FFC3C
1FFE78
3C0F78
7807F0
7003F0
F003E0
E001E0
E001C0
E001C0
E001C0
E001C0
E001C0
F003C0
700380
780780
3C0F00
1FFE00
0FFC00
03F000
ENDCHAR
STARTCHAR uni1EDD
ENCODING 7901
SWIDTH 600 0
DWIDTH 20 0
BBX 21 22 2 0
BITMAP
018000
01C000
00E000
007000
003800
001800
000000
07F078
1FFC78
3FFEF0
780FF0
7007E0
F007E0
E003C0
E003C0
E00380
F00780
700700
780F00
3FFE00
1FFC00
07F000
ENDCHAR
STARTCHAR uni1EE0
ENCODING 7904
SWIDTH 600 0
DWIDTH 20 0
BBX 22 24 1 0
BITMAP
00F180
01FF80
019F00
000000
03F03C
0FFC3C
1FFE78
3C0F78
7807F0
7003F0
F003E0
E001E0
E001C0
E001C0
E001C0
E001C0
E001C0
F003C0
700380
780780
3C0F00
1FFE00
0FFC00
03F000
ENDCHAR
STARTCHAR uni1EE1
ENCODING 7905
SWIDTH 600 0
DWIDTH 20 0
BBX 21 19 2 0
BITMAP
01E300
03FF00
033E00
000000
07F078
1FFC78
3FFEF0
780FF0
7007E0
F007E0
E003C0
E003C0
E00380
F00780
700700
780F00
3FFE00
1FFC00
07F000
ENDCHAR
STARTCHAR uni1EE2
ENCODING 7906
SWIDTH 600 0
DWIDTH 20 0
BBX 22 24 1 -4
BITMAP
03F03C
0FFC3C
1FFE78
3C0F78
7807F0
7003F0
F003E0
E001E0
E001C0
E001C0
E001C0
E001C0
E001C0
F003C0
700380
780780
3C0F00
1FFE00
0FFC00
03F000
000000
00E000
00E000
00E000
ENDCHAR
STARTCHAR uni1EE3
ENCODING 7907
SWIDTH 600 0
DWIDTH 20 0
BBX 21 19 2 -4
BITMAP
07F078
1FFC78
3FFEF0
780FF0
7007E0
F007E0
E003C0
E003C0
E00380
F00780
700700
780F00
3FFE00
1FFC00
07F000
000000
00E000
00E000
00E000
ENDCHAR
STARTCHAR uni1EE4
ENCODING 7908
SWIDTH 600 0
DWIDTH 20 0
BBX 19 24 0 -4
BITMAP
FF1FE0
FF1FE0
FF1FE0
380380
380380
380380
380380
380380
380380
380380
380380
380380
380380
380380
380380
1C0700
1F1F00
0FFE00
07FC00
01F000
000000
00E000
00E000
00E000
ENDCHAR
STARTCHAR uni1EE5
ENCODING 7909
SWIDTH 600 0
DWIDTH 20 0
BBX 18 19 1 -4
BITMAP
FC3F00
FC3F00
FC3F00
1C0700
1C0700
1C0700
1C0700
1C0700
1C0700
1C0700
1C0700
1E1F00
1FFFC0
0FFFC0
07F7C0
000000
007000
007000
007000
ENDCHAR
STARTCHAR uni1EE8
ENCODING 7912
SWIDTH 600 0
DWIDTH 20 0
BBX 23 27 0 0
BITMAP
000180
0003C0
000F80
001E00
003800
001000
000000
FF1FFE
FF1FFE
FF1FFC
3803BC
3803B8
3803B8
3803F0
3803F0
3803E0
3803E0
380380
380380
380380
380380
380380
1C0700
1F1F00
0FFE00
07FC00
01F000
ENDCHAR
STARTCHAR uni1EE9
ENCODING 7913
SWIDTH 600 0
DWIDTH 20 0
BBX 22 22 1 0
BITMAP
000300
000780
001F00
003C00
007000
002000
000000
FC3F3C
FC3F3C
FC3F78
1C0778
1C0770
1C0770
1C07E0
1C07E0
1C07C0
1C07C0
1C0700
1E1F00
1FFFC0
0FFFC0
07F7C0
ENDCHAR
STARTCHAR uni1EEA
ENCODING 7914
SWIDTH 600 0
DWIDTH 20 0
BBX 23 27 0 0
BITMAP
00C000
00E000
007000
003800
001C00
000C00
000000
FF1FFE
FF1FFE
FF1FFC
3803BC
3803B8
3803B8
3803F0
3803F0
3803E0
3803E0
380380
380380
380380
380380
380380
1C0700
1F1F00
0FFE00
07FC00
01F000
ENDCHAR
STARTCHAR uni1EEB
ENCODING 7915
SWIDTH 600 0
DWIDTH 20 0
BBX 22 22 1 0
BITMAP
018000
01C000
00E000
007000
003800
001800
000000
FC3F3C
FC3F3C
FC3F78
1C0778
1C0770
1C0770
1C07E0
1C07E0
1C07C0
1C07C0
1C0700
1E1F00
1FFFC0
0FFFC0
07F7C0
ENDCHAR
STARTCHAR uni1EEE
ENCODING 7918
SWIDTH 600 0
DWIDTH 20 0
BBX 23 24 0 0
BITMAP
00F180
01FF80
019F00
000000
FF1FFE
FF1FFE
FF1FFC
3803BC
3803B8
3803B8
3803F0
3803F0
3803E0
3803E0
380380
380380
380380
380380
380380
1C0700
1F1F00
0FFE00
07FC00
01F000
ENDCHAR
STARTCHAR uni1EEF
ENCODING 7919
SWIDTH 600 0
DWIDTH 20 0
BBX 22 19 1 0
BITMAP
01E300
03FF00
033E00
000000
FC3F3C
FC3F3C
FC3F78
1C0778
1C0770
1C0770
1C07E0
1C07E0
1C07C0
1C07C0
1C0700
1E1F00
1FFFC0
0FFFC0
07F7C0
ENDCHAR
STARTCHAR uni1EF0
ENCODING 7920
SWIDTH 600 0
DWIDTH 20 0
BBX 23 24 0 -4
BITMAP
FF1FFE
FF1FFE
FF1FFC
3803BC
3803B8
3803B8
3803F0
3803F0
3803E0
3803E0
380380
380380
380380
380380
380380
1C0700
1F1F00
0FFE00
07FC00
01F000
000000
007000
007000
007000
ENDCHAR
STARTCHAR uni1EF1
ENCODING 7921
SWIDTH 600 0
DWIDTH 20 0
BBX 22 19 1 -4
BITMAP
FC3F3C
FC3F3C
FC3F78
1C0778
1C0770
1C0770
1C07E0
1C07E0
1C07C0
1C07C0
1C0700
1E1F00
1FFFC0
0FFFC0
07F7C0
000000
007000
007000
007000
ENDCHAR
STARTCHAR Ygrave
ENCODING 7922
SWIDTH 600 0
DWIDTH 20 0
BBX 19 27 0 0
BITMAP
060000
070000
038000
01C000
00E000
006000
000000
FF1FE0
FF1FE0
FF1FE0
3C0780
0E0E00
0F1E00
071C00
07BC00
03F800
01F000
01F000
00E000
00E000
00E000
00E000
00E000
00E000
0FFE00
0FFE00
0FFE00
ENDCHAR
STARTCHAR ygrave
ENCODING 7923
SWIDTH 600 0
DWIDTH 20 0
BBX 19 29 1 -7
BITMAP
060000
070000
038000
01C000
00E000
006000
000000
FF1FE0
FF1FE0
FF1FE0
3C0380
1C0700
1E0700
0E0E00
0F0E00
071C00
079C00
03B800
03F800
01F000
01F000
00E000
00E000
01C000
01C000
038000
7FF000
7FF000
7FF000
ENDCHAR
STARTCHAR uni1EF4
ENCODING 7924
SWIDTH 600 0
DWIDTH 20 0
BBX 19 24 0 -4
BITMAP
FF1FE0
FF1FE0
FF1FE0
3C0780
0E0E00
0F1E00
071C00
07BC00
03F800
01F000
01F000
00E000
00E000
00E000
00E000
00E000
00E000
0FFE00
0FFE00
0FFE00
000000
00E000
00E000
00E000
ENDCHAR
STARTCHAR uni1EF5
ENCODING 7925
SWIDTH 600 0
DWIDTH 20 0
BBX 19 26 1 -11
BITMAP
FF1FE0
FF1FE0
FF1FE0
3C0380
1C0700
1E0700
0E0E00
0F0E00
071C00
079C00
03B800
03F800
01F000
01F000
00E000
00E000
01C000
01C000
038000
7FF000
7FF000
7FF000
000000
038000
038000
038000
ENDCHAR
STARTCHAR uni1EF8
ENCODING 7928
SWIDTH 600 0
DWIDTH 20 0
BBX 19 24 0 0
BITMAP
03C600
07FE00
067C00
000000
FF1FE0
FF1FE0
FF1FE0
3C0780
0E0E00
0F1E00
071C00
07BC00
03F800
01F000
01F000
00E000
00E000
00E000
00E000
00E000
00E000
0FFE00
0FFE00
0FFE00
ENDCHAR
STARTCHAR uni1EF9
ENCODING 7929
SWIDTH 600 0
DWIDTH 20 0
BBX 19 26 1 -7
BITMAP
078C00
0FFC00
0CF800
000000
FF1FE0
FF1FE0
FF1FE0
3C0380
1C0700
1E0700
0E0E00
0F0E00
071C00
079C00
03B800
03F800
01F000
01F000
00E000
00E000
01C000
01C000
038000
7FF000
7FF000
7FF000
ENDCHAR
STARTCHAR uni2000
ENCODING 8192
SWIDTH 600 0
DWIDTH 20 0
BBX 1 1 0 0
BITMAP
00
ENDCHAR
STARTCHAR uni2001
ENCODING 8193
SWIDTH 600 0
DWIDTH 20 0
BBX 1 1 0 0
BITMAP
00
ENDCHAR
STARTCHAR uni2002
ENCODING 8194
SWIDTH 600 0
DWIDTH 20 0
BBX 1 1 0 0
BITMAP
00
ENDCHAR
STARTCHAR uni2003
ENCODING 8195
SWIDTH 600 0
DWIDTH 20 0
BBX 1 1 0 0
BITMAP
00
ENDCHAR
STARTCHAR uni2004
ENCODING 8196
SWIDTH 600 0
DWIDTH 20 0
BBX 1 1 0 0
BITMAP
00
ENDCHAR
STARTCHAR uni2005
ENCODING 8197
SWIDTH 600 0
DWIDTH 20 0
BBX 1 1 0 0
BITMAP
00
ENDCHAR
STARTCHAR uni2006
ENCODING 8198
SWIDTH 600 0
DWIDTH 20 0
BBX 1 1 0 0
BITMAP
00
ENDCHAR
STARTCHAR uni2007
ENCODING 8199
SWIDTH 600 0
DWIDTH 20 0
BBX 1 1 0 0
BITMAP
00
ENDCHAR
STARTCHAR uni2008
ENCODING 8200
SWIDTH 600 0
DWIDTH 20 0
BBX 1 1 0 0
BITMAP
00
ENDCHAR
STARTCHAR uni2009
ENCODING 8201
SWIDTH 600 0
DWIDTH 20 0
BBX 1 1 0 0
BITMAP
00
ENDCHAR
STARTCHAR uni200A
ENCODING 8202
SWIDTH 600 0
DWIDTH 20 0
BBX 1 1 0 0
BITMAP
00
ENDCHAR
STARTCHAR uni2010
ENCODING 8208
SWIDTH 600 0
DWIDTH 20 0
BBX 15 3 2 8
BITMAP
FFFE
FFFE
FFFE
ENDCHAR
STARTCHAR uni2011
ENCODING 8209
SWIDTH 600 0
DWIDTH 20 0
BBX 15 3 2 8
BITMAP
FFFE
FFFE
FFFE
ENDCHAR
STARTCHAR figuredash
ENCODING 8210
SWIDTH 600 0
DWIDTH 20 0
BBX 20 3 0 8
BITMAP
FFFFF0
FFFFF0
FFFFF0
ENDCHAR
STARTCHAR endash
ENCODING 8211
SWIDTH 600 0
DWIDTH 20 0
BBX 20 3 0 8
BITMAP
FFFFF0
FFFFF0
FFFFF0
ENDCHAR
STARTCHAR emdash
ENCODING 8212
SWIDTH 600 0
DWIDTH 20 0
BBX 20 3 0 8
BITMAP
FFFFF0
FFFFF0
FFFFF0
ENDCHAR
STARTCHAR afii00208
ENCODING 8213
SWIDTH 600 0
DWIDTH 20 0
BBX 20 3 0 8
BITMAP
FFFFF0
FFFFF0
FFFFF0
ENDCHAR
STARTCHAR quoteleft
ENCODING 8216
SWIDTH 600 0
DWIDTH 20 0
BBX 7 10 8 11
BITMAP
F0
F0
78
78
38
3C
1C
1C
0E
0C
ENDCHAR
STARTCHAR quoteright
ENCODING 8217
SWIDTH 600 0
DWIDTH 20 0
BBX 6 10 5 11
BITMAP
3C
3C
78
78
70
70
E0
E0
C0
C0
ENDCHAR
STARTCHAR quotesinglbase
ENCODING 8218
SWIDTH 600 0
DWIDTH 20 0
BBX 6 10 5 -5
BITMAP
3C
3C
78
78
70
70
E0
E0
C0
C0
ENDCHAR
STARTCHAR quotereversed
ENCODING 8219
SWIDTH 600 0
DWIDTH 20 0
BBX 6 10 5 11
BITMAP
F0
F0
78
78
38
38
1C
1C
0C
0C
ENDCHAR
STARTCHAR quotedblleft
ENCODING 8220
SWIDTH 600 0
DWIDTH 20 0
BBX 13 8 3 12
BITMAP
F1E0
F1E0
78F0
3870
3870
1C38
0C18
0C18
ENDCHAR
STARTCHAR quotedblright
ENCODING 8221
SWIDTH 600 0
DWIDTH 20 0
BBX 13 8 3 12
BITMAP
1C38
3C78
3870
70E0
70E0
E1C0
C180
C180
ENDCHAR
STARTCHAR quotedblbase
ENCODING 8222
SWIDTH 600 0
DWIDTH 20 0
BBX 14 10 3 -5
BITMAP
1E3C
1E3C
3C78
3870
3870
70E0
70C0
E1C0
C180
C180
ENDCHAR
STARTCHAR uni201F
ENCODING 8223
SWIDTH 600 0
DWIDTH 20 0
BBX 13 8 3 12
BITMAP
E1C0
F1E0
70E0
3870
3870
1C38
0C18
0C18
ENDCHAR
STARTCHAR dagger
ENCODING 8224
SWIDTH 600 0
DWIDTH 20 0
BBX 13 24 3 -3
BITMAP
0700
0700
0700
0700
0700
0700
FFF8
FFF8
FFF8
0700
0700
0700
0700
0700
0700
0700
0700
0700
0700
0700
0700
0700
0700
0700
ENDCHAR
STARTCHAR daggerdbl
ENCODING 8225
SWIDTH 600 0
DWIDTH 20 0
BBX 13 24 3 -3
BITMAP
0700
0700
0700
0700
0700
0700
FFF8
FFF8
FFF8
0700
0700
0700
0700
0700
0700
FFF8
FFF8
FFF8
0700
0700
0700
0700
0700
0700
ENDCHAR
STARTCHAR bullet
ENCODING 8226
SWIDTH 600 0
DWIDTH 20 0
BBX 10 10 5 5
BITMAP
3F00
7F80
FFC0
FFC0
FFC0
FFC0
FFC0
FFC0
7F80
3F00
ENDCHAR
STARTCHAR ellipsis
ENCODING 8230
SWIDTH 600 0
DWIDTH 20 0
BBX 15 3 2 0
BITMAP
E38E
E38E
E38E
ENDCHAR
STARTCHAR perthousand
ENCODING 8240
SWIDTH 600 0
DWIDTH 20 0
BBX 19 21 0 0
BITMAP
380000
7C0000
6C0000
C60000
C60000
6E0000
7C0180
380F80
007F00
03F800
1FC000
3E0000
300000
070380
0F87C0
1DCEE0
18CC60
18CC60
0D86C0
0F87C0
070380
ENDCHAR
STARTCHAR guilsinglleft
ENCODING 8249
SWIDTH 600 0
DWIDTH 20 0
BBX 8 14 6 0
BITMAP
03
07
0F
1E
3C
78
F0
F0
78
3C
1E
0F
07
03
ENDCHAR
STARTCHAR guilsinglright
ENCODING 8250
SWIDTH 600 0
DWIDTH 20 0
BBX 8 14 7 0
BITMAP
C0
E0
F0
78
3C
1E
0F
0F
1E
3C
78
F0
E0
C0
ENDCHAR
STARTCHAR uni203D
ENCODING 8253
SWIDTH 600 0
DWIDTH 20 0
BBX 13 21 3 0
BITMAP
0700
1FC0
7FE0
FFF0
EFF8
EFB8
E738
0738
0778
07F0
07F0
07C0
0780
0700
0700
0200
0000
0000
0700
0F80
0700
ENDCHAR
STARTCHAR fraction
ENCODING 8260
SWIDTH 600 0
DWIDTH 20 0
BBX 12 14 4 3
BITMAP
0030
0070
00E0
01C0
0380
0700
0600
0E00
1C00
3800
7000
6000
E000
C000
ENDCHAR
STARTCHAR oneinferior
ENCODING 8321
SWIDTH 600 0
DWIDTH 20 0
BBX 8 13 6 -7
BITMAP
38
F8
D8
18
18
18
18
18
18
18
18
FF
FF
ENDCHAR
STARTCHAR twoinferior
ENCODING 8322
SWIDTH 600 0
DWIDTH 20 0
BBX 8 14 5 -7
BITMAP
3C
7E
E7
C3
03
07
0E
0C
18
38
70
E1
FF
FF
ENDCHAR
STARTCHAR threeinferior
ENCODING 8323
SWIDTH 600 0
DWIDTH 20 0
BBX 9 14 5 -7
BITMAP
3E00
7F00
6300
0300
0700
1E00
1F00
0380
0180
0180
C180
E300
7F00
3C00
ENDCHAR
STARTCHAR uni20A5
ENCODING 8357
SWIDTH 600 0
DWIDTH 20 0
BBX 20 27 1 -6
BITMAP
000380
000380
000780
000700
000700
000E00
F38F00
FFFF80
FFFFC0
78FDC0
70F9C0
70F9C0
70F9C0
70F1C0
70F1C0
70E1C0
70E1C0
71E1C0
FDF9F0
FFF9F0
FFF9F0
038000
070000
070000
0F0000
0E0000
0E0000
ENDCHAR
STARTCHAR uni20A6
ENCODING 8358
SWIDTH 600 0
DWIDTH 20 0
BBX 19 20 0 0
BITMAP
F81FE0
FC1FE0
FE1FE0
3E0380
3F0380
7FFFC0
7FFFC0
7FFFC0
39C380
39E380
38F380
7FFFC0
7FFFC0
7FFFC0
381F80
381F80
380F80
FF0780
FF0780
FF0380
ENDCHAR
STARTCHAR uni20A9
ENCODING 8361
SWIDTH 600 0
DWIDTH 20 0
BBX 19 20 0 0
BITMAP
FF1FE0
FF1FE0
FF1FE0
7001C0
7001C0
7FFFC0
7FFFC0
7FFFC0
39F380
39F380
3BBB80
7FFFC0
7FFFC0
7FFFC0
3F1F80
1E0F00
1E0F00
1E0F00
1C0700
1C0700
ENDCHAR
STARTCHAR Euro
ENCODING 8364
SWIDTH 600 0
DWIDTH 20 0
BBX 22 20 -3 0
BITMAP
003F98
00FFF8
01FFF8
03E0F8
078078
FFFFB8
FFFFB8
FFFF80
0E0000
0E0000
0E0000
FFFF80
FFFF80
FFFF80
0F0000
078038
07C07C
03FFF8
01FFF0
007FC0
ENDCHAR
STARTCHAR uni20AD
ENCODING 8365
SWIDTH 600 0
DWIDTH 20 0
BBX 19 20 1 0
BITMAP
FF9FC0
FF9FC0
FF9FC0
1C0F00
1C1E00
1C3C00
1C7800
1CF000
FFFFE0
FFFFE0
FFFFE0
1E7C00
1C3C00
1C1E00
1C0E00
1C0F00
1C0700
FF87E0
FF87E0
FF87E0
ENDCHAR
STARTCHAR trademark
ENCODING 8482
SWIDTH 600 0
DWIDTH 20 0
BBX 20 13 0 7
BITMAP
FFF8F0
FFF8F0
FFF8F0
DDBDE0
DDBDE0
DDBFE0
1C3FE0
1C3FE0
1C3AE0
1C38E0
3F7DF0
3F7DF0
3F7DF0
ENDCHAR
STARTCHAR uni212A
ENCODING 8490
SWIDTH 600 0
DWIDTH 20 0
BBX 19 20 1 0
BITMAP
FF9FC0
FF9FC0
FF9FC0
1C0F00
1C1E00
1C3C00
1C7800
1CF000
1FE000
1FF000
1FF800
1E7C00
1C3C00
1C1E00
1C0E00
1C0F00
1C0700
FF87E0
FF87E0
FF87E0
ENDCHAR
STARTCHAR uni212B
ENCODING 8491
SWIDTH 600 0
DWIDTH 20 0
BBX 21 26 -1 0
BITMAP
00F000
019800
010800
019800
00F000
000000
1FF000
1FF800
1FF800
01FC00
01DC00
01DC00
03DE00
038E00
038E00
070700
070700
070700
0FFF80
0FFF80
1FFFC0
1C01C0
1C01C0
FF8FF8
FF8FF8
FF8FF8
ENDCHAR
STARTCHAR uni2132
ENCODING 8498
SWIDTH 600 0
DWIDTH 20 0
BBX 17 20 1 0
BITMAP
03FF80
03FF80
03FF80
001C00
001C00
001C00
001C00
071C00
071C00
07FC00
07FC00
07FC00
071C00
E71C00
E01C00
E01C00
E01C00
FFFF80
FFFF80
FFFF80
ENDCHAR
STARTCHAR universal
ENCODING 8704
SWIDTH 600 0
DWIDTH 20 0
BBX 21 20 -1 0
BITMAP
FF8FF8
FF8FF8
FF8FF8
1C01C0
1C01C0
1FFFC0
0FFF80
0FFF80
070700
070700
070700
038E00
038E00
038E00
01DC00
01DC00
01DC00
1FF800
1FF800
1FF000
ENDCHAR
STARTCHAR existential
ENCODING 8707
SWIDTH 600 0
DWIDTH 20 0
BBX 17 20 1 0
BITMAP
7FFF80
7FFF80
7FFF80
701C00
701C00
701C00
771C00
071C00
07FC00
07FC00
07FC00
071C00
071C00
E01C00
E01C00
E01C00
E01C00
FFFF80
FFFF80
FFFF80
ENDCHAR
STARTCHAR uni2204
ENCODING 8708
SWIDTH 600 0
DWIDTH 20 0
BBX 17 27 1 -3
BITMAP
000E00
000E00
001E00
001C00
7FFF80
7FFF80
7FFF80
707C00
707C00
707C00
77FC00
07FC00
07FC00
07FC00
07FC00
079C00
079C00
E71C00
E71C00
EF1C00
EE1C00
FFFF80
FFFF80
FFFF80
3C0000
380000
380000
ENDCHAR
STARTCHAR minus
ENCODING 8722
SWIDTH 600 0
DWIDTH 20 0
BBX 15 3 2 8
BITMAP
FFFE
FFFE
FFFE
ENDCHAR
STARTCHAR fraction
ENCODING 8725
SWIDTH 600 0
DWIDTH 20 0
BBX 12 14 4 3
BITMAP
0030
0070
00E0
01C0
0380
0700
0600
0E00
1C00
3800
7000
6000
E000
C000
ENDCHAR
STARTCHAR periodcentered
ENCODING 8729
SWIDTH 600 0
DWIDTH 20 0
BBX 5 4 7 8
BITMAP
70
F8
F8
70
ENDCHAR
STARTCHAR uni2236
ENCODING 8758
SWIDTH 600 0
DWIDTH 20 0
BBX 5 15 7 0
BITMAP
70
F8
F8
70
00
00
00
00
00
00
00
70
F8
F8
70
ENDCHAR
STARTCHAR uni2259
ENCODING 8793
SWIDTH 600 0
DWIDTH 20 0
BBX 17 15 1 5
BITMAP
008000
01C000
07F000
0F7800
0C1800
000000
FFFF80
FFFF80
FFFF80
000000
000000
000000
FFFF80
FFFF80
FFFF80
ENDCHAR
STARTCHAR uni225A
ENCODING 8794
SWIDTH 600 0
DWIDTH 20 0
BBX 17 15 1 5
BITMAP
0C1800
0F7800
07F000
01C000
008000
000000
FFFF80
FFFF80
FFFF80
000000
000000
000000
FFFF80
FFFF80
FFFF80
ENDCHAR
STARTCHAR notequal
ENCODING 8800
SWIDTH 600 0
DWIDTH 20 0
BBX 17 27 1 -4
BITMAP
000E00
000E00
001E00
001C00
001C00
003800
003800
007800
007000
FFFF80
FFFF80
FFFF80
01E000
01C000
03C000
FFFF80
FFFF80
FFFF80
070000
0F0000
0E0000
0E0000
1C0000
1C0000
3C0000
380000
380000
ENDCHAR
STARTCHAR equivalence
ENCODING 8801
SWIDTH 600 0
DWIDTH 20 0
BBX 17 11 0 4
BITMAP
FFFF80
FFFF80
FFFF80
000000
FFFF80
FFFF80
FFFF80
000000
FFFF80
FFFF80
FFFF80
ENDCHAR
STARTCHAR uni2262
ENCODING 8802
SWIDTH 600 0
DWIDTH 20 0
BBX 17 27 0 -4
BITMAP
000E00
000E00
001E00
001C00
001C00
003800
003800
007800
FFFF80
FFFF80
FFFF80
00E000
FFFF80
FFFF80
FFFF80
038000
FFFF80
FFFF80
FFFF80
0F0000
0E0000
0E0000
1C0000
1C0000
3C0000
380000
380000
ENDCHAR
STARTCHAR lessequal
ENCODING 8804
SWIDTH 600 0
DWIDTH 20 0
BBX 18 23 0 -4
BITMAP
0001C0
0003C0
000FC0
003F80
00FE00
01F800
07E000
1F8000
7F0000
FC0000
7F0000
1F8000
07E000
01F800
00FE00
003F80
000FC0
0003C0
0001C0
000000
FFFFC0
FFFFC0
FFFFC0
ENDCHAR
STARTCHAR greaterequal
ENCODING 8805
SWIDTH 600 0
DWIDTH 20 0
BBX 18 23 1 -4
BITMAP
E00000
F00000
FC0000
7F0000
1FC000
07E000
01F800
007E00
003F80
000FC0
003F80
007E00
01F800
07E000
1FC000
7F0000
FC0000
F00000
E00000
000000
FFFFC0
FFFFC0
FFFFC0
ENDCHAR
STARTCHAR uni226E
ENCODING 8814
SWIDTH 600 0
DWIDTH 20 0
BBX 18 27 0 -4
BITMAP
000700
000700
000F00
000E00
000FC0
001FC0
001FC0
003F80
00FE00
01F800
07F000
1FF000
7FF000
FCE000
7FE000
1FC000
07E000
03F800
03FE00
07BF80
070FC0
0703C0
0E01C0
0E0000
1E0000
1C0000
1C0000
ENDCHAR
STARTCHAR uni226F
ENCODING 8815
SWIDTH 600 0
DWIDTH 20 0
BBX 18 27 1 -4
BITMAP
000700
000700
000F00
000E00
E00E00
F01C00
FC1C00
7F3C00
1FF800
07F800
01F800
007E00
00FF80
00EFC0
01FF80
01FE00
01F800
07E000
1FC000
7F8000
FF0000
F70000
EE0000
0E0000
1E0000
1C0000
1C0000
ENDCHAR
STARTCHAR uni2270
ENCODING 8816
SWIDTH 600 0
DWIDTH 20 0
BBX 18 27 0 -6
BITMAP
000700
000700
000FC0
000FC0
000FC0
003F80
00FE00
01FC00
07F800
1FB800
7F7000
FC7000
7FF000
1FE000
07E000
01F800
01FE00
03BF80
038FC0
0783C0
0701C0
070000
FFFFC0
FFFFC0
FFFFC0
1C0000
1C0000
ENDCHAR
STARTCHAR uni2271
ENCODING 8817
SWIDTH 600 0
DWIDTH 20 0
BBX 18 27 1 -6
BITMAP
000700
000700
E00F00
F00E00
FC0E00
7F1C00
1FDC00
07FC00
01F800
007E00
007F80
007FC0
00FF80
00FE00
01F800
07E000
1FC000
7F8000
FF8000
F78000
E70000
070000
FFFFC0
FFFFC0
FFFFC0
1C0000
1C0000
ENDCHAR
STARTCHAR SF100000
ENCODING 9472
SWIDTH 600 0
DWIDTH 20 0
BBX 20 3 0 7
BITMAP
FFFFF0
FFFFF0
FFFFF0
ENDCHAR
STARTCHAR uni2501
ENCODING 9473
SWIDTH 600 0
DWIDTH 20 0
BBX 20 9 0 4
BITMAP
FFFFF0
FFFFF0
FFFFF0
FFFFF0
FFFFF0
FFFFF0
FFFFF0
FFFFF0
FFFFF0
ENDCHAR
STARTCHAR SF110000
ENCODING 9474
SWIDTH 600 0
DWIDTH 20 0
BBX 3 30 8 -7
BITMAP
E0
E0
E0
E0
E0
E0
E0
E0
E0
E0
E0
E0
E0
E0
E0
E0
E0
E0
E0
E0
E0
E0
E0
E0
E0
E0
E0
E0
E0
E0
ENDCHAR
STARTCHAR uni2503
ENCODING 9475
SWIDTH 600 0
DWIDTH 20 0
BBX 9 30 5 -7
BITMAP
FF80
FF80
FF80
FF80
FF80
FF80
FF80
FF80
FF80
FF80
FF80
FF80
FF80
FF80
FF80
FF80
FF80
FF80
FF80
FF80
FF80
FF80
FF80
FF80
FF80
FF80
FF80
FF80
FF80
FF80
ENDCHAR
STARTCHAR SF010000
ENCODING 9484
SWIDTH 600 0
DWIDTH 20 0
BBX 12 17 8 -7
BITMAP
FFF0
FFF0
FFF0
E000
E000
E000
E000
E000
E000
E000
E000
E000
E000
E000
E000
E000
E000
ENDCHAR
STARTCHAR uni250D
ENCODING 9485
SWIDTH 600 0
DWIDTH 20 0
BBX 15 20 5 -7
BITMAP
FFFE
FFFE
FFFE
FFFE
FFFE
FFFE
FFFE
FFFE
FFFE
1C00
1C00
1C00
1C00
1C00
1C00
1C00
1C00
1C00
1C00
1C00
ENDCHAR
STARTCHAR uni250E
ENCODING 9486
SWIDTH 600 0
DWIDTH 20 0
BBX 15 20 5 -7
BITMAP
FF80
FF80
FF80
FFFE
FFFE
FFFE
FF80
FF80
FF80
FF80
FF80
FF80
FF80
FF80
FF80
FF80
FF80
FF80
FF80
FF80
ENDCHAR
STARTCHAR uni250F
ENCODING 9487
SWIDTH 600 0
DWIDTH 20 0
BBX 15 20 5 -7
BITMAP
FFFE
FFFE
FFFE
FFFE
FFFE
FFFE
FFFE
FFFE
FFFE
FF80
FF80
FF80
FF80
FF80
FF80
FF80
FF80
FF80
FF80
FF80
ENDCHAR
STARTCHAR SF030000
ENCODING 9488
SWIDTH 600 0
DWIDTH 20 0
BBX 11 17 0 -7
BITMAP
FFE0
FFE0
FFE0
00E0
00E0
00E0
00E0
00E0
00E0
00E0
00E0
00E0
00E0
00E0
00E0
00E0
00E0
ENDCHAR
STARTCHAR uni2511
ENCODING 9489
SWIDTH 600 0
DWIDTH 20 0
BBX 14 20 0 -7
BITMAP
FFFC
FFFC
FFFC
FFFC
FFFC
FFFC
FFFC
FFFC
FFFC
00E0
00E0
00E0
00E0
00E0
00E0
00E0
00E0
00E0
00E0
00E0
ENDCHAR
STARTCHAR uni2512
ENCODING 9490
SWIDTH 600 0
DWIDTH 20 0
BBX 14 20 0 -7
BITMAP
07FC
07FC
07FC
FFFC
FFFC
FFFC
07FC
07FC
07FC
07FC
07FC
07FC
07FC
07FC
07FC
07FC
07FC
07FC
07FC
07FC
ENDCHAR
STARTCHAR uni2513
ENCODING 9491
SWIDTH 600 0
DWIDTH 20 0
BBX 14 20 0 -7
BITMAP
FFFC
FFFC
FFFC
FFFC
FFFC
FFFC
FFFC
FFFC
FFFC
07FC
07FC
07FC
07FC
07FC
07FC
07FC
07FC
07FC
07FC
07FC
ENDCHAR
STARTCHAR SF020000
ENCODING 9492
SWIDTH 600 0
DWIDTH 20 0
BBX 12 16 8 7
BITMAP
E000
E000
E000
E000
E000
E000
E000
E000
E000
E000
E000
E000
E000
FFF0
FFF0
FFF0
ENDCHAR
STARTCHAR uni2515
ENCODING 9493
SWIDTH 600 0
DWIDTH 20 0
BBX 15 19 5 4
BITMAP
1C00
1C00
1C00
1C00
1C00
1C00
1C00
1C00
1C00
1C00
FFFE
FFFE
FFFE
FFFE
FFFE
FFFE
FFFE
FFFE
FFFE
ENDCHAR
STARTCHAR uni2516
ENCODING 9494
SWIDTH 600 0
DWIDTH 20 0
BBX 15 19 5 4
BITMAP
FF80
FF80
FF80
FF80
FF80
FF80
FF80
FF80
FF80
FF80
FF80
FF80
FF80
FFFE
FFFE
FFFE
FF80
FF80
FF80
ENDCHAR
STARTCHAR uni2517
ENCODING 9495
SWIDTH 600 0
DWIDTH 20 0
BBX 15 19 5 4
BITMAP
FF80
FF80
FF80
FF80
FF80
FF80
FF80
FF80
FF80
FF80
FFFE
FFFE
FFFE
FFFE
FFFE
FFFE
FFFE
FFFE
FFFE
ENDCHAR
STARTCHAR SF040000
ENCODING 9496
SWIDTH 600 0
DWIDTH 20 0
BBX 11 16 0 7
BITMAP
00E0
00E0
00E0
00E0
00E0
00E0
00E0
00E0
00E0
00E0
00E0
00E0
00E0
FFE0
FFE0
FFE0
ENDCHAR
STARTCHAR uni2519
ENCODING 9497
SWIDTH 600 0
DWIDTH 20 0
BBX 14 19 0 4
BITMAP
00E0
00E0
00E0
00E0
00E0
00E0
00E0
00E0
00E0
00E0
FFFC
FFFC
FFFC
FFFC
FFFC
FFFC
FFFC
FFFC
FFFC
ENDCHAR
STARTCHAR uni251A
ENCODING 9498
SWIDTH 600 0
DWIDTH 20 0
BBX 14 19 0 4
BITMAP
07FC
07FC
07FC
07FC
07FC
07FC
07FC
07FC
07FC
07FC
07FC
07FC
07FC
FFFC
FFFC
FFFC
07FC
07FC
07FC
ENDCHAR
STARTCHAR uni251B
ENCODING 9499
SWIDTH 600 0
DWIDTH 20 0
BBX 14 19 0 4
BITMAP
07FC
07FC
07FC
07FC
07FC
07FC
07FC
07FC
07FC
07FC
FFFC
FFFC
FFFC
FFFC
FFFC
FFFC
FFFC
FFFC
FFFC
ENDCHAR
STARTCHAR SF080000
ENCODING 9500
SWIDTH 600 0
DWIDTH 20 0
BBX 12 30 8 -7
BITMAP
E000
E000
E000
E000
E000
E000
E000
E000
E000
E000
E000
E000
E000
FFF0
FFF0
FFF0
E000
E000
E000
E000
E000
E000
E000
E000
E000
E000
E000
E000
E000
E000
ENDCHAR
STARTCHAR uni251D
ENCODING 9501
SWIDTH 600 0
DWIDTH 20 0
BBX 15 30 5 -7
BITMAP
1C00
1C00
1C00
1C00
1C00
1C00
1C00
1C00
1C00
1C00
FFFE
FFFE
FFFE
FFFE
FFFE
FFFE
FFFE
FFFE
FFFE
1C00
1C00
1C00
1C00
1C00
1C00
1C00
1C00
1C00
1C00
1C00
ENDCHAR
STARTCHAR uni251E
ENCODING 9502
SWIDTH 600 0
DWIDTH 20 0
BBX 15 30 5 -7
BITMAP
FF80
FF80
FF80
FF80
FF80
FF80
FF80
FF80
FF80
FF80
FF80
FF80
FF80
FFFE
FFFE
FFFE
FF80
FF80
FF80
1C00
1C00
1C00
1C00
1C00
1C00
1C00
1C00
1C00
1C00
1C00
ENDCHAR
STARTCHAR uni251F
ENCODING 9503
SWIDTH 600 0
DWIDTH 20 0
BBX 15 30 5 -7
BITMAP
1C00
1C00
1C00
1C00
1C00
1C00
1C00
1C00
1C00
1C00
FF80
FF80
FF80
FFFE
FFFE
FFFE
FF80
FF80
FF80
FF80
FF80
FF80
FF80
FF80
FF80
FF80
FF80
FF80
FF80
FF80
ENDCHAR
STARTCHAR uni2520
ENCODING 9504
SWIDTH 600 0
DWIDTH 20 0
BBX 15 30 5 -7
BITMAP
FF80
FF80
FF80
FF80
FF80
FF80
FF80
FF80
FF80
FF80
FF80
FF80
FF80
FFFE
FFFE
FFFE
FF80
FF80
FF80
FF80
FF80
FF80
FF80
FF80
FF80
FF80
FF80
FF80
FF80
FF80
ENDCHAR
STARTCHAR uni2521
ENCODING 9505
SWIDTH 600 0
DWIDTH 20 0
BBX 15 30 5 -7
BITMAP
FF80
FF80
FF80
FF80
FF80
FF80
FF80
FF80
FF80
FF80
FFFE
FFFE
FFFE
FFFE
FFFE
FFFE
FFFE
FFFE
FFFE
1C00
1C00
1C00
1C00
1C00
1C00
1C00
1C00
1C00
1C00
1C00
ENDCHAR
STARTCHAR uni2522
ENCODING 9506
SWIDTH 600 0
DWIDTH 20 0
BBX 15 30 5 -7
BITMAP
1C00
1C00
1C00
1C00
1C00
1C00
1C00
1C00
1C00
1C00
FFFE
FFFE
FFFE
FFFE
FFFE
FFFE
FFFE
FFFE
FFFE
FF80
FF80
FF80
FF80
FF80
FF80
FF80
FF80
FF80
FF80
FF80
ENDCHAR
STARTCHAR uni2523
ENCODING 9507
SWIDTH 600 0
DWIDTH 20 0
BBX 15 30 5 -7
BITMAP
FF80
FF80
FF80
FF80
FF80
FF80
FF80
FF80
FF80
FF80
FFFE
FFFE
FFFE
FFFE
FFFE
FFFE
FFFE
FFFE
FFFE
FF80
FF80
FF80
FF80
FF80
FF80
FF80
FF80
FF80
FF80
FF80
ENDCHAR
STARTCHAR SF090000
ENCODING 9508
SWIDTH 600 0
DWIDTH 20 0
BBX 11 30 0 -7
BITMAP
00E0
00E0
00E0
00E0
00E0
00E0
00E0
00E0
00E0
00E0
00E0
00E0
00E0
FFE0
FFE0
FFE0
00E0
00E0
00E0
00E0
00E0
00E0
00E0
00E0
00E0
00E0
00E0
00E0
00E0
00E0
ENDCHAR
STARTCHAR uni2525
ENCODING 9509
SWIDTH 600 0
DWIDTH 20 0
BBX 14 30 0 -7
BITMAP
00E0
00E0
00E0
00E0
00E0
00E0
00E0
00E0
00E0
00E0
FFFC
FFFC
FFFC
FFFC
FFFC
FFFC
FFFC
FFFC
FFFC
00E0
00E0
00E0
00E0
00E0
00E0
00E0
00E0
00E0
00E0
00E0
ENDCHAR
STARTCHAR uni2526
ENCODING 9510
SWIDTH 600 0
DWIDTH 20 0
BBX 14 30 0 -7
BITMAP
07FC
07FC
07FC
07FC
07FC
07FC
07FC
07FC
07FC
07FC
07FC
07FC
07FC
FFFC
FFFC
FFFC
07FC
07FC
07FC
00E0
00E0
00E0
00E0
00E0
00E0
00E0
00E0
00E0
00E0
00E0
ENDCHAR
STARTCHAR uni2527
ENCODING 9511
SWIDTH 600 0
DWIDTH 20 0
BBX 14 30 0 -7
BITMAP
00E0
00E0
00E0
00E0
00E0
00E0
00E0
00E0
00E0
00E0
07FC
07FC
07FC
FFFC
FFFC
FFFC
07FC
07FC
07FC
07FC
07FC
07FC
07FC
07FC
07FC
07FC
07FC
07FC
07FC
07FC
ENDCHAR
STARTCHAR uni2528
ENCODING 9512
SWIDTH 600 0
DWIDTH 20 0
BBX 14 30 0 -7
BITMAP
07FC
07FC
07FC
07FC
07FC
07FC
07FC
07FC
07FC
07FC
07FC
07FC
07FC
FFFC
FFFC
FFFC
07FC
07FC
07FC
07FC
07FC
07FC
07FC
07FC
07FC
07FC
07FC
07FC
07FC
07FC
ENDCHAR
STARTCHAR uni2529
ENCODING 9513
SWIDTH 600 0
DWIDTH 20 0
BBX 14 30 0 -7
BITMAP
07FC
07FC
07FC
07FC
07FC
07FC
07FC
07FC
07FC
07FC
FFFC
FFFC
FFFC
FFFC
FFFC
FFFC
FFFC
FFFC
FFFC
00E0
00E0
00E0
00E0
00E0
00E0
00E0
00E0
00E0
00E0
00E0
ENDCHAR
STARTCHAR uni252A
ENCODING 9514
SWIDTH 600 0
DWIDTH 20 0
BBX 14 30 0 -7
BITMAP
00E0
00E0
00E0
00E0
00E0
00E0
00E0
00E0
00E0
00E0
FFFC
FFFC
FFFC
FFFC
FFFC
FFFC
FFFC
FFFC
FFFC
07FC
07FC
07FC
07FC
07FC
07FC
07FC
07FC
07FC
07FC
07FC
ENDCHAR
STARTCHAR uni252B
ENCODING 9515
SWIDTH 600 0
DWIDTH 20 0
BBX 14 30 0 -7
BITMAP
07FC
07FC
07FC
07FC
07FC
07FC
07FC
07FC
07FC
07FC
FFFC
FFFC
FFFC
FFFC
FFFC
FFFC
FFFC
FFFC
FFFC
07FC
07FC
07FC
07FC
07FC
07FC
07FC
07FC
07FC
07FC
07FC
ENDCHAR
STARTCHAR SF060000
ENCODING 9516
SWIDTH 600 0
DWIDTH 20 0
BBX 20 17 0 -7
BITMAP
FFFFF0
FFFFF0
FFFFF0
00E000
00E000
00E000
00E000
00E000
00E000
00E000
00E000
00E000
00E000
00E000
00E000
00E000
00E000
ENDCHAR
STARTCHAR uni252D
ENCODING 9517
SWIDTH 600 0
DWIDTH 20 0
BBX 20 20 0 -7
BITMAP
FFFC00
FFFC00
FFFC00
FFFFF0
FFFFF0
FFFFF0
FFFC00
FFFC00
FFFC00
00E000
00E000
00E000
00E000
00E000
00E000
00E000
00E000
00E000
00E000
00E000
ENDCHAR
STARTCHAR uni252E
ENCODING 9518
SWIDTH 600 0
DWIDTH 20 0
BBX 20 20 0 -7
BITMAP
07FFF0
07FFF0
07FFF0
FFFFF0
FFFFF0
FFFFF0
07FFF0
07FFF0
07FFF0
00E000
00E000
00E000
00E000
00E000
00E000
00E000
00E000
00E000
00E000
00E000
ENDCHAR
STARTCHAR uni252F
ENCODING 9519
SWIDTH 600 0
DWIDTH 20 0
BBX 20 20 0 -7
BITMAP
FFFFF0
FFFFF0
FFFFF0
FFFFF0
FFFFF0
FFFFF0
FFFFF0
FFFFF0
FFFFF0
00E000
00E000
00E000
00E000
00E000
00E000
00E000
00E000
00E000
00E000
00E000
ENDCHAR
STARTCHAR uni2530
ENCODING 9520
SWIDTH 600 0
DWIDTH 20 0
BBX 20 20 0 -7
BITMAP
07FC00
07FC00
07FC00
FFFFF0
FFFFF0
FFFFF0
07FC00
07FC00
07FC00
07FC00
07FC00
07FC00
07FC00
07FC00
07FC00
07FC00
07FC00
07FC00
07FC00
07FC00
ENDCHAR
STARTCHAR uni2531
ENCODING 9521
SWIDTH 600 0
DWIDTH 20 0
BBX 20 20 0 -7
BITMAP
FFFC00
FFFC00
FFFC00
FFFFF0
FFFFF0
FFFFF0
FFFC00
FFFC00
FFFC00
07FC00
07FC00
07FC00
07FC00
07FC00
07FC00
07FC00
07FC00
07FC00
07FC00
07FC00
ENDCHAR
STARTCHAR uni2532
ENCODING 9522
SWIDTH 600 0
DWIDTH 20 0
BBX 20 20 0 -7
BITMAP
07FFF0
07FFF0
07FFF0
FFFFF0
FFFFF0
FFFFF0
07FFF0
07FFF0
07FFF0
07FC00
07FC00
07FC00
07FC00
07FC00
07FC00
07FC00
07FC00
07FC00
07FC00
07FC00
ENDCHAR
STARTCHAR uni2533
ENCODING 9523
SWIDTH 600 0
DWIDTH 20 0
BBX 20 20 0 -7
BITMAP
FFFFF0
FFFFF0
FFFFF0
FFFFF0
FFFFF0
FFFFF0
FFFFF0
FFFFF0
FFFFF0
07FC00
07FC00
07FC00
07FC00
07FC00
07FC00
07FC00
07FC00
07FC00
07FC00
07FC00
ENDCHAR
STARTCHAR SF070000
ENCODING 9524
SWIDTH 600 0
DWIDTH 20 0
BBX 20 16 0 7
BITMAP
00E000
00E000
00E000
00E000
00E000
00E000
00E000
00E000
00E000
00E000
00E000
00E000
00E000
FFFFF0
FFFFF0
FFFFF0
ENDCHAR
STARTCHAR uni2535
ENCODING 9525
SWIDTH 600 0
DWIDTH 20 0
BBX 20 19 0 4
BITMAP
00E000
00E000
00E000
00E000
00E000
00E000
00E000
00E000
00E000
00E000
FFFC00
FFFC00
FFFC00
FFFFF0
FFFFF0
FFFFF0
FFFC00
FFFC00
FFFC00
ENDCHAR
STARTCHAR uni2536
ENCODING 9526
SWIDTH 600 0
DWIDTH 20 0
BBX 20 19 0 4
BITMAP
00E000
00E000
00E000
00E000
00E000
00E000
00E000
00E000
00E000
00E000
07FFF0
07FFF0
07FFF0
FFFFF0
FFFFF0
FFFFF0
07FFF0
07FFF0
07FFF0
ENDCHAR
STARTCHAR uni2537
ENCODING 9527
SWIDTH 600 0
DWIDTH 20 0
BBX 20 19 0 4
BITMAP
00E000
00E000
00E000
00E000
00E000
00E000
00E000
00E000
00E000
00E000
FFFFF0
FFFFF0
FFFFF0
FFFFF0
FFFFF0
FFFFF0
FFFFF0
FFFFF0
FFFFF0
ENDCHAR
STARTCHAR uni2538
ENCODING 9528
SWIDTH 600 0
DWIDTH 20 0
BBX 20 19 0 4
BITMAP
07FC00
07FC00
07FC00
07FC00
07FC00
07FC00
07FC00
07FC00
07FC00
07FC00
07FC00
07FC00
07FC00
FFFFF0
FFFFF0
FFFFF0
07FC00
07FC00
07FC00
ENDCHAR
STARTCHAR uni2539
ENCODING 9529
SWIDTH 600 0
DWIDTH 20 0
BBX 20 19 0 4
BITMAP
07FC00
07FC00
07FC00
07FC00
07FC00
07FC00
07FC00
07FC00
07FC00
07FC00
FFFC00
FFFC00
FFFC00
FFFFF0
FFFFF0
FFFFF0
FFFC00
FFFC00
FFFC00
ENDCHAR
STARTCHAR uni253A
ENCODING 9530
SWIDTH 600 0
DWIDTH 20 0
BBX 20 19 0 4
BITMAP
07FC00
07FC00
07FC00
07FC00
07FC00
07FC00
07FC00
07FC00
07FC00
07FC00
07FFF0
07FFF0
07FFF0
FFFFF0
FFFFF0
FFFFF0
07FFF0
07FFF0
07FFF0
ENDCHAR
STARTCHAR uni253B
ENCODING 9531
SWIDTH 600 0
DWIDTH 20 0
BBX 20 19 0 4
BITMAP
07FC00
07FC00
07FC00
07FC00
07FC00
07FC00
07FC00
07FC00
07FC00
07FC00
FFFFF0
FFFFF0
FFFFF0
FFFFF0
FFFFF0
FFFFF0
FFFFF0
FFFFF0
FFFFF0
ENDCHAR
STARTCHAR SF050000
ENCODING 9532
SWIDTH 600 0
DWIDTH 20 0
BBX 20 30 0 -7
BITMAP
00E000
00E000
00E000
00E000
00E000
00E000
00E000
00E000
00E000
00E000
00E000
00E000
00E000
FFFFF0
FFFFF0
FFFFF0
00E000
00E000
00E000
00E000
00E000
00E000
00E000
00E000
00E000
00E000
00E000
00E000
00E000
00E000
ENDCHAR
STARTCHAR uni253D
ENCODING 9533
SWIDTH 600 0
DWIDTH 20 0
BBX 20 30 0 -7
BITMAP
00E000
00E000
00E000
00E000
00E000
00E000
00E000
00E000
00E000
00E000
FFFC00
FFFC00
FFFC00
FFFFF0
FFFFF0
FFFFF0
FFFC00
FFFC00
FFFC00
00E000
00E000
00E000
00E000
00E000
00E000
00E000
00E000
00E000
00E000
00E000
ENDCHAR
STARTCHAR uni253E
ENCODING 9534
SWIDTH 600 0
DWIDTH 20 0
BBX 20 30 0 -7
BITMAP
00E000
00E000
00E000
00E000
00E000
00E000
00E000
00E000
00E000
00E000
07FFF0
07FFF0
07FFF0
FFFFF0
FFFFF0
FFFFF0
07FFF0
07FFF0
07FFF0
00E000
00E000
00E000
00E000
00E000
00E000
00E000
00E000
00E000
00E000
00E000
ENDCHAR
STARTCHAR uni253F
ENCODING 9535
SWIDTH 600 0
DWIDTH 20 0
BBX 20 30 0 -7
BITMAP
00E000
00E000
00E000
00E000
00E000
00E000
00E000
00E000
00E000
00E000
FFFFF0
FFFFF0
FFFFF0
FFFFF0
FFFFF0
FFFFF0
FFFFF0
FFFFF0
FFFFF0
00E000
00E000
00E000
00E000
00E000
00E000
00E000
00E000
00E000
00E000
00E000
ENDCHAR
STARTCHAR uni2540
ENCODING 9536
SWIDTH 600 0
DWIDTH 20 0
BBX 20 30 0 -7
BITMAP
07FC00
07FC00
07FC00
07FC00
07FC00
07FC00
07FC00
07FC00
07FC00
07FC00
07FC00
07FC00
07FC00
FFFFF0
FFFFF0
FFFFF0
07FC00
07FC00
07FC00
00E000
00E000
00E000
00E000
00E000
00E000
00E000
00E000
00E000
00E000
00E000
ENDCHAR
STARTCHAR uni2541
ENCODING 9537
SWIDTH 600 0
DWIDTH 20 0
BBX 20 30 0 -7
BITMAP
00E000
00E000
00E000
00E000
00E000
00E000
00E000
00E000
00E000
00E000
07FC00
07FC00
07FC00
FFFFF0
FFFFF0
FFFFF0
07FC00
07FC00
07FC00
07FC00
07FC00
07FC00
07FC00
07FC00
07FC00
07FC00
07FC00
07FC00
07FC00
07FC00
ENDCHAR
STARTCHAR uni2542
ENCODING 9538
SWIDTH 600 0
DWIDTH 20 0
BBX 20 30 0 -7
BITMAP
07FC00
07FC00
07FC00
07FC00
07FC00
07FC00
07FC00
07FC00
07FC00
07FC00
07FC00
07FC00
07FC00
FFFFF0
FFFFF0
FFFFF0
07FC00
07FC00
07FC00
07FC00
07FC00
07FC00
07FC00
07FC00
07FC00
07FC00
07FC00
07FC00
07FC00
07FC00
ENDCHAR
STARTCHAR uni2543
ENCODING 9539
SWIDTH 600 0
DWIDTH 20 0
BBX 20 30 0 -7
BITMAP
07FC00
07FC00
07FC00
07FC00
07FC00
07FC00
07FC00
07FC00
07FC00
07FC00
FFFC00
FFFC00
FFFC00
FFFFF0
FFFFF0
FFFFF0
FFFC00
FFFC00
FFFC00
00E000
00E000
00E000
00E000
00E000
00E000
00E000
00E000
00E000
00E000
00E000
ENDCHAR
STARTCHAR uni2544
ENCODING 9540
SWIDTH 600 0
DWIDTH 20 0
BBX 20 30 0 -7
BITMAP
07FC00
07FC00
07FC00
07FC00
07FC00
07FC00
07FC00
07FC00
07FC00
07FC00
07FFF0
07FFF0
07FFF0
FFFFF0
FFFFF0
FFFFF0
07FFF0
07FFF0
07FFF0
00E000
00E000
00E000
00E000
00E000
00E000
00E000
00E000
00E000
00E000
00E000
ENDCHAR
STARTCHAR uni2545
ENCODING 9541
SWIDTH 600 0
DWIDTH 20 0
BBX 20 30 0 -7
BITMAP
00E000
00E000
00E000
00E000
00E000
00E000
00E000
00E000
00E000
00E000
FFFC00
FFFC00
FFFC00
FFFFF0
FFFFF0
FFFFF0
FFFC00
FFFC00
FFFC00
07FC00
07FC00
07FC00
07FC00
07FC00
07FC00
07FC00
07FC00
07FC00
07FC00
07FC00
ENDCHAR
STARTCHAR uni2546
ENCODING 9542
SWIDTH 600 0
DWIDTH 20 0
BBX 20 30 0 -7
BITMAP
00E000
00E000
00E000
00E000
00E000
00E000
00E000
00E000
00E000
00E000
07FFF0
07FFF0
07FFF0
FFFFF0
FFFFF0
FFFFF0
07FFF0
07FFF0
07FFF0
07FC00
07FC00
07FC00
07FC00
07FC00
07FC00
07FC00
07FC00
07FC00
07FC00
07FC00
ENDCHAR
STARTCHAR uni2547
ENCODING 9543
SWIDTH 600 0
DWIDTH 20 0
BBX 20 30 0 -7
BITMAP
07FC00
07FC00
07FC00
07FC00
07FC00
07FC00
07FC00
07FC00
07FC00
07FC00
FFFFF0
FFFFF0
FFFFF0
FFFFF0
FFFFF0
FFFFF0
FFFFF0
FFFFF0
FFFFF0
00E000
00E000
00E000
00E000
00E000
00E000
00E000
00E000
00E000
00E000
00E000
ENDCHAR
STARTCHAR uni2548
ENCODING 9544
SWIDTH 600 0
DWIDTH 20 0
BBX 20 30 0 -7
BITMAP
00E000
00E000
00E000
00E000
00E000
00E000
00E000
00E000
00E000
00E000
FFFFF0
FFFFF0
FFFFF0
FFFFF0
FFFFF0
FFFFF0
FFFFF0
FFFFF0
FFFFF0
07FC00
07FC00
07FC00
07FC00
07FC00
07FC00
07FC00
07FC00
07FC00
07FC00
07FC00
ENDCHAR
STARTCHAR uni2549
ENCODING 9545
SWIDTH 600 0
DWIDTH 20 0
BBX 20 30 0 -7
BITMAP
07FC00
07FC00
07FC00
07FC00
07FC00
07FC00
07FC00
07FC00
07FC00
07FC00
FFFC00
FFFC00
FFFC00
FFFFF0
FFFFF0
FFFFF0
FFFC00
FFFC00
FFFC00
07FC00
07FC00
07FC00
07FC00
07FC00
07FC00
07FC00
07FC00
07FC00
07FC00
07FC00
ENDCHAR
STARTCHAR uni254A
ENCODING 9546
SWIDTH 600 0
DWIDTH 20 0
BBX 20 30 0 -7
BITMAP
07FC00
07FC00
07FC00
07FC00
07FC00
07FC00
07FC00
07FC00
07FC00
07FC00
07FFF0
07FFF0
07FFF0
FFFFF0
FFFFF0
FFFFF0
07FFF0
07FFF0
07FFF0
07FC00
07FC00
07FC00
07FC00
07FC00
07FC00
07FC00
07FC00
07FC00
07FC00
07FC00
ENDCHAR
STARTCHAR uni254B
ENCODING 9547
SWIDTH 600 0
DWIDTH 20 0
BBX 20 30 0 -7
BITMAP
07FC00
07FC00
07FC00
07FC00
07FC00
07FC00
07FC00
07FC00
07FC00
07FC00
FFFFF0
FFFFF0
FFFFF0
FFFFF0
FFFFF0
FFFFF0
FFFFF0
FFFFF0
FFFFF0
07FC00
07FC00
07FC00
07FC00
07FC00
07FC00
07FC00
07FC00
07FC00
07FC00
07FC00
ENDCHAR
STARTCHAR uni254C
ENCODING 9548
SWIDTH 600 0
DWIDTH 20 0
BBX 20 30 0 -7
BITMAP
000000
000000
000000
000000
000000
000000
000000
000000
000000
000000
000000
000000
000000
FF1FF0
FF1FF0
FF1FF0
000000
000000
000000
000000
000000
000000
000000
000000
000000
000000
000000
000000
000000
000000
ENDCHAR
STARTCHAR uni254D
ENCODING 9549
SWIDTH 600 0
DWIDTH 20 0
BBX 20 30 0 -7
BITMAP
000000
000000
000000
000000
000000
000000
000000
000000
000000
000000
FF1FF0
FF1FF0
FF1FF0
FF1FF0
FF1FF0
FF1FF0
FF1FF0
FF1FF0
FF1FF0
000000
000000
000000
000000
000000
000000
000000
000000
000000
000000
000000
ENDCHAR
STARTCHAR uni254E
ENCODING 9550
SWIDTH 600 0
DWIDTH 20 0
BBX 20 30 0 -7
BITMAP
00E000
00E000
00E000
00E000
00E000
00E000
00E000
00E000
00E000
00E000
00E000
00E000
00E000
000000
000000
000000
00E000
00E000
00E000
00E000
00E000
00E000
00E000
00E000
00E000
00E000
00E000
00E000
00E000
00E000
ENDCHAR
STARTCHAR uni254F
ENCODING 9551
SWIDTH 600 0
DWIDTH 20 0
BBX 20 30 0 -7
BITMAP
07FC00
07FC00
07FC00
07FC00
07FC00
07FC00
07FC00
07FC00
07FC00
07FC00
07FC00
07FC00
07FC00
000000
000000
000000
07FC00
07FC00
07FC00
07FC00
07FC00
07FC00
07FC00
07FC00
07FC00
07FC00
07FC00
07FC00
07FC00
07FC00
ENDCHAR
STARTCHAR SF430000
ENCODING 9552
SWIDTH 600 0
DWIDTH 20 0
BBX 20 9 0 4
BITMAP
FFFFF0
FFFFF0
FFFFF0
000000
000000
000000
FFFFF0
FFFFF0
FFFFF0
ENDCHAR
STARTCHAR SF240000
ENCODING 9553
SWIDTH 600 0
DWIDTH 20 0
BBX 9 30 5 -7
BITMAP
E380
E380
E380
E380
E380
E380
E380
E380
E380
E380
E380
E380
E380
E380
E380
E380
E380
E380
E380
E380
E380
E380
E380
E380
E380
E380
E380
E380
E380
E380
ENDCHAR
STARTCHAR SF390000
ENCODING 9556
SWIDTH 600 0
DWIDTH 20 0
BBX 15 20 5 -7
BITMAP
FFFE
FFFE
FFFE
E000
E000
E000
E3FE
E3FE
E3FE
E380
E380
E380
E380
E380
E380
E380
E380
E380
E380
E380
ENDCHAR
STARTCHAR SF250000
ENCODING 9559
SWIDTH 600 0
DWIDTH 20 0
BBX 14 20 0 -7
BITMAP
FFFC
FFFC
FFFC
001C
001C
001C
FF1C
FF1C
FF1C
071C
071C
071C
071C
071C
071C
071C
071C
071C
071C
071C
ENDCHAR
STARTCHAR SF380000
ENCODING 9562
SWIDTH 600 0
DWIDTH 20 0
BBX 15 19 5 4
BITMAP
E380
E380
E380
E380
E380
E380
E380
E380
E380
E380
E3FE
E3FE
E3FE
E000
E000
E000
FFFE
FFFE
FFFE
ENDCHAR
STARTCHAR SF260000
ENCODING 9565
SWIDTH 600 0
DWIDTH 20 0
BBX 14 19 0 4
BITMAP
071C
071C
071C
071C
071C
071C
071C
071C
071C
071C
FF1C
FF1C
FF1C
001C
001C
001C
FFFC
FFFC
FFFC
ENDCHAR
STARTCHAR SF420000
ENCODING 9568
SWIDTH 600 0
DWIDTH 20 0
BBX 15 30 5 -7
BITMAP
E380
E380
E380
E380
E380
E380
E380
E380
E380
E380
E3FE
E3FE
E3FE
E000
E000
E000
E3FE
E3FE
E3FE
E380
E380
E380
E380
E380
E380
E380
E380
E380
E380
E380
ENDCHAR
STARTCHAR SF230000
ENCODING 9571
SWIDTH 600 0
DWIDTH 20 0
BBX 14 30 0 -7
BITMAP
071C
071C
071C
071C
071C
071C
071C
071C
071C
071C
FF1C
FF1C
FF1C
001C
001C
001C
FF1C
FF1C
FF1C
071C
071C
071C
071C
071C
071C
071C
071C
071C
071C
071C
ENDCHAR
STARTCHAR SF410000
ENCODING 9574
SWIDTH 600 0
DWIDTH 20 0
BBX 20 20 0 -7
BITMAP
FFFFF0
FFFFF0
FFFFF0
000000
000000
000000
FF1FF0
FF1FF0
FF1FF0
071C00
071C00
071C00
071C00
071C00
071C00
071C00
071C00
071C00
071C00
071C00
ENDCHAR
STARTCHAR SF400000
ENCODING 9577
SWIDTH 600 0
DWIDTH 20 0
BBX 20 19 0 4
BITMAP
071C00
071C00
071C00
071C00
071C00
071C00
071C00
071C00
071C00
071C00
FF1FF0
FF1FF0
FF1FF0
000000
000000
000000
FFFFF0
FFFFF0
FFFFF0
ENDCHAR
STARTCHAR SF540000
ENCODING 9578
SWIDTH 600 0
DWIDTH 20 0
BBX 20 30 0 -7
BITMAP
00E000
00E000
00E000
00E000
00E000
00E000
00E000
00E000
00E000
00E000
FFFFF0
FFFFF0
FFFFF0
00E000
00E000
00E000
FFFFF0
FFFFF0
FFFFF0
00E000
00E000
00E000
00E000
00E000
00E000
00E000
00E000
00E000
00E000
00E000
ENDCHAR
STARTCHAR SF530000
ENCODING 9579
SWIDTH 600 0
DWIDTH 20 0
BBX 20 30 0 -7
BITMAP
071C00
071C00
071C00
071C00
071C00
071C00
071C00
071C00
071C00
071C00
071C00
071C00
071C00
FFFFF0
FFFFF0
FFFFF0
071C00
071C00
071C00
071C00
071C00
071C00
071C00
071C00
071C00
071C00
071C00
071C00
071C00
071C00
ENDCHAR
STARTCHAR SF440000
ENCODING 9580
SWIDTH 600 0
DWIDTH 20 0
BBX 20 30 0 -7
BITMAP
071C00
071C00
071C00
071C00
071C00
071C00
071C00
071C00
071C00
071C00
FF1FF0
FF1FF0
FF1FF0
000000
000000
000000
FF1FF0
FF1FF0
FF1FF0
071C00
071C00
071C00
071C00
071C00
071C00
071C00
071C00
071C00
071C00
071C00
ENDCHAR
STARTCHAR uni2574
ENCODING 9588
SWIDTH 600 0
DWIDTH 20 0
BBX 11 3 0 7
BITMAP
FFE0
FFE0
FFE0
ENDCHAR
STARTCHAR uni2575
ENCODING 9589
SWIDTH 600 0
DWIDTH 20 0
BBX 3 16 8 7
BITMAP
E0
E0
E0
E0
E0
E0
E0
E0
E0
E0
E0
E0
E0
E0
E0
E0
ENDCHAR
STARTCHAR uni2576
ENCODING 9590
SWIDTH 600 0
DWIDTH 20 0
BBX 12 3 8 7
BITMAP
FFF0
FFF0
FFF0
ENDCHAR
STARTCHAR uni2577
ENCODING 9591
SWIDTH 600 0
DWIDTH 20 0
BBX 3 17 8 -7
BITMAP
E0
E0
E0
E0
E0
E0
E0
E0
E0
E0
E0
E0
E0
E0
E0
E0
E0
ENDCHAR
STARTCHAR uni2578
ENCODING 9592
SWIDTH 600 0
DWIDTH 20 0
BBX 14 9 0 4
BITMAP
FFFC
FFFC
FFFC
FFFC
FFFC
FFFC
FFFC
FFFC
FFFC
ENDCHAR
STARTCHAR uni2579
ENCODING 9593
SWIDTH 600 0
DWIDTH 20 0
BBX 9 19 5 4
BITMAP
FF80
FF80
FF80
FF80
FF80
FF80
FF80
FF80
FF80
FF80
FF80
FF80
FF80
FF80
FF80
FF80
FF80
FF80
FF80
ENDCHAR
STARTCHAR uni257A
ENCODING 9594
SWIDTH 600 0
DWIDTH 20 0
BBX 15 9 5 4
BITMAP
FFFE
FFFE
FFFE
FFFE
FFFE
FFFE
FFFE
FFFE
FFFE
ENDCHAR
STARTCHAR uni257B
ENCODING 9595
SWIDTH 600 0
DWIDTH 20 0
BBX 9 20 5 -7
BITMAP
FF80
FF80
FF80
FF80
FF80
FF80
FF80
FF80
FF80
FF80
FF80
FF80
FF80
FF80
FF80
FF80
FF80
FF80
FF80
FF80
ENDCHAR
STARTCHAR uni257C
ENCODING 9596
SWIDTH 600 0
DWIDTH 20 0
BBX 20 9 0 4
BITMAP
07FFF0
07FFF0
07FFF0
FFFFF0
FFFFF0
FFFFF0
07FFF0
07FFF0
07FFF0
ENDCHAR
STARTCHAR uni257D
ENCODING 9597
SWIDTH 600 0
DWIDTH 20 0
BBX 9 30 5 -7
BITMAP
1C00
1C00
1C00
1C00
1C00
1C00
1C00
1C00
1C00
1C00
FF80
FF80
FF80
FF80
FF80
FF80
FF80
FF80
FF80
FF80
FF80
FF80
FF80
FF80
FF80
FF80
FF80
FF80
FF80
FF80
ENDCHAR
STARTCHAR uni257E
ENCODING 9598
SWIDTH 600 0
DWIDTH 20 0
BBX 20 9 0 4
BITMAP
FFFC00
FFFC00
FFFC00
FFFFF0
FFFFF0
FFFFF0
FFFC00
FFFC00
FFFC00
ENDCHAR
STARTCHAR uni257F
ENCODING 9599
SWIDTH 600 0
DWIDTH 20 0
BBX 9 30 5 -7
BITMAP
FF80
FF80
FF80
FF80
FF80
FF80
FF80
FF80
FF80
FF80
FF80
FF80
FF80
FF80
FF80
FF80
FF80
FF80
FF80
1C00
1C00
1C00
1C00
1C00
1C00
1C00
1C00
1C00
1C00
1C00
ENDCHAR
STARTCHAR upblock
ENCODING 9600
SWIDTH 600 0
DWIDTH 20 0
BBX 20 31 0 -7
BITMAP
FFFFF0
FFFFF0
FFFFF0
FFFFF0
FFFFF0
FFFFF0
FFFFF0
FFFFF0
FFFFF0
FFFFF0
FFFFF0
FFFFF0
FFFFF0
FFFFF0
FFFFF0
000000
000000
000000
000000
000000
000000
000000
000000
000000
000000
000000
000000
000000
000000
000000
000000
ENDCHAR
STARTCHAR uni2581
ENCODING 9601
SWIDTH 600 0
DWIDTH 20 0
BBX 20 4 0 -7
BITMAP
FFFFF0
FFFFF0
FFFFF0
FFFFF0
ENDCHAR
STARTCHAR uni2582
ENCODING 9602
SWIDTH 600 0
DWIDTH 20 0
BBX 20 8 0 -7
BITMAP
FFFFF0
FFFFF0
FFFFF0
FFFFF0
FFFFF0
FFFFF0
FFFFF0
FFFFF0
ENDCHAR
STARTCHAR uni2583
ENCODING 9603
SWIDTH 600 0
DWIDTH 20 0
BBX 20 12 0 -7
BITMAP
FFFFF0
FFFFF0
FFFFF0
FFFFF0
FFFFF0
FFFFF0
FFFFF0
FFFFF0
FFFFF0
FFFFF0
FFFFF0
FFFFF0
ENDCHAR
STARTCHAR dnblock
ENCODING 9604
SWIDTH 600 0
DWIDTH 20 0
BBX 20 16 0 -7
BITMAP
FFFFF0
FFFFF0
FFFFF0
FFFFF0
FFFFF0
FFFFF0
FFFFF0
FFFFF0
FFFFF0
FFFFF0
FFFFF0
FFFFF0
FFFFF0
FFFFF0
FFFFF0
FFFFF0
ENDCHAR
STARTCHAR uni2585
ENCODING 9605
SWIDTH 600 0
DWIDTH 20 0
BBX 20 19 0 -7
BITMAP
FFFFF0
FFFFF0
FFFFF0
FFFFF0
FFFFF0
FFFFF0
FFFFF0
FFFFF0
FFFFF0
FFFFF0
FFFFF0
FFFFF0
FFFFF0
FFFFF0
FFFFF0
FFFFF0
FFFFF0
FFFFF0
FFFFF0
ENDCHAR
STARTCHAR uni2586
ENCODING 9606
SWIDTH 600 0
DWIDTH 20 0
BBX 20 23 0 -7
BITMAP
FFFFF0
FFFFF0
FFFFF0
FFFFF0
FFFFF0
FFFFF0
FFFFF0
FFFFF0
FFFFF0
FFFFF0
FFFFF0
FFFFF0
FFFFF0
FFFFF0
FFFFF0
FFFFF0
FFFFF0
FFFFF0
FFFFF0
FFFFF0
FFFFF0
FFFFF0
FFFFF0
ENDCHAR
STARTCHAR uni2587
ENCODING 9607
SWIDTH 600 0
DWIDTH 20 0
BBX 20 27 0 -7
BITMAP
FFFFF0
FFFFF0
FFFFF0
FFFFF0
FFFFF0
FFFFF0
FFFFF0
FFFFF0
FFFFF0
FFFFF0
FFFFF0
FFFFF0
FFFFF0
FFFFF0
FFFFF0
FFFFF0
FFFFF0
FFFFF0
FFFFF0
FFFFF0
FFFFF0
FFFFF0
FFFFF0
FFFFF0
FFFFF0
FFFFF0
FFFFF0
ENDCHAR
STARTCHAR block
ENCODING 9608
SWIDTH 600 0
DWIDTH 20 0
BBX 20 31 0 -7
BITMAP
FFFFF0
FFFFF0
FFFFF0
FFFFF0
FFFFF0
FFFFF0
FFFFF0
FFFFF0
FFFFF0
FFFFF0
FFFFF0
FFFFF0
FFFFF0
FFFFF0
FFFFF0
FFFFF0
FFFFF0
FFFFF0
FFFFF0
FFFFF0
FFFFF0
FFFFF0
FFFFF0
FFFFF0
FFFFF0
FFFFF0
FFFFF0
FFFFF0
FFFFF0
FFFFF0
FFFFF0
ENDCHAR
STARTCHAR uni2589
ENCODING 9609
SWIDTH 600 0
DWIDTH 20 0
BBX 18 31 0 -7
BITMAP
FFFFC0
FFFFC0
FFFFC0
FFFFC0
FFFFC0
FFFFC0
FFFFC0
FFFFC0
FFFFC0
FFFFC0
FFFFC0
FFFFC0
FFFFC0
FFFFC0
FFFFC0
FFFFC0
FFFFC0
FFFFC0
FFFFC0
FFFFC0
FFFFC0
FFFFC0
FFFFC0
FFFFC0
FFFFC0
FFFFC0
FFFFC0
FFFFC0
FFFFC0
FFFFC0
FFFFC0
ENDCHAR
STARTCHAR uni258A
ENCODING 9610
SWIDTH 600 0
DWIDTH 20 0
BBX 15 31 0 -7
BITMAP
FFFE
FFFE
FFFE
FFFE
FFFE
FFFE
FFFE
FFFE
FFFE
FFFE
FFFE
FFFE
FFFE
FFFE
FFFE
FFFE
FFFE
FFFE
FFFE
FFFE
FFFE
FFFE
FFFE
FFFE
FFFE
FFFE
FFFE
FFFE
FFFE
FFFE
FFFE
ENDCHAR
STARTCHAR uni258B
ENCODING 9611
SWIDTH 600 0
DWIDTH 20 0
BBX 13 31 0 -7
BITMAP
FFF8
FFF8
FFF8
FFF8
FFF8
FFF8
FFF8
FFF8
FFF8
FFF8
FFF8
FFF8
FFF8
FFF8
FFF8
FFF8
FFF8
FFF8
FFF8
FFF8
FFF8
FFF8
FFF8
FFF8
FFF8
FFF8
FFF8
FFF8
FFF8
FFF8
FFF8
ENDCHAR
STARTCHAR lfblock
ENCODING 9612
SWIDTH 600 0
DWIDTH 20 0
BBX 10 31 0 -7
BITMAP
FFC0
FFC0
FFC0
FFC0
FFC0
FFC0
FFC0
FFC0
FFC0
FFC0
FFC0
FFC0
FFC0
FFC0
FFC0
FFC0
FFC0
FFC0
FFC0
FFC0
FFC0
FFC0
FFC0
FFC0
FFC0
FFC0
FFC0
FFC0
FFC0
FFC0
FFC0
ENDCHAR
STARTCHAR uni258D
ENCODING 9613
SWIDTH 600 0
DWIDTH 20 0
BBX 8 31 0 -7
BITMAP
FF
FF
FF
FF
FF
FF
FF
FF
FF
FF
FF
FF
FF
FF
FF
FF
FF
FF
FF
FF
FF
FF
FF
FF
FF
FF
FF
FF
FF
FF
FF
ENDCHAR
STARTCHAR uni258E
ENCODING 9614
SWIDTH 600 0
DWIDTH 20 0
BBX 5 31 0 -7
BITMAP
F8
F8
F8
F8
F8
F8
F8
F8
F8
F8
F8
F8
F8
F8
F8
F8
F8
F8
F8
F8
F8
F8
F8
F8
F8
F8
F8
F8
F8
F8
F8
ENDCHAR
STARTCHAR uni258F
ENCODING 9615
SWIDTH 600 0
DWIDTH 20 0
BBX 3 31 0 -7
BITMAP
E0
E0
E0
E0
E0
E0
E0
E0
E0
E0
E0
E0
E0
E0
E0
E0
E0
E0
E0
E0
E0
E0
E0
E0
E0
E0
E0
E0
E0
E0
E0
ENDCHAR
STARTCHAR rtblock
ENCODING 9616
SWIDTH 600 0
DWIDTH 20 0
BBX 20 31 0 -7
BITMAP
003FF0
003FF0
003FF0
003FF0
003FF0
003FF0
003FF0
003FF0
003FF0
003FF0
003FF0
003FF0
003FF0
003FF0
003FF0
003FF0
003FF0
003FF0
003FF0
003FF0
003FF0
003FF0
003FF0
003FF0
003FF0
003FF0
003FF0
003FF0
003FF0
003FF0
003FF0
ENDCHAR
STARTCHAR ltshade
ENCODING 9617
SWIDTH 600 0
DWIDTH 20 0
BBX 20 31 0 -7
BITMAP
000000
555550
000000
AAAAA0
000000
555550
000000
AAAAA0
000000
555550
000000
AAAAA0
000000
555550
000000
AAAAA0
000000
555550
000000
AAAAA0
000000
555550
000000
AAAAA0
000000
555550
000000
AAAAA0
000000
555550
000000
ENDCHAR
STARTCHAR shade
ENCODING 9618
SWIDTH 600 0
DWIDTH 20 0
BBX 20 31 0 -7
BITMAP
555550
AAAAA0
555550
AAAAA0
555550
AAAAA0
555550
AAAAA0
555550
AAAAA0
555550
AAAAA0
555550
AAAAA0
555550
AAAAA0
555550
AAAAA0
555550
AAAAA0
555550
AAAAA0
555550
AAAAA0
555550
AAAAA0
555550
AAAAA0
555550
AAAAA0
555550
ENDCHAR
STARTCHAR dkshade
ENCODING 9619
SWIDTH 600 0
DWIDTH 20 0
BBX 20 31 0 -7
BITMAP
FFFFF0
AAAAA0
FFFFF0
555550
FFFFF0
AAAAA0
FFFFF0
555550
FFFFF0
AAAAA0
FFFFF0
555550
FFFFF0
AAAAA0
FFFFF0
555550
FFFFF0
AAAAA0
FFFFF0
555550
FFFFF0
AAAAA0
FFFFF0
555550
FFFFF0
AAAAA0
FFFFF0
555550
FFFFF0
AAAAA0
FFFFF0
ENDCHAR
STARTCHAR uni2594
ENCODING 9620
SWIDTH 600 0
DWIDTH 20 0
BBX 20 31 0 -7
BITMAP
FFFFF0
FFFFF0
FFFFF0
FFFFF0
000000
000000
000000
000000
000000
000000
000000
000000
000000
000000
000000
000000
000000
000000
000000
000000
000000
000000
000000
000000
000000
000000
000000
000000
000000
000000
000000
ENDCHAR
STARTCHAR uni2595
ENCODING 9621
SWIDTH 600 0
DWIDTH 20 0
BBX 20 31 0 -7
BITMAP
0001F0
0001F0
0001F0
0001F0
0001F0
0001F0
0001F0
0001F0
0001F0
0001F0
0001F0
0001F0
0001F0
0001F0
0001F0
0001F0
0001F0
0001F0
0001F0
0001F0
0001F0
0001F0
0001F0
0001F0
0001F0
0001F0
0001F0
0001F0
0001F0
0001F0
0001F0
ENDCHAR
STARTCHAR fi
ENCODING -1
SWIDTH 600 0
DWIDTH 20 0
BBX 20 21 -1 0
BITMAP
03F780
07F780
07F780
0E0780
0E0000
0E0000
7FDF80
7FDF80
7FDF80
0E0380
0E0380
0E0380
0E0380
0E0380
0E0380
0E0380
0E0380
0E0380
FFDFF0
FFDFF0
FFDFF0
ENDCHAR
STARTCHAR fl
ENCODING -1
SWIDTH 600 0
DWIDTH 20 0
BBX 20 21 -1 0
BITMAP
03FF80
07FF80
07FF80
0E0380
0E0380
0E0380
7FC380
7FC380
7FC380
0E0380
0E0380
0E0380
0E0380
0E0380
0E0380
0E0380
0E0380
0E0380
FFDFF0
FFDFF0
FFDFF0
ENDCHAR
ENDFONT
